<svg xmlns="http://www.w3.org/2000/svg" width="72" height="72" viewBox="0 0 72 72">
  <g id="btn_paper" transform="translate(17512 968)">
    <path id="패스_2161" data-name="패스 2161" d="M36,72A36,36,0,1,1,72,36,35.977,35.977,0,0,1,36,72ZM36,2A34,34,0,1,0,70,36,34.1,34.1,0,0,0,36,2Z" transform="translate(-17512 -968)" fill="none"/>
    <g id="file-earmark-text" transform="translate(-17490.129 -948.174)">
      <path id="패스_2166" data-name="패스 2166" d="M6.011,7a1.011,1.011,0,0,0,0,2.022H16.119a1.011,1.011,0,0,0,0-2.022ZM5,12.054a1.011,1.011,0,0,1,1.011-1.011H16.119a1.011,1.011,0,1,1,0,2.022H6.011A1.011,1.011,0,0,1,5,12.054ZM5,16.1a1.011,1.011,0,0,1,1.011-1.011h4.043a1.011,1.011,0,1,1,0,2.022H6.011A1.011,1.011,0,0,1,5,16.1Z" transform="translate(3.065 7.152)" fill="#6d95ff"/>
      <path id="패스_2167" data-name="패스 2167" d="M17.163,0H6.043A4.043,4.043,0,0,0,2,4.043V28.3a4.043,4.043,0,0,0,4.043,4.043H22.217A4.043,4.043,0,0,0,26.261,28.3V9.1Zm0,2.022V6.065A3.033,3.033,0,0,0,20.2,9.1h4.043V28.3a2.022,2.022,0,0,1-2.022,2.022H6.043A2.022,2.022,0,0,1,4.022,28.3V4.043A2.022,2.022,0,0,1,6.043,2.022Z" fill="#6d95ff"/>
    </g>
  </g>
</svg>
