<svg xmlns="http://www.w3.org/2000/svg" width="72" height="72" viewBox="0 0 72 72">
  <g id="btn_top" transform="translate(17512 880)">
    <path id="패스_2161" data-name="패스 2161" d="M36,72A36,36,0,1,1,72,36,35.977,35.977,0,0,1,36,72ZM36,2A34,34,0,1,0,70,36,34.1,34.1,0,0,0,36,2Z" transform="translate(-17512 -880)" fill="none"/>
    <g id="그룹_376" data-name="그룹 376" transform="translate(-17512.676 -885.765)">
      <path id="패스_2168" data-name="패스 2168" d="M-11.43,0h-1.944V-11.178h-3.852v-1.674h9.648v1.674H-11.43ZM5.364-6.444A8.448,8.448,0,0,1,4.7-2.961a5.12,5.12,0,0,1-2,2.313A6.165,6.165,0,0,1-.612.18,6.275,6.275,0,0,1-3.978-.648,5.006,5.006,0,0,1-5.958-2.97a8.718,8.718,0,0,1-.648-3.492,8.6,8.6,0,0,1,.648-3.465,4.961,4.961,0,0,1,1.98-2.3A6.367,6.367,0,0,1-.594-13.05a6.17,6.17,0,0,1,3.3.819A5.083,5.083,0,0,1,4.7-9.927,8.448,8.448,0,0,1,5.364-6.444Zm-9.918,0A6.138,6.138,0,0,0-3.6-2.808,3.425,3.425,0,0,0-.612-1.476,3.4,3.4,0,0,0,2.376-2.808a6.227,6.227,0,0,0,.936-3.636,6.141,6.141,0,0,0-.936-3.618,3.4,3.4,0,0,0-2.97-1.314A3.464,3.464,0,0,0-3.6-10.062,6.053,6.053,0,0,0-4.554-6.444Zm16.308-6.408a5.469,5.469,0,0,1,3.672,1.017A3.584,3.584,0,0,1,16.578-9,4.377,4.377,0,0,1,16.1-6.984a3.568,3.568,0,0,1-1.593,1.521,6.561,6.561,0,0,1-3.024.585H10.1V0H8.154V-12.852Zm-.144,1.638H10.1v4.7h1.17a4.544,4.544,0,0,0,2.475-.549,2.058,2.058,0,0,0,.837-1.863,2.054,2.054,0,0,0-.72-1.719A3.627,3.627,0,0,0,11.61-11.214Z" transform="translate(37 48.2)" fill="#6b49d5"/>
    </g>
  </g>
</svg>
