<svg xmlns="http://www.w3.org/2000/svg" width="32" height="32" viewBox="0 0 32 32">
  <g id="그룹_1077" data-name="그룹 1077" transform="translate(-950 -9237)">
    <circle id="타원_85" data-name="타원 85" cx="16" cy="16" r="16" transform="translate(950 9237)" fill="rgba(94,30,204,0.06)"/>
    <g id="레이어_2" data-name="레이어 2" transform="translate(957.99 9246.497)">
      <g id="레이어_1" data-name="레이어 1" transform="translate(0.01)">
        <path id="패스_5206" data-name="패스 5206" d="M5.041,13a9.277,9.277,0,0,0,9.341-9.341q0-.212-.008-.425a6.7,6.7,0,0,0,1.637-1.7,6.589,6.589,0,0,1-1.885.517A3.292,3.292,0,0,0,15.568.24a6.631,6.631,0,0,1-2.084.8A3.285,3.285,0,0,0,7.89,4.031,9.321,9.321,0,0,1,1.123.6,3.287,3.287,0,0,0,2.139,4.984a3.259,3.259,0,0,1-1.487-.41v.042A3.284,3.284,0,0,0,3.286,7.834,3.29,3.29,0,0,1,1.8,7.89a3.286,3.286,0,0,0,3.071,2.28A6.592,6.592,0,0,1,.794,11.576a6.9,6.9,0,0,1-.784-.045,9.3,9.3,0,0,0,5.032,1.475" transform="translate(-0.01)" fill="#6d95ff"/>
      </g>
    </g>
  </g>
</svg>
