<svg xmlns="http://www.w3.org/2000/svg" width="260" height="62" viewBox="0 0 260 62">
  <g id="그룹_15610" data-name="그룹 15610" transform="translate(-1415 -5592)">
    <path id="패스_25264" data-name="패스 25264" d="M62.209,30.773A30.94,30.94,0,0,1,31.1,61.545,30.94,30.94,0,0,1,0,30.773,30.94,30.94,0,0,1,31.1,0a30.94,30.94,0,0,1,31.1,30.773" transform="translate(1415.141 5592.454)" fill="#fff"/>
    <path id="패스_25265" data-name="패스 25265" d="M60.05,66.538h0a12.532,12.532,0,0,1-11.743-7.983L40.225,40.81a12.531,12.531,0,0,1,11.743,7.983Z" transform="translate(1396.669 5573.335)" fill="#6d95ff"/>
    <path id="패스_25266" data-name="패스 25266" d="M37.556,66.538h0a12.532,12.532,0,0,1-11.743-7.983L17.731,40.81a12.531,12.531,0,0,1,11.743,7.983Z" transform="translate(1406.999 5573.335)" fill="#6d95ff"/>
    <path id="패스_25267" data-name="패스 25267" d="M76.409,62.247,85.683,40.81a12.532,12.532,0,0,0-11.743,7.983L72,52.56Z" transform="translate(1382.079 5573.371)" fill="#6d95ff"/>
    <path id="패스_25268" data-name="패스 25268" d="M156.576,28.738h9.179l5.215,21.575,5.216-21.575h9.179l-9.93,34.82h-8.929l-5.341-18.7-5.341,18.7H146.9l-9.93-34.82h9.179l5.215,21.575Z" transform="translate(1352.245 5578.91)" fill="#fff"/>
    <path id="패스_25269" data-name="패스 25269" d="M225.7,45.438c0-11.412,5.841-18.243,17.315-18.243s17.315,6.831,17.315,18.243-5.841,18.243-17.315,18.243S225.7,56.85,225.7,45.438m9.3,0c0,7.081,3.13,10.079,8.011,10.079s8.011-3,8.011-10.079-3.129-10.08-8.011-10.08-8.011,3-8.011,10.08" transform="translate(1311.497 5579.617)" fill="#fff"/>
    <path id="패스_25270" data-name="패스 25270" d="M294.368,63.558V28.738H309.18c11.057,0,16.063,3.707,16.063,12.2,0,5.289-1.961,8.747-6.091,10.579l6.926,12.037h-11.1l-6.008-10.413h-5.3V63.558ZM309.18,44.982c4.256,0,6.759-.5,6.759-4.04s-2.5-4.04-6.759-4.04h-5.507v8.08Z" transform="translate(1279.963 5578.91)" fill="#fff"/>
    <rect id="사각형_6982" data-name="사각형 6982" width="9.304" height="34.831" transform="translate(1642.232 5607.637)" fill="#fff"/>
    <path id="패스_25271" data-name="패스 25271" d="M463.274,63.549h-4.006c-8.053,0-11.182-2.957-11.182-11.5V44.015h-4.047V36.476h4.047V28.718h9.3v7.758h5.884v7.539H457.39v6.414c0,4.165.877,5.039,3.922,5.039h1.962Z" transform="translate(1211.232 5578.919)" fill="#fff"/>
    <path id="패스_25272" data-name="패스 25272" d="M387.323,63.558,376.585,41l9.9-12.261H375.515l-9.346,11.7v-11.7h-9.3v34.82h9.3V53.9l4.155-5.145,7.353,14.807Z" transform="translate(1251.264 5578.91)" fill="#fff"/>
    <path id="패스_25273" data-name="패스 25273" d="M418.46,6.37a5.446,5.446,0,1,1,5.446,5.436A5.441,5.441,0,0,1,418.46,6.37" transform="translate(1222.978 5592.024)" fill="#fff"/>
    <rect id="사각형_6983" data-name="사각형 6983" width="260" height="61.443" transform="translate(1415 5592)" fill="none"/>
  </g>
</svg>
