<?xml version="1.0" encoding="utf-8"?>
<!-- Generator: Adobe Illustrator 19.1.0, SVG Export Plug-In . SVG Version: 6.00 Build 0)  -->
<svg version="1.1" id="Layer_1" xmlns="http://www.w3.org/2000/svg" xmlns:xlink="http://www.w3.org/1999/xlink" x="0px" y="0px"
	 viewBox="0 0 1920 840" style="enable-background:new 0 0 1920 840;" xml:space="preserve">
<style type="text/css">
	.st0{fill:#80BBFF;}
	.st1{fill:#FFFFFF;}
	.st2{fill:#CFD7E5;}
	.st3{fill:none;}
	.st4{fill:#D5EAF5;}
	.st5{fill:#1E5160;}
	.st6{fill:#295A6E;}
	.st7{fill:#AACBE8;}
	.st8{fill:#30193B;}
	.st9{fill:#C43B72;}
	.st10{fill:#DD5794;}
	.st11{fill:#FF97A6;}
	.st12{fill:#3B2B5B;}
	.st13{fill:#7F65C1;}
	.st14{fill:#6E57B5;}
	.st15{fill:#C95D77;}
	.st16{fill:#FF5E4D;}
	.st17{fill:#FFE5B0;}
	.st18{fill:#E23229;}
	.st19{fill:#F2483B;}
	.st20{fill:#F9CB9D;}
	.st21{fill:#357A5F;}
	.st22{fill:#1F6864;}
	.st23{fill:#FFCB48;}
	.st24{fill:#FFDB8A;}
	.st25{fill:#FFEDCC;}
	.st26{fill:#91C1E5;}
	.st27{fill:#FF7B71;}
	.st28{fill:#9FC0E2;}
	.st29{fill:#AF2B67;}
	.st30{opacity:0.69;}
	.st31{clip-path:url(#SVGID_2_);}
	.st32{fill:#FFF0D2;}
	.st33{fill:#92BDDD;}
	.st34{fill:#FF9A2E;}
	.st35{fill:#4061C9;}
</style>
<path id="패스_25260" class="st0" d="M0,0h1920v820H0V0z"/>
<path class="st1" d="M1763,670c-84.5,0-153,73-153,163c0,2.3,0.1,4.7,0.1,7h305.7c0.1-2.3,0.1-4.7,0.1-7
	C1916,743,1847.5,670,1763,670z"/>
<path class="st1" d="M1834,812c0,9.5,0.8,18.9,2.3,28h83.7V665.4C1869.1,691.9,1834,747.6,1834,812z"/>
<path class="st1" d="M170,576C97.5,576,34.2,617.7,0,679.8V840h360.4c4.3-17.2,6.6-35.3,6.6-54C367,670,278.8,576,170,576z"/>
<path id="패스_24955" class="st2" d="M1337.3,658.8c-0.1-54.6-0.2-109.3-0.3-163.9c0-12.6,0-25.1-0.1-37.7c-0.1-1.2-1-2.1-2.2-2.1
	h-9.6v-6.9c-0.1-1.2-1-2.1-2.2-2.1h-4.7v-5.2c-0.1-1.2-1-2.1-2.2-2.1h-30.8c-1.6,0-3.7,0.9-3.7,2.8v4.5h-6.6c-1.6,0-3.7,0.9-3.7,2.8
	v6.1h-4.6c-1.6,0-3.7,0.9-3.7,2.8v163.8h-46.4V508.1c0-2.3-3-2.4-4.5-1.5c-9.6,5.5-19.2,11.1-28.8,16.6c-0.8,0.5-1.4,1.3-1.4,2.3
	v61.2h-13.4c-1.6,0-3.7,0.9-3.7,2.8v4.6h-40V495c-0.1-1.2-1-2-2.2-2.1h-15.8v-5.4c-0.1-1.2-1-2.1-2.2-2.1h-46.4
	c-1.6,0-3.7,0.9-3.7,2.8v4.6h-4.2c-1.6,0-3.7,0.9-3.7,2.8v70.3c-8.5,0.1-16.9,0.2-25.4,0.4c-1.1-31.9-2.2-63.9-3.2-95.8
	c-0.2-4.7-0.3-9.4-0.5-14c-0.1-1.2-1-2-2.2-2.1h-22.4v-19.9c0-2.6,0.7-6.6,0-9.2c-0.6-1.9-1.7-2.4-3.4-3.5
	c-7.4-4.9-14.8-9.9-22.2-14.8c-1.8-1.2-3.8-3.1-5.9-3.8c-2.9-0.9-6.9-0.2-9.9-0.2c-1.6,0-3.7,0.9-3.7,2.8
	c-0.2,25.6-0.4,51.1-0.6,76.7c-0.3,40.6-0.7,81.1-1,121.7c-0.1,8.5-0.1,17-0.2,25.5h-4.4v-21.1c0-2.1,0.7-5.5-0.4-7.5
	c-1.7-2.8-6.4-5.1-8.8-7.2c-0.6-0.6-1.3-1.2-2-1.6c-0.3-0.9,0-2.8,0-3.8v-35c-0.1-1.2-1-2.1-2.2-2.1h-20.5c-1,0-2.2,0.1-3.3,0
	c-0.7-0.5-1.4-1-2.1-1.6c-2.1-1.5-4.4-3.9-6.9-4.5c-2-0.5-4.7,0-6.7,0h-31.2c-1.6,0-3.7,0.9-3.7,2.8v3.2h-1.6
	c-1.6,0-3.7,0.9-3.7,2.8v25.6h-29.9V460c0-0.9-0.6-1.7-1.5-1.9c-5.1-1.9-10.2-3.9-15.2-5.8l-1.2-18.9c-0.1-2.3-2.9-2.4-4.5-1.5
	c-16.7,8.9-33.4,17.7-50.1,26.6c-0.8,0.5-1.4,1.3-1.4,2.3v119.4h-3.4v-24.4c-0.1-1.2-1-2.1-2.2-2.1h-24.8v-6.4
	c0-0.9-0.6-1.7-1.5-1.9c-9.3-2.3-18.7-4.5-28-6.8c-1.8-0.4-4.4,0.5-4.4,2.7v12.4h-8c-1.6,0-3.7,0.9-3.7,2.8v71.3h-1.1v-20
	c-0.1-1.2-1-2-2.2-2.1h-3.6V595c-0.1-1.2-1-2.1-2.2-2.1h-34.6c-1.6,0-3.7,0.9-3.7,2.8v10h-0.4c-1.6,0-3.7,0.9-3.7,2.8
	c0.2,45.2,0.5,90.4,0.7,135.6c0,6.4,0.1,12.8,0.1,19.2c0.1,1.2,1,2,2.2,2.1h71.2c56.9,0,113.9-0.1,170.8-0.1
	c68.5,0,136.9-0.1,205.4-0.1c59.5,0,119-0.1,178.5-0.1c28.8,0,57.8,0.9,86.6-0.1c0.4,0,0.8,0,1.2,0c1.6,0,3.7-0.9,3.7-2.8
	C1337.4,727.7,1337.4,693.3,1337.3,658.8"/>
<rect x="617.1" y="402.7" class="st3" width="720.4" height="362.7"/>
<path id="패스_24956" class="st2" d="M1019.1,594.2h1.6C1020.2,594.2,1019.7,594.2,1019.1,594.2"/>
<path id="패스_24957" class="st2" d="M838.7,596.9h3.3C840.9,596.8,839.8,596.8,838.7,596.9"/>
<path id="패스_24958" class="st2" d="M976.6,640.2h7.9C981.8,639.9,979.2,639.9,976.6,640.2"/>
<path id="패스_24959" class="st2" d="M1294.7,634.5h6C1298.4,634.3,1295.9,634.1,1294.7,634.5"/>
<path id="패스_24960" class="st2" d="M1335.8,658.7c0-5-0.1-9.9-0.1-14.9c0-0.1-0.5-0.1-0.6-0.1h-3.8v-9.1c0-0.1-0.5-0.1-0.6-0.1
	c-1,0-3.8,0.1-3.9,0c-0.5-0.6,0-3.5,0-4.2v-10.1c0-0.1-0.5-0.1-0.6-0.1h-21.7c-0.1,0-0.9,0-0.9,0.2c0,4.5,0.1,8.9,0,13.4
	c0,0.8,0.3,0.9,0.4,0.9c0,0-0.1,0-0.1,0.1c-0.5,0.3-2.2,0-2.8,0h-0.6c0.5,0,1.1,0.1,1.5,0.1h-7.7c0.1-0.1,0.2-0.1,0.4-0.1h-0.4
	c-0.1,0-0.9,0-0.9,0.2c0,2.4-0.1,4.9,0,7.3c0.1,1.2,0.1,1.8,0.2,1.7c-0.2,0.1-0.3,0.1-0.5,0.1h-1.3c-0.1,0-0.1,0-0.2,0l0,0
	c-0.7-0.1-1.4-0.1-1.8-0.1c-0.1,0-0.9,0-0.9,0.2v89.4c0.1,0.9,0.1,1.9,0,2.8c-0.1,0-0.2,0-0.2,0c-0.3,0.1-0.6,0.1-1,0.1h-2.6
	c-1-0.1-2-0.1-2.9-0.1c-0.3,0-1.1,0.1-1.9,0.1h-2.2c-0.2,0-0.3-0.1-0.5-0.1c-0.4-0.2,0.3,0.2,0-1.1c-0.7-3.3,0-7.5,0-10.8v-53.3
	c0-0.1-0.5-0.1-0.6-0.1h-15.7c-0.1,0-0.9,0-0.9,0.2v39.7c0.1,0.8,0.1,1.6,0,2.3c0,0.1,0,0.1,0,0.2c-0.6,0-1.4-0.1-1.6-0.1
	c-0.4,0-1.1,0.1-1.8,0.1h-2.9c-0.1,0-0.3-0.1-0.4-0.1h-0.1c0-0.1,0-0.2-0.1-0.3c-1-2.1,0-7.3,0-9.5V579c0-0.1-0.5-0.1-0.6-0.1h-39.4
	c-0.1,0-0.9,0-0.9,0.2v104.4c0,1.3,0.5,3.9,0,5.3c-0.1,0-0.3,0-0.6,0.1c-1.4,0.1-2.9,0-4.4,0c-3.7,0-3,0.3-3-3.4
	c0-0.1-0.5-0.1-0.6-0.1h-36.3c0.1-0.6-0.4-0.3-0.7,0c-0.2,0-0.9,0-0.9,0.2c0.1,1,0.1,2.1,0,3.1v0.1c-0.1,0-0.2,0.1-0.4,0.1
	c-0.2,0.1-0.4,0.1-0.6,0.1h-3.9c-0.8-0.1-1.6-0.1-2.2-0.1h-12.7c-0.1,0-0.9,0-0.9,0.2v37.8c0,1.3,0.5,3.6,0,4.9
	c-0.6,0-1.4-0.1-1.7-0.1h-6.6c-0.3,0-1,0.1-1.7,0.1h-2.1c-0.1,0-0.1,0-0.2-0.1c0,0,0-0.1,0-0.2c-0.3-0.6,0-2.5,0-3.2V614
	c0-0.1-0.5-0.1-0.6-0.1h-1.9c0.4,0,0.7,0,1.1,0.1h-4.3c0.7-0.1,1.5-0.1,2.3-0.1h-42.9c-0.1,0-0.9,0-0.9,0.2v26.6
	c0,1.3,0.4,3.5,0,4.7c0,0.1,0,0.1,0,0.2h-0.1h-0.5c-0.8,0-1.7-0.1-2-0.1c-2.8,0-5.6-0.1-8.3,0c-0.6,0.1-1.2,0.1-1.7,0.1
	c0.1-0.2,0.1-0.4,0-0.6c-1-2.5,0-7.7,0-10.3v-40.4c0-0.1-0.5-0.1-0.6-0.1h-52c0.7,0,1.3,0.1,1.9,0.1h-4.5c0.3-0.1,0.6-0.1,0.9-0.1
	h-1.5c-0.1,0-0.9,0-0.9,0.2V665c0,1.7,0.4,4,0,5.7c0,0.1,0,0.2,0,0.2c-0.5,0-1.1-0.1-1.2-0.1c-0.9,0-1.7,0-2.6,0.1h-4.3
	c-0.2,0-0.4-0.1-0.6-0.1c-1.1-0.4-0.9,0.2-0.7-2.1s0-4.7,0-7V649c0-0.1-0.5-0.1-0.6-0.1h-15.3c-0.4,0-1.2,0.1-1.9,0.1h-0.5
	c-0.3,0-0.5,0-0.7-0.1c-0.1,0-0.1-0.1-0.2-0.1c0.1-0.1,0.1-0.2-0.1-0.5c-0.8-1.9,0-5.8,0-8c0-0.1-0.5-0.1-0.6-0.1h-3.1
	c0.2,0,0.4,0.1,0.7,0.1h-10.4c0.6,0,1.2-0.1,1.9-0.1h-20c-0.1,0-0.9,0-0.9,0.2c0,2.3-0.4,4.9,0,7.2c0.3,2.1,1,1.4-1.8,1.4h-13
	c-0.1-0.1-0.2-0.1-0.4,0l0,0c-0.1,0-0.9,0-0.9,0.2v31.2c0.1,0.8,0.1,1.5,0,2.3c-0.1,0-0.3,0-0.6,0c-13.4,0.2-26.9,0-40.4,0
	c-0.1,0-0.9,0-0.9,0.2v37.2c0,5.8-1.1,12.9,0,18.6c0.1,0.6,0.1,1.1,0,1.7v0.1h-0.1c-0.2,0.1-0.4,0.1-0.7,0.1h-9.9
	c-0.2,0-0.3-0.1-0.5-0.1c-0.2-0.1-0.4-0.1-0.6-0.1c0.1-0.1,0.1-0.3,0-0.9c-0.1-1.6-0.1-3.2,0-4.8v-98.8c0-0.1-0.5-0.1-0.6-0.1h-33.5
	c-0.1,0-0.9,0-0.9,0.2v74.3c0.1,0.7,0.1,1.5,0,2.2c0,0.1,0,0.3,0,0.4c-0.2,0-0.4,0-0.6,0c-2.1,0.2-4.2,0.1-6.3-0.1
	c-0.5-0.8,0-3.3,0-4.1V597c0-0.1-0.5-0.1-0.6-0.1h-1.3c0.2,0,0.4,0.1,0.6,0.1h-5.7c0.6,0,1.2-0.1,1.8-0.1h-51.5
	c-0.1,0-0.9,0-0.9,0.2v76.4c0.1,1,0.1,2.1,0,3.1c0,0.2,0,0.4,0,0.5c-0.6,0-1.5-0.1-1.9-0.1c-0.6,0-1.3,0.1-2.2,0.1h-6
	c-0.2,0-0.3-0.1-0.5-0.1c-0.5-0.2-0.3-0.1-0.3-1.8c0-5.1,0-10.3,0-15.4v-33.9c0-0.1-0.5-0.1-0.6-0.1c-0.4,0-1.1,0.1-1.9,0.1l0,0
	h-0.1h0.1c-1.7-0.3-3.5-0.3-5.3,0h-1.3c-0.1,0-0.2-0.1-0.2-0.1c-0.2-0.2,0.4-6.9,0.4-8.2c0-0.1-0.5-0.1-0.6-0.1h-36.4
	c-0.1,0-0.9,0-0.9,0.2v4.7c0.1,1,0.1,1.9,0,2.9c-0.1,0.5,0.1,0.6,0.3,0.6c-0.1,0-0.1,0.1-0.2,0.1h-7.8c-0.6-0.1-1.1-0.1-1.5-0.1
	c0-0.2-0.1-0.1-0.3,0c-0.1,0-0.2,0-0.3,0s-0.9,0-0.9,0.2v113c0,1.9,0.6,4.9,0,6.8c-0.2,0-0.4,0-0.8,0c-1.4-0.1-2.9,0-4.3,0h-12.6
	c-1.8,0.1-3.5,0.1-5.3,0c-0.2,0-0.8,0.1-1.1,0c0-0.1,0-0.1,0-0.2c-0.9-1.9,0-6.9,0-9v-20.9c0-0.1-0.5-0.1-0.6-0.1h-14.2
	c-0.5,0-1.3,0.1-2.1,0.1h-4.9c-0.2,0-0.3-0.1-0.5-0.1c-0.6-0.3-0.6-0.1-0.4-2.1c1-10,0-20.6,0-30.6c0-0.1-0.5-0.1-0.6-0.1H638
	c-0.1,0-0.9,0-0.9,0.2v28.4c0,1.1,0.4,3.2,0,4.3v0.1c-1,0.1-2,0.1-2.9,0h-14c-0.1,0-0.9,0-0.9,0.2v48.3c0,0.1,0.5,0.1,0.6,0.1h715.6
	c0.1,0,0.9,0,0.9-0.2C1336.2,728.9,1336,693.8,1335.8,658.7 M620.6,764h3.4C622.9,764.1,621.7,764.1,620.6,764 M620.9,715.6
	c1.1-0.2,2.1-0.2,3.2,0H620.9z M640.6,682.8c2.6-0.1,5.2-0.1,7.8,0H640.6z M658.7,682.8c2.8-0.2,5.6-0.2,8.4,0H658.7z M687,715.6
	c1-0.1,2-0.1,3.1,0H687z M717.9,745.7C718.1,745.5,718.7,745.7,717.9,745.7 M852.2,636c0.4,0,0.9,0,1.3,0H852.2z M939.6,682.6
	C939.8,682.6,940.1,682.6,939.6,682.6 M959.1,640.3c2.5-0.1,4.9-0.1,7.4,0H959.1z M1086.5,645.5L1086.5,645.5L1086.5,645.5
	L1086.5,645.5 M1146.1,731.7L1146.1,731.7c0,0,0.1-0.1,0.2-0.2C1146.3,731.6,1146.2,731.6,1146.1,731.7 M1167.9,685.4L1167.9,685.4
	c0.5,0,0.9,0,1.4,0H1167.9z M1201.4,685.4c0.5,0,0.9,0,1.4,0H1201.4z M1213.8,579c0.6-0.1,1.2-0.1,1.7,0H1213.8z M1332.4,643.8
	c0.4-0.1,0.8-0.1,1.1,0H1332.4z"/>
<rect x="619.3" y="578.9" class="st3" width="717.1" height="185.2"/>
<rect x="619.3" y="381.6" class="st3" width="715.3" height="380"/>
<rect id="사각형_6965" y="725" class="st1" width="1920" height="115"/>
<path id="패스_24961" class="st1" d="M1773.1,682.8c-0.2-0.2-0.3-0.4-0.5-0.6c-7.8-8.6-19.5-12.4-30.8-9.9
	c-2.9-14.9-15.6-27.5-30.6-30c-14.5-2.5-30.1,4.6-38,16.9c-1.7-26.5-5.4-55.9-24.6-74.5c-16-15.5-42.2-20.9-65.2-13.6
	c-17.4,5.6-33,17.9-44.2,34.5c-7-2.1-14.5-2.1-21.5,0.1c-3.3,1.1-6.5,2.6-9.4,4.5c-1.9-4.8-4-9.5-6.2-14.1
	c-16.2-32.2-43-56.3-73.6-66c-33.5-10.7-71.6-2.8-94.9,19.8c-28,27.1-33.4,69.9-35.9,108.5c-25.7-7.9-42.4-4.7-52.9,3.9
	c-7-2-14.8-1-20.2,3.8c-1.4-17.9-3.9-36.3-15.5-50.6c-10.9-13.5-27.7-18.6-44.2-13.3c-36.3,11.6-42.4,52.2-49.1,85.9
	c-3.7-16.2-15.6-30.5-31.7-35.7c-18.8-6.2-40,1-52.4,15.9c-2.3-10.7-9.4-21.1-21-22.4c-7.6-0.8-15,2.5-19.4,8.7
	c-1.9-23.8-49.9-52.6-73.3-46.5c-57.4,15.1-55.2,66.7-47.8,89.6c-7.8-2.9-16.5-2.4-23.9,1.3c-0.3,0.1-0.6,0.1-0.8,0.2
	c-2.9-14.9-15.6-27.5-30.6-30c-14.5-2.5-30.1,4.6-38,16.9c-1.7-26.5-5.4-55.9-24.6-74.5c-16-15.5-42.2-20.9-65.2-13.6
	c-17.4,5.6-33,17.9-44.2,34.5c-7-2.1-14.5-2.1-21.5,0.1c-3.3,1.1-6.5,2.6-9.4,4.5c-1.9-4.8-4-9.5-6.2-14.1
	c-16.2-32.2-43-56.3-73.6-66.1c-33.5-10.7-71.6-2.8-94.9,19.8c-28,27.1-33.4,69.9-35.9,108.5c-25.7-7.9-42.4-4.7-52.9,3.9
	c-7-2-14.8-1-20.2,3.8c-1.4-17.9-3.9-36.3-15.5-50.6c-5.1-6.4-12-11.1-19.8-13.6v137.8h9.9c11.1,0,22.2,0.1,33.3,0.2l0.1,0.2h0.7
	l4.3-0.1c21.8,0.2,43.7,0.2,65.4-0.9c0.4,0,0.8-0.2,1.1-0.6l292.2-6.5l0.3-0.5c3.6-5.9,5.7-12.5,6-19.4l175.3,3.1h0.5l0.2-0.5
	c0.2-0.5,0.4-1.1,0.6-1.6c13.9-0.1,27.7-0.3,41.5-0.3c30.6,0,61.2,0,91.7,0c61.2,0,122.3,0,183.5,0c11.1,0,22.2,0.1,33.3,0.2
	l0.1,0.2h0.7l4.3-0.1c21.8,0.2,43.7,0.2,65.4-0.9c0.4,0,0.8-0.2,1.1-0.6l292.2-6.5l0.3-0.5c3.6-5.7,3.2,1.3,3.6-5.7l173.2,14.4
	v-57.3L1773.1,682.8L1773.1,682.8z"/>
<path id="패스_24962" class="st4" d="M851.2,714.1c0,5.3-25,9.5-55.8,9.5s-55.8-4.3-55.8-9.5c0-5.3,25-9.5,55.8-9.5
	S851.2,708.8,851.2,714.1"/>
<path id="패스_24963" class="st4" d="M1005.9,704c0,7.8-49.2,14-110,14s-110-6.3-110-14c0-7.8,49.2-14,110-14
	C956.6,690,1005.9,696.2,1005.9,704"/>
<path id="패스_24964" class="st4" d="M1094.3,704c0,6.6-23.9,11.9-53.3,11.9s-53.3-5.3-53.3-11.9c0-6.6,23.9-11.9,53.3-11.9
	C1070.4,692.1,1094.3,697.4,1094.3,704"/>
<path id="패스_24965" class="st4" d="M1295.1,686.3c0,6.3-28.1,11.5-62.8,11.5c-34.7,0-62.8-5.1-62.8-11.5s28.1-11.5,62.8-11.5
	S1295.1,679.9,1295.1,686.3"/>
<path id="패스_24966" class="st4" d="M1219,704.3c-1,13-46.8,20-102.3,15.6s-99.6-18.5-98.6-31.5s46.8-20,102.3-15.6
	S1220,691.2,1219,704.3"/>
<path id="패스_24967" class="st5" d="M1038.9,683c-4.6-1.5-7.4-6.5-6.4-12c13.1-71.7,26.3-143.4,39.4-215.1c1-5.3,5-9.6,10.3-11
	c29.1-7.4,84-22.4,112.6-29.6c6.7-1.7,13.5,2.4,15.1,9.1c0.4,1.7,0.5,3.5,0.2,5.3L1160,706.5c-1.4,7.7-8.7,12.8-16.4,11.4
	c-0.7-0.1-1.3-0.3-1.9-0.5C1116.2,708.9,1065.7,691.6,1038.9,683"/>
<path id="패스_24968" class="st6" d="M1140.3,715.6c-35.7-11.5-71.3-23-107-34.4c-4.4-1.4-7.2-7-6.2-12.4
	c12.8-70.1,25.7-140.3,38.5-210.4c1-5.4,5.8-10.8,10.7-12.1l118.9-30.7c4.9-1.3,7.9,3.5,6.5,10.7c-17,93-34.1,185.9-51.1,278.9
	C1149.4,712.4,1144.8,717.1,1140.3,715.6"/>
<path id="패스_24969" class="st7" d="M1143.7,688.1l-105.8-28c12.1-66.1,24.2-132.3,36.4-198.4c38.5-8.6,77.1-17.2,115.6-25.8
	C1174.5,520,1159.1,604,1143.7,688.1"/>
<path id="패스_24970" class="st8" d="M1150.5,436c-0.3,1.7-1.5,3.3-2.7,3.6c-1.2,0.3-1.9-0.9-1.6-2.5c0.3-1.7,1.5-3.3,2.7-3.6
	C1150.1,433.1,1150.8,434.3,1150.5,436"/>
<path id="패스_24971" class="st8" d="M1159,433.9c-0.3,1.7-1.5,3.3-2.7,3.6c-1.2,0.3-1.9-0.9-1.6-2.6s1.5-3.3,2.7-3.6
	C1158.6,431,1159.3,432.2,1159,433.9"/>
<path id="패스_24972" class="st8" d="M1084.7,691.7c-3.9-1.2-7.7-2.4-11.6-3.6c-1.7-0.5-2.8-3-2.4-5.4c0.2-1.1,0.4-2.2,0.6-3.4
	c0.4-2.4,2.2-4,4-3.5l11.6,3.3c1.8,0.5,2.8,3,2.4,5.5c-0.2,1.2-0.4,2.3-0.6,3.5C1088.3,690.6,1086.5,692.3,1084.7,691.7"/>
<path id="패스_24973" class="st7" d="M1113.5,697.9c-0.1,0-0.2,0-0.3,0l-7.7-2.3c-0.3-0.1-0.4-0.3-0.3-0.6s0.3-0.4,0.6-0.3l0,0
	l7.7,2.3c0.2-0.1,0.4-0.4,0.4-0.7l0.5-2.8c0.1-0.5-0.1-0.9-0.2-1l-6.7-1.9c-0.3-0.1-0.4-0.3-0.3-0.6s0.3-0.4,0.6-0.3l0,0l6.7,1.9
	c0.8,0.4,1.2,1.2,0.9,2.1l-0.5,2.8c-0.1,0.5-0.4,1-0.8,1.3C1113.9,697.9,1113.7,697.9,1113.5,697.9"/>
<path id="패스_24974" class="st7" d="M1109.8,688.9c-0.1,0-3.5,1.1-3.5,1.1c1,0.9,1.9,1.7,2.9,2.6
	C1109.3,691.3,1109.5,690.1,1109.8,688.9"/>
<path id="패스_24975" class="st7" d="M1109.6,688.6c-1.2,0.3-2.5,0.7-3.7,1.1c-0.1,0-0.4,0.2-0.2,0.3c1,0.9,1.9,1.7,2.9,2.6
	c0.2,0.1,0.9,0.2,0.9-0.2c0.2-1.2,0.4-2.5,0.7-3.7c0-0.2-0.9-0.3-1,0.1c-0.2,1.2-0.5,2.5-0.7,3.7l0.9-0.2c-1-0.9-1.9-1.7-2.9-2.6
	c-0.1,0.1-0.1,0.2-0.2,0.3c1.1-0.4,2.3-0.8,3.4-1c0.1,0,0.4-0.1,0.3-0.3C1110.2,688.5,1109.7,688.6,1109.6,688.6"/>
<path id="패스_24976" class="st7" d="M1056.9,681.8l-8.5-2.6l0.4,0.5c0.4-2,0.7-4,1.1-6c-0.2,0.1-0.4,0.2-0.6,0.3
	c2.8,0.8,5.7,1.7,8.5,2.5c-0.1-0.2-0.2-0.4-0.4-0.5c-0.4,2-0.7,4.1-1.1,6.1c-0.1,0.7,0.9,0.8,1,0.2c0.4-2,0.7-4.1,1.1-6.1
	c0.1-0.2-0.1-0.5-0.3-0.5l0,0c-2.8-0.8-5.7-1.7-8.5-2.5c-0.3-0.1-0.5,0.1-0.6,0.3c-0.4,2-0.7,4-1.1,6c-0.1,0.2,0.1,0.5,0.3,0.5l0,0
	c2.8,0.9,5.7,1.7,8.5,2.6c0.2,0.1,0.5-0.1,0.6-0.4C1057.3,682.1,1057.2,681.9,1056.9,681.8"/>
<path id="패스_24977" class="st7" d="M1053.1,674.7l0.5-2.5c-0.2,0.1-0.5,0.2-0.7,0.3c2.4,0.7,4.9,1.4,7.3,2.1
	c0.4,0.1,0.8,0.2,1.1,0.3c-0.2-0.1,0-0.5-0.2,0c-0.1,0.3-0.1,0.6-0.2,0.9c-0.3,1.6-0.6,3.3-0.9,4.9c0.2-0.1,0.5-0.2,0.7-0.3
	c-1.1-0.3-2.2-0.6-3.3-1c-0.4-0.1-1.1,0.5-0.5,0.7c1.1,0.3,2.2,0.7,3.3,1c0.2,0,0.7,0.1,0.7-0.3l1.1-6.2c0-0.2-0.1-0.3-0.2-0.4
	c-2.8-0.8-5.7-1.6-8.5-2.4c-0.2,0-0.7-0.1-0.7,0.3c-0.2,0.8-0.3,1.7-0.5,2.5C1052.1,675.1,1053.1,675.1,1053.1,674.7"/>
<path id="패스_24978" class="st4" d="M1188.3,444.9L1073,468.8c0.4-2.3,0.9-4.7,1.3-7c38.5-8.6,77.1-17.2,115.6-25.8
	C1189.4,438.9,1188.8,441.9,1188.3,444.9"/>
<path id="패스_24979" class="st7" d="M1084.7,473.1l-13,2.5c0.4-2.3,0.8-4.6,1.3-6.9l13-2.7L1084.7,473.1"/>
<path id="패스_24980" class="st1" d="M1186.7,453.6c-34.1,6.5-68.2,13.1-102.3,19.6c0.4-2.4,0.9-4.7,1.3-7.1l102.6-21.3
	L1186.7,453.6"/>
<path id="패스_24981" class="st4" d="M1183.1,473l-114.2,17.9c0.9-5.1,1.9-10.2,2.8-15.3c38.3-7.3,76.6-14.7,114.9-22L1183.1,473"
	/>
<path id="패스_24982" class="st4" d="M1114.9,572.9l-56.5-1.9c4.6-25.2,9.2-50.4,13.8-75.6c19.5-2.8,38.9-5.6,58.4-8.5
	C1125.4,515.6,1120.1,544.3,1114.9,572.9"/>
<path id="패스_24983" class="st6" d="M1109.4,572.7c0,0,1.8-10.9,2-13.3c0.2-2.4-0.2-6.2-1.6-8.2s-6.9-4-6.9-3.9
	c-4.3,2-8.5,4-12.8,6c-3.5-1.9-7.1-3.7-10.7-5.5c0,0-6.3,2-8.4,3.9c-2.1,2.1-3.6,4.7-4.5,7.5c-0.7,2.1-2.6,11.9-2.6,11.9
	L1109.4,572.7"/>
<path id="패스_24984" class="st6" d="M1097.2,501.2c0,0-4.2-1.5-8.2,3.3c-5.4,6.5-10,16.3-14.8,45.5c0-0.2,18.2,9.1,29.2,2.5
	c1.2-0.9,2.5-1.9,3.7-2.8c0,0,5.5-25.1,4.1-38.5C1109.9,498,1103.3,495.5,1097.2,501.2"/>
<path id="패스_24985" class="st4" d="M1097.5,543.8c-1.5-2.4-0.4-9.8-0.4-9.8l-7.2,0.4c0,0-1.4,7.2-3.8,9.7
	c-1.9,1.7-4.2,2.9-6.6,3.6c0,0,2,8.8,10,8.9c8,0,13.4-9.3,13.4-9.4C1102.8,547.3,1099,546.3,1097.5,543.8"/>
<path id="패스_24986" class="st7" d="M1086.9,523.4c0,0-1.9-0.9-2.4,1c-0.4,2,1,5.9,2.2,5.7s0.4-6.5,0.4-6.5"/>
<path id="패스_24987" class="st7" d="M1104.7,522c0,0,2.4-1,1.9,1c-0.5,2.1-3.7,6.2-4.8,5.9c-1.1-0.2,2.6-6.8,2.6-6.8"/>
<path id="패스_24988" class="st7" d="M1089,536.3c0,0,3.2,6.5,8.2,7c0,0-1.1-2.9-0.1-9.2C1094.4,534.8,1091.7,535.6,1089,536.3"/>
<path id="패스_24989" class="st4" d="M1104.4,523c-1.5,8.2-6.7,14.9-11.7,15.1s-7.8-6-6.4-13.8c0.3-1.4,1.1-6.5,2.3-7.5
	c4.2-3.6,14.4-4.2,16.8-0.7C1106.1,517,1104.7,521.8,1104.4,523"/>
<path id="패스_24990" class="st6" d="M1106,520l-14,1.1c0.4-2.3,0.9-4.7,1.3-7c-0.8,2.4-1.5,4.8-2.3,7.2c-1.7,0.2-3.3,0.3-5,0.5
	c0,0,3.4-12.1,6.5-15.1c2.1-2,10.8-5.5,13,0.1c1.6,4.4,1.8,9.2,0.4,13.6"/>
<path id="패스_24991" class="st4" d="M1160.6,488.2c-9,1.2-18,2.4-27,3.6c0.3-1.8,0.7-3.6,1-5.5c9-1.3,18-2.6,27-3.9
	C1161.3,484.4,1160.9,486.3,1160.6,488.2"/>
<path id="패스_24992" class="st4" d="M1174.3,495.1l-42.2,5c0.3-1.8,0.7-3.7,1-5.5l42.3-5.4L1174.3,495.1"/>
<path id="패스_24993" class="st4" d="M1167.8,530.3c-13.9,0.7-27.9,1.4-41.8,2.1c0.3-1.8,0.7-3.7,1-5.5l41.9-2.6L1167.8,530.3"/>
<path id="패스_24994" class="st4" d="M1165.8,541.4c-13.9,0.4-27.8,0.8-41.7,1.3c0.3-1.8,0.7-3.6,1-5.5l41.7-1.7L1165.8,541.4"/>
<path id="패스_24995" class="st4" d="M1163.8,552.4l-41.5,0.4c0.3-1.8,0.7-3.7,1-5.5l41.6-0.8L1163.8,552.4"/>
<path id="패스_24996" class="st4" d="M1161.8,563.4l-41.3-0.5c0.3-1.8,0.7-3.6,1-5.5c13.8,0,27.6,0,41.4,0L1161.8,563.4"/>
<path id="패스_24997" class="st4" d="M1159.7,574.5l-41.2-1.4c0.3-1.8,0.7-3.6,1-5.5c13.8,0.3,27.5,0.6,41.3,0.9L1159.7,574.5"/>
<path id="패스_24998" class="st4" d="M1141,675.7c-14-3.4-28-6.7-42-10.1l1-5.4c14,3.2,28.1,6.4,42.1,9.6
	C1141.7,671.8,1141.4,673.7,1141,675.7"/>
<path id="패스_24999" class="st4" d="M1072.7,659.3l-21.1-5.1c0.3-1.6,0.6-3.2,0.9-4.9c7.1,1.6,14.1,3.2,21.2,4.8
	C1073.3,655.9,1073,657.6,1072.7,659.3"/>
<path id="패스_25000" class="st4" d="M1156.7,590.2c-30.8-2-61.6-4-92.4-6c0.3-1.6,0.6-3.2,0.9-4.9l92.6,5
	C1157.4,586.2,1157,588.2,1156.7,590.2"/>
<path id="패스_25001" class="st4" d="M1154.7,601.1c-30.7-2.7-61.4-5.3-92.1-8c0.3-1.6,0.6-3.2,0.9-4.9l92.3,6.9
	C1155.4,597.1,1155.1,599.1,1154.7,601.1"/>
<path id="패스_25002" class="st4" d="M1152.7,612l-91.7-10c0.3-1.6,0.6-3.2,0.9-4.9l91.9,8.9C1153.4,608,1153.1,610,1152.7,612"/>
<path id="패스_25003" class="st6" d="M1062.4,581.6c-0.4,1.9-1.8,3.4-3.3,3.3c-1.5-0.1-2.4-1.7-2.1-3.6c0.4-1.9,1.8-3.4,3.3-3.3
	C1061.8,578,1062.7,579.7,1062.4,581.6"/>
<path id="패스_25004" class="st4" d="M1149.7,629.1l-91.1-13.1c0.3-1.6,0.6-3.2,0.9-4.9l91.3,12L1149.7,629.1"/>
<path id="패스_25005" class="st4" d="M1147.7,640c-30.3-5-60.5-10-90.8-15.1c0.3-1.6,0.6-3.2,0.9-4.9c30.3,4.7,60.6,9.3,91,14
	L1147.7,640"/>
<path id="패스_25006" class="st4" d="M1145.8,650.9l-90.4-17c0.3-1.6,0.6-3.2,0.9-4.9c30.2,5.3,60.4,10.6,90.6,16L1145.8,650.9"/>
<path id="패스_25007" class="st4" d="M1143.3,663.3l-90-19.3c0.3-1.6,0.6-3.2,0.9-4.9l90.2,18.2
	C1144,659.3,1143.7,661.3,1143.3,663.3"/>
<path id="패스_25008" class="st6" d="M1056.7,613.2c-0.4,1.9-1.8,3.3-3.3,3.1s-2.4-1.9-2-3.9c0.4-1.9,1.8-3.3,3.3-3.1
	C1056.2,609.6,1057.1,611.3,1056.7,613.2"/>
<path id="패스_25009" class="st9" d="M764.2,604c0,0-7.6-5.8-3.2-12.2c1.9-2.7,3.3-1.8,3.3-1.8s1.3-7.5,10.1-8.4
	c13-1.3,12.8,11.8,12.8,11.8s4.9-1.4,6.1,3.4c0.4,1.8-0.2,3.7-1.5,4.9c0,0,8-1,11.4,3.7c5.8,7.9,4.7,17.6-6.9,23.3
	c-15.2,7.4-23.4-10.3-23.4-10.3L764.2,604z"/>
<path id="패스_25010" class="st10" d="M761.8,601.5c-0.8-0.9-1.5-2-1.9-3.1c-0.5-1.2-0.6-2.5-0.4-3.7c0.2-1.3,0.7-2.4,1.5-3.4
	c0.4-0.5,0.9-1,1.4-1.3c0.6-0.5,1.5-0.5,2.2-0.2l-0.6,0.3c0.3-1.2,0.7-2.3,1.4-3.4c0.6-1,1.5-2,2.4-2.7c1-0.7,2-1.3,3.2-1.7
	c0.6-0.2,1.2-0.3,1.7-0.4c0.6-0.1,1.2-0.1,1.8-0.1c-0.6,0.1-1.2,0.2-1.7,0.3c-0.6,0.1-1.1,0.3-1.7,0.6c-1.1,0.4-2.1,1-2.9,1.8
	c-0.9,0.7-1.6,1.6-2.2,2.6s-1,2-1.2,3.1l-0.1,0.6l-0.5-0.3c-0.2-0.1-0.4-0.1-0.6-0.1s-0.5,0.1-0.7,0.3c-0.5,0.3-0.9,0.7-1.2,1.1
	c-0.7,0.9-1.2,2-1.5,3.1c-0.2,1.2-0.2,2.3,0.2,3.5C760.6,599.4,761.1,600.5,761.8,601.5"/>
<path id="패스_25011" class="st11" d="M759.8,622.6c0,0.2-6,7.7-7.2,13.5c-3.5,17.4,1.4,62.5,2.6,71.7c0.2,1.2,0.7,0.3,0.9-1.3
	c1.3-9.6,13.3-62.2,13.3-62.2l36.7,65h0.9c0,0-8.3-28.4-13.1-43.6c-3.2-10.1-7.1-27.4-18-40.3C773.3,624.8,764.2,622.3,759.8,622.6"
	/>
<path id="패스_25012" class="st12" d="M749.6,710.9c0-0.4,2-1.4,3.4-1.9c-0.4,0.3-0.8,0.7-0.1,0.8c1,0.2,3.1-0.1,3.7-0.9
	c0.2,0.6,0.3,1.1,0.3,1.7C756.9,711.4,749.7,712.1,749.6,710.9"/>
<path id="패스_25013" class="st11" d="M752.9,709.8c-0.7-0.2-0.3-0.6,0.1-0.8c0.9-0.3,1.6-0.5,1.7-0.6c0.2-0.1,0.4-0.3,0.5-0.6
	l0.4-0.1c0,0,0.8,1.1,0.8,1.3C755.9,709.7,753.9,710.1,752.9,709.8"/>
<path id="패스_25014" class="st12" d="M812.6,711.5c0-0.7-2.1-1.3-3.5-1.7c0.4,0.3,0.8,0.6,0.2,0.8c-1,0.3-3,0-3.7-0.7
	c-0.2,0.6-0.3,1.2-0.3,1.7C805.4,712.3,812.5,712.7,812.6,711.5"/>
<path id="패스_25015" class="st11" d="M809.3,710.6c0.6-0.2,0.2-0.6-0.2-0.8c-0.9-0.3-1.6-0.4-1.8-0.5c-0.3-0.1-0.4-0.3-0.5-0.6
	l-0.4-0.1c0,0-0.7,1.2-0.8,1.3C806.2,710.6,808.3,710.9,809.3,710.6"/>
<path id="패스_25016" class="st13" d="M760.8,621.2c0,0-5.3,6.5-7.5,10.9c-3.7,7.4-2.5,17-1.8,30.6c0,0,12.1,9.4,34.9,3.6
	c0,0,6.5-2.3,7.4-3.4c0,0-6.4-29.9-17.3-38.9C765.8,615.1,760.8,621.2,760.8,621.2"/>
<path id="패스_25017" class="st14" d="M769.6,668.2c0,0,0.6,0,0.9,0c5.4,0.1,10.8-0.5,16-1.9c0,0,6.5-2.3,7.4-3.4
	c0,0-6.4-29.9-17.3-38.9c-1.5-1.3-3.2-2.4-5-3.4c-0.4-0.2-8.1,1.9-8.1,1.9s9.4,6.2,9,25.2C772.5,656.1,769.6,668.2,769.6,668.2"/>
<path id="패스_25018" class="st4" d="M760.5,600.4c2.2-1.5,8.5-2.7,19.3,0.6c1.1,0.3,2.1,0.9,3.1,1.5c-1.1,3.7-0.1,8.8-0.1,8.8
	c-2.4,4.3-4.2,8.9-5.4,13.7c-3.8,1-16-1.1-17.6-2.3c-1.1-3.7-1.7-7.6-1.6-11.5C758.1,607.4,758.9,603.7,760.5,600.4"/>
<path id="패스_25019" class="st7" d="M777.8,600.4c1.1,0.3,3.8,1,5.1,2.1c-1.1,3.7-0.1,8.8-0.1,8.8c-2.4,4.3-4,9-4.9,13.9
	c-3,0.8-12.3-1-12.3-1s7.3-4.3,10.1-10.7C778.5,607,777.4,600.3,777.8,600.4"/>
<path id="패스_25020" class="st4" d="M762.4,604.3c0,0,0.2,1.5-6,6.9c-1.7,1.9-3.7,3.5-5.9,4.8c-2.1,1.1-2.9-3.8-2.9-3.8
	s8.8-7.8,11-10c0.7-0.7,1.4-1.3,2.2-1.8L762.4,604.3z"/>
<path id="패스_25021" class="st11" d="M770.4,595.1c0,0,1,4,0.8,4.5s-0.9,1.2-1.6,0.2c-0.6-1-0.5-4.5-0.5-4.5L770.4,595.1z"/>
<path id="패스_25022" class="st15" d="M771,598c-0.5,0.5-1.2,0.6-1.8,0.4c-0.1-0.7-0.1-1.5-0.2-2.2l1.3-1.2
	C770.5,595.6,770.9,597.4,771,598"/>
<path id="패스_25023" class="st11" d="M765.9,593.7c0.1-1.1,0.4-2.2,0.8-3.3c0.3-1,1.5-1.6,2.5-1.3l0,0c1.3,0.4,2.6,1,3.7,1.8
	c0.6,0.7,0.3,1.9,0.1,2.7c-0.3,1.1-0.8,2-1.6,2.8c-0.9,0.5-1.9,0.7-2.9,0.4C766.3,596.2,765.8,595.4,765.9,593.7"/>
<path id="패스_25024" class="st11" d="M798.3,647.8c1.2-0.1,2.5,0.2,3.5,0.8c0.7,0.5,2,2.3,1.8,2.7s-0.5,0-0.5,0s0.2,0.5-0.2,0.5
	c-0.2,0-0.9-0.8-1.6-1.2c-0.4-0.3-1-0.3-1.2-0.6c0,0,0.5,0.9,0.2,1s-1.4-1.2-1.6-1.8C798.6,648.9,798,648.1,798.3,647.8"/>
<path id="패스_25025" class="st7" d="M786.8,625c0,0-3.3-11.9-4.7-14.4c-2.6-4.7-3.6-3.9-3.6-3.9l0.1-5.4c0,0,4.2,0.1,6,2.5
	c3.3,4.4,8,24.8,8.5,25.5L786.8,625z"/>
<path id="패스_25026" class="st7" d="M794.8,631.8c1.8,2.8,6.1,11.8,6.1,11.8c1.9,5.4-4.3,6.5-6.5,4.3c-4.1-4-8-15.7-7.9-23.9
	c0.1-3.2,3.6-3.2,5.3,0.8C793.3,628.1,793.9,630.4,794.8,631.8"/>
<path id="패스_25027" class="st4" d="M756.4,598.6c0.3,0.2,0.5,0.6,0.4,1c-0.8,2.9-2,10.6-2.3,12.2c-0.3,1.4-5,6-6.4,3.3
	c-0.5-1-0.6-3.8-0.5-5.5C748.1,603.5,749.9,594.4,756.4,598.6"/>
<path id="패스_25028" class="st5" d="M753.6,598L753.6,598c0.6,0.2,1.2,0,1.4-0.5l2.5-5.5l-2-0.9l-2.5,5.5
	C752.8,597.1,753,597.7,753.6,598L753.6,598"/>
<path id="패스_25029" class="st16" d="M757.5,584.3c0,0-7.5-7.5-9.4-17.1l-14,20.4c0,0,11.3-2.3,20.3,2.3L757.5,584.3z"/>
<path id="패스_25030" class="st6" d="M753.4,590.1l5.2,2.3c0.5,0.2,1,0,1.3-0.4l2.5-4.1c0.3-0.5,0.1-1.1-0.3-1.4l-4.8-3.3
	c-0.5-0.3-1.1-0.2-1.4,0.3v0.1l-2.9,5.1C752.7,589.2,752.9,589.8,753.4,590.1L753.4,590.1"/>
<path id="패스_25031" class="st17" d="M737.8,575.8c-3.6,5.5-5.5,10.7-4,11.7s5.5-2.8,9.1-8.3s6.4-11.9,4.9-12.8
	C746.4,565.5,741.4,570.3,737.8,575.8"/>
<path id="패스_25032" class="st5" d="M745.6,577.9c-0.1-0.1-2.4-2.5-2.4-2.5l-3.6,4.8l3.2,1.8L745.6,577.9z"/>
<path id="패스_25033" class="st6" d="M740.6,577.3c-1,1.4-1.5,2.7-1.1,2.9c0.4,0.3,1.5-0.6,2.4-2c1-1.4,1.5-2.7,1.1-2.9
	S741.6,575.9,740.6,577.3"/>
<path id="패스_25034" class="st16" d="M746,573.8c0,0-3.1,6-5.6,8.8c-2.6,2.8,4.6,2.2,4.7,2.1C745.2,584.7,747.4,576.5,746,573.8"
	/>
<path id="패스_25035" class="st11" d="M754.3,593.1c0.1-0.3,0.4-0.4,0.7-0.4c0.6,0,1.5,0.2,0.9,1.2c-0.5,0.8-1.4,1.3-2.3,1.5
	c-0.1,0-0.2,0-0.2-0.1v-0.1L754.3,593.1z"/>
<path id="패스_25036" class="st11" d="M755.9,595.4c0,0,0-1.9,0.4-1.5c0.2,0.2,0.1,1.1,0.1,1.1s0.1,1.1,0.1,1.4
	c-0.2,0.6-0.5,1.2-0.8,1.8l-0.9-0.3c0,0,0.2-0.3,0.3-0.4C755.3,596.9,755.9,595.4,755.9,595.4"/>
<path id="패스_25037" class="st13" d="M1190.4,579.5c0,0,4.1-8.7,5.7-11.4c1-1.9,2.4-3.5,4-4.9c1.4-1.3,2.2-1.6,5.9-2.6
	c-0.8,3-9.3,18.9-11.1,21.3C1192.9,584.4,1190.4,579.5,1190.4,579.5"/>
<path id="패스_25038" class="st11" d="M1183.6,565.5c0.6-0.7,1-1.6,1.2-2.5c0.1-0.6-0.3-2.3-0.6-2.3c-0.3-0.1-0.2,0.3-0.2,0.3
	s-0.2-0.3-0.4-0.2c-0.1,0.1,0,0.9-0.1,1.5c-0.1,0.4-0.3,0.7-0.3,1c0,0-0.3-0.7-0.5-0.6c-0.2,0.1,0,1.4,0.2,1.8
	c0.1,0.1,0.2,1.3,0.3,1.5S1183.4,565.5,1183.6,565.5"/>
<path id="패스_25039" class="st8" d="M1229.9,687c-0.5-2.1,2.5-1.7,4.2-2.2c-0.5,0.3-1,0.8-0.2,1c1.2,0.3,3.7-0.2,4.4-1
	c0.3,0.7,0.4,1.4,0.4,2.1C1238.7,687.6,1230.2,688.4,1229.9,687"/>
<path id="패스_25040" class="st11" d="M1233.8,685.8c-0.8-0.2-0.3-0.7,0.2-1c1-0.4,1.9-0.6,2.1-0.7c0.3-0.1,0.5-0.4,0.6-0.7
	l0.5-0.1c0,0,0.9,1.4,1,1.5C1237.6,685.6,1235,686,1233.8,685.8"/>
<path id="패스_25041" class="st8" d="M1197.5,687.8c-0.5-2.1,2.5-1.7,4.2-2.2c-0.5,0.3-1,0.8-0.2,1c1.2,0.3,3.7-0.2,4.4-1
	c0.3,0.7,0.4,1.4,0.4,2.1C1206.3,688.4,1197.8,689.2,1197.5,687.8"/>
<path id="패스_25042" class="st11" d="M1201.5,686.6c-0.8-0.2-0.3-0.7,0.2-1c1-0.4,1.9-0.6,2.1-0.7c0.3-0.1,0.5-0.4,0.6-0.7
	l0.5-0.1c0,0,0.9,1.4,1,1.5C1205.2,686.4,1202.6,686.9,1201.5,686.6"/>
<path id="패스_25043" class="st8" d="M1224.7,586.5c0,0.3,5.4,5.6,8.2,12c4.4,10,6,73.8,5.2,84.8c-0.1,1.5-3.7,0.2-3.9-1.6
	c-1.2-11.5-17.7-70.3-17.7-70.3l-11.1,73.2l-3.6,0.2c0,0-1.1-93.9,0.5-96.7C1205.6,587.3,1219.4,586.4,1224.7,586.5"/>
<path id="패스_25044" class="st12" d="M1202.5,588.1c1.4-0.4,3.4-0.5,7.7-0.7h-1.5l7.8,24.1c0,0-5.3,40.3-11.1,73.2l-3.6,0.2
	C1201.7,684.9,1193.2,619.7,1202.5,588.1"/>
<path id="패스_25045" class="st7" d="M1199.8,563.7c1.8-2.6,12.2-5.1,18.8-4.5c1.6,0.1,5.6,2.4,6.5,3.5c2.8,3.6,1.9,11.1,2,14.1
	c0.1,3.9-0.9,9-0.4,13c0.9,6-22.9,1.6-23.5-0.5c-1.2-4.4-1.9-8.9-2.1-13.4C1200.5,568.8,1199.8,563.7,1199.8,563.7"/>
<path id="패스_25046" class="st11" d="M1210.5,554.7c0,0,1.5,4.8,1,5.3s-2.2,1.4-3.4,0.3c-1.2-1.1-0.5-5.4-0.5-5.4L1210.5,554.7z"
	/>
<path id="패스_25047" class="st15" d="M1211.4,558.2c-1.2,0.6-2.6,0.8-3.9,0.5c-0.1-0.9-0.1-1.8,0-2.6l2.8-1.6
	C1210.5,555.1,1211.2,557.4,1211.4,558.2"/>
<path id="패스_25048" class="st11" d="M1204.9,553.6c0.2-1.1,0.5-2.2,1-3.3c0.2-0.3,0.8-1.4,1.1-1.5c2-0.6,4.9,2.1,5.3,2.8
	c0.5,0.8,0.1,1.9-0.2,2.7c-0.3,0.8-2.5,4.7-5.1,3.5C1204.3,556.5,1204.8,555.3,1204.9,553.6"/>
<path id="패스_25049" class="st14" d="M1224.8,564.4c0.5,2-0.7,4.1-2.1,6.6c-2.8,5-9.6,10.8-11.6,12.6c-3.8,3.3-7.3-1.9-7.3-1.9
	s7.1-6.7,10.9-12.6c0.9-1.4,4.3-6.9,5.6-7.8C1222.2,560.1,1224.4,562.7,1224.8,564.4"/>
<path id="패스_25050" class="st4" d="M1199.8,563.7c0.8-1.2,3.4-2.3,6.7-3.2c0.2-0.1,0.9-0.2,0.9-0.2s-2.1,8.1-0.7,15.6
	c1.7,8.8,3.6,15.8,3.6,15.8c-0.2,0-0.3,0-0.5,0c-3.7-0.7-6.3-1.7-6.5-2.4c-1.2-4.4-1.9-8.9-2.1-13.4
	C1200.5,568.8,1199.8,563.7,1199.8,563.7"/>
<path id="패스_25051" class="st13" d="M1188.6,567.2c1.6,2.7,7,14.6,7,14.6s-2.8,5.2-5.5,2.7c-2.9-2.8-2.3-3.1-5.6-8
	c-1.7-2.5-4-5.8-3.2-8.6c0.6-1.6,1.7-2.9,3.2-3.7C1186.3,564.6,1187.8,565.6,1188.6,567.2"/>
<path id="패스_25052" class="st14" d="M1211.8,559.2c0,0-1.5,26,2.1,33.1c0,0,6.1,15,9.2,15.9s11.8-2.3,11.8-2.3s1-6.4-8.4-17.8
	c0,0,2.6-18.7-0.5-24.3c-1.3-2.3-4.7-4.4-7.6-4.7C1216.4,559,1214.1,559,1211.8,559.2"/>
<path id="패스_25053" class="st13" d="M1206.6,560.5c-1.8,6.2-2.5,12.6-2,19.1c0.8,11,1.3,11.2,1.3,11.2s-3.9,14-5.3,15.5
	s-6.5-3-6.5-3s5.9-13.6,6.2-13.5l1-13.3l-1.8-12.6C1199.4,563.9,1200.4,561.8,1206.6,560.5"/>
<path id="패스_25054" class="st11" d="M1177.6,578.8c0,0-0.5-0.2-0.4-0.5c0.1-0.1,0.7,0,0.8,0c-0.3-0.1-0.4-0.4-0.3-0.5
	c0.7,0.1,1.4,0.2,2,0.5c-0.2-0.2-0.6-0.8-0.5-1l0.1-0.1c0.3,0.2,0.6,0.4,0.9,0.7s0.5,0.7,0.7,1s0.4,0.6,0.5,0.9
	c0.4,0,0.8,0.3,1.1,0.6c0.1,0.2,0,0-0.1,0.3l-0.1,0.1h0.1c0,0,0.1,0.1,0,0.1c-1,0.3-2.1,0.2-3-0.2c-0.3-0.1-0.5-0.2-0.7-0.3
	c-0.1,0-0.2-0.1-0.2-0.1s-0.1,0-0.1-0.1c-0.1,0-0.1-0.1-0.2-0.1c-0.2-0.2-0.4-0.4-0.6-0.6c-0.1-0.2,0.1-0.2,0.2-0.2
	c0,0-0.5-0.3-0.4-0.4C1177.4,578.7,1177.6,578.9,1177.6,578.8"/>
<path id="패스_25055" class="st14" d="M1183.4,584.5c3.3,3.1,30.4,1.9,27.7-2.2c-0.8-1.2-0.8-2.8,0-4l-26.2-0.3
	C1184.9,577.9,1177.7,579,1183.4,584.5"/>
<path id="패스_25056" class="st12" d="M1203.8,555c0.5-1.3,1.4-3,1.4-2.6c-0.2,1.5-0.6,3.5,1.5,4.4c1.9,0.8,3.4,0.6,4.6-0.9
	c0.5-1,0.9-2.1,1.2-3.2c0.1-0.4-0.2-1.5-1.1-1.7c-1.9-0.2-3.6-0.9-5.1-2c-0.9-0.9-1.4-2.2-1.4-3.5c-0.2-1.6,0.4-3.2,1.6-4.4
	c0.4-0.4,1-0.2,0.8,0.2c-1.2,2.8,3.4,2.4,4.5,2.1c0.6-0.3,1.3-0.4,1.9-0.5c0.8,0.1,1.6,0.6,2.1,1.3c1.3,1.4,1.4,3.5,0.2,5
	c0.5,0.3,0.8,0.9,0.5,1.9c-0.6,1.9-1.9,3.6-3.6,4.7c0,0.7-0.1,1.5-0.3,2.2c0,0.5-0.2,0.9-0.5,1.3c-0.9,0.8-3.4,1.1-4.5,1
	c-1.1,0-3.2-0.4-3.8-1.5C1203.2,557.7,1203.2,556.2,1203.8,555"/>
<path id="패스_25057" class="st6" d="M766.6,482.1L766.6,482.1c-0.4-0.1-0.5-0.3-0.4-0.6l0,0l23-81.9c0.1-0.3,0.4-0.4,0.6-0.3
	c0.2,0.1,0.4,0.3,0.3,0.6l-23,82C767,482,766.8,482.1,766.6,482.1"/>
<rect id="사각형_6966" x="899.3" y="610.8" class="st12" width="5.6" height="7.9"/>
<path id="패스_25058" class="st12" d="M923.2,607.5h-42.7c-8.7,0-15.8-7.1-15.8-15.8l0,0h74.4C939.1,600.4,932,607.5,923.2,607.5"
	/>
<path id="패스_25059" class="st16" d="M800.2,575.5l-14.1-176.1c-1-12,7.4-22.7,19.3-24.6c25.5-4.1,51.4-4.4,77-0.9
	c16.4,2.3,34.1,8,36.2,24.5c0.6,4.8-0.2,17.9-0.5,23.5c-1.1,25.5,5.8,43.8,10.2,57.4c4.5,13.6,14.3,56.7,9.5,79.6
	c0,0,57.9-1.8,71.9-0.9s9.2,20.8,6.5,23.2s-51.1,12.2-98.4,14.3c-36.3,1.6-79.1,3.2-102.1-1.8C807.2,591.7,800.9,584.3,800.2,575.5"
	/>
<path id="패스_25060" class="st18" d="M857.3,571.9c0,0,18.2-2.8,35.1-5c16.9-2.2,116.7-11.1,120.6-8.3c3.9,2.8,6.2,2.2,6.3,11.8
	c0,9.5-0.5,8.3-3,10.8c-1.7,1.7-26.7,7.4-62.5,11.4c-16.7,1.9-34.2,2.6-54.5,3.6c-65.2,3.4-61.8-4.5-61.8-4.5L857.3,571.9z"/>
<path id="패스_25061" class="st8" d="M887.1,607.5l15,6.9c0,0,13.6-6.9,14.1-6.9H887.1z"/>
<path id="패스_25062" class="st8" d="M909.7,630.6h-15.1v-5.2c0-4.2,3.4-7.5,7.5-7.5c4.2,0,7.5,3.4,7.5,7.5l0,0L909.7,630.6
	L909.7,630.6z"/>
<path id="패스_25063" class="st12" d="M912.4,665.3h-21.1l0.2-35.4c0-1.2,1-2.1,2.1-2.1h16.6c1.2,0,2.1,1,2.1,2.1L912.4,665.3z"/>
<path id="패스_25064" class="st8" d="M851.2,619c-0.8,0-1.4-0.6-1.4-1.4c0-0.4,0.2-0.8,0.4-1l7.7-7.1c0.3-0.2,0.6-0.4,0.9-0.4
	h37.6c0.8,0,1.4,0.6,1.4,1.4c0,0.8-0.6,1.4-1.4,1.4h-37.1l-7.3,6.7C851.9,618.9,851.6,619,851.2,619"/>
<path id="패스_25065" class="st12" d="M853.3,616.3c1.1,1.3-0.7,4.5-4,7.3s-6.8,4-7.9,2.8c-1.1-1.3,0.7-4.5,4-7.3
	C848.7,616.3,852.2,615.1,853.3,616.3"/>
<path id="패스_25066" class="st16" d="M818.2,564.5c0,0,27.1,0.6,71.6-2.8s49.5-2.8,49.5-2.8s64.9-2.7,70.4-0.8
	c0,0-11.4,6.3-45.2,8.9c-33.9,2.7-69,8.3-86,3.4C868.7,567.5,811,587.4,818.2,564.5"/>
<path id="패스_25067" class="st19" d="M868.4,568.8c-17.7-0.8-40.2-4.3-50.3-2.8c-7.2,1.1-10.2,4.2-11.1,2.9
	c-2.4-3.4,9.2-10.1,9.8-21.7c0.4-7.7-5.6-156.6-9.8-167.6v-0.1c-1.2-2.9-4.5-4.3-7.4-3.1c-0.1,0-0.2,0.1-0.3,0.1
	c-8.8,4.1-14.1,13.2-13.3,22.8l14.1,176.3c0.7,8.7,6.9,15.9,15.4,17.8c12.4,2.7,30.8,3.5,50.7,3.4c6.6,0,18.3-0.3,23.6-6.9
	C896.8,581.6,888.9,569.7,868.4,568.8"/>
<path id="패스_25068" class="st7" d="M911,696.6c0,5.1-4.1,9.2-9.2,9.2s-9.2-4.1-9.2-9.2s4.1-9.2,9.2-9.2l0,0
	C906.9,687.4,911,691.5,911,696.6"/>
<path id="패스_25069" class="st4" d="M905.1,695.6c0.4,1.8-0.8,3.6-2.6,3.9c-1.8,0.4-3.6-0.8-3.9-2.6c-0.4-1.8,0.8-3.6,2.6-3.9
	C902.9,692.7,904.7,693.8,905.1,695.6L905.1,695.6"/>
<path id="패스_25070" class="st12" d="M912.4,696.5h-21.1c0-0.7,0.1-1.4,0.2-2.1c1.2-5.7,6.7-9.4,12.4-8.2
	c4.3,0.9,7.7,4.4,8.3,8.7C912.4,695.4,912.4,696.5,912.4,696.5"/>
<path id="패스_25071" class="st8" d="M962.7,691.5c2.3,0,4.2-1.9,4.2-4.2l0,0v-9.8c0-1.6-0.9-3-2.3-3.8
	c-1.2-0.6-28.5-14.6-60.9-12.5c-2.3,0.1-4.1,2.2-4,4.5s2.2,4.1,4.5,4l0,0c24.9-1.6,47.2,7.4,54.2,10.5v7.1
	C958.5,689.6,960.4,691.5,962.7,691.5"/>
<path id="패스_25072" class="st7" d="M954.1,697.7c0,5.1,4.1,9.2,9.2,9.2s9.2-4.1,9.2-9.2s-4.1-9.2-9.2-9.2l0,0
	C958.2,688.6,954.1,692.7,954.1,697.7"/>
<path id="패스_25073" class="st4" d="M960,696.8c-0.4,1.8,0.8,3.6,2.6,3.9c1.8,0.4,3.6-0.8,3.9-2.6c0.4-1.8-0.8-3.6-2.6-3.9
	C962.1,693.8,960.4,695,960,696.8L960,696.8"/>
<path id="패스_25074" class="st12" d="M952.7,697.7h21.1c0-0.7-0.1-1.4-0.2-2.1c-1.2-5.7-6.7-9.4-12.4-8.2
	c-4.3,0.9-7.7,4.4-8.3,8.7C952.7,696.6,952.7,697.7,952.7,697.7"/>
<path id="패스_25075" class="st8" d="M842.6,691.2c-2.3,0-4.2-1.9-4.2-4.2v-9.8c0-1.6,0.9-3,2.3-3.8c1.2-0.6,28.5-14.6,60.9-12.5
	c2.3,0.1,4.1,2.2,4,4.5s-2.2,4.1-4.5,4c-24.9-1.6-47.2,7.4-54.2,10.5v7.1C846.8,689.3,844.9,691.2,842.6,691.2"/>
<path id="패스_25076" class="st12" d="M902,694.2c-2.3,0-4.2-1.9-4.2-4.2l0,0v-31.5c0-2.3,1.9-4.2,4.2-4.2s4.2,1.9,4.2,4.2V690
	C906.2,692.3,904.3,694.2,902,694.2L902,694.2"/>
<path id="패스_25077" class="st7" d="M851.2,697.4c0,5.1-4.1,9.2-9.2,9.2s-9.2-4.1-9.2-9.2s4.1-9.2,9.2-9.2l0,0
	C847.1,688.3,851.2,692.4,851.2,697.4"/>
<path id="패스_25078" class="st4" d="M845.2,696.5c0.4,1.8-0.8,3.6-2.6,3.9s-3.6-0.8-3.9-2.6c-0.4-1.8,0.8-3.6,2.6-3.9
	C843.1,693.5,844.9,694.7,845.2,696.5L845.2,696.5"/>
<path id="패스_25079" class="st12" d="M852.6,697.4h-21.1c0-0.7,0.1-1.4,0.2-2.1c1.2-5.7,6.7-9.4,12.4-8.3
	c4.3,0.9,7.7,4.4,8.3,8.7C852.5,696.3,852.6,697.4,852.6,697.4"/>
<path id="패스_25080" class="st6" d="M863.9,449.3c-0.2,0-0.3-0.1-0.4-0.3c-0.3-0.6-32.5-62.7-37.3-68.7
	c-4.7-5.9-12.1-6.4-12.2-6.4c-0.3,0-0.5-0.2-0.5-0.5s0.2-0.5,0.5-0.5c5,0.5,9.6,2.9,12.9,6.8c4.9,6.1,36,66.3,37.4,68.9
	c0.1,0.2,0,0.5-0.2,0.6l0,0C864.1,449.3,864,449.3,863.9,449.3"/>
<path id="패스_25081" class="st17" d="M867.4,466.4L776.9,497c-3.8,1.3-7.9-0.8-9.2-4.6l0,0l-4.4-13.1c-1.3-3.8,0.8-7.9,4.6-9.2
	l90.5-30.6c3.8-1.3,7.9,0.8,9.2,4.6l4.4,13.1C873.2,461,871.2,465.1,867.4,466.4L867.4,466.4"/>
<path id="패스_25092" class="st6" d="M771.9,474c0,0.9-0.7,1.6-1.6,1.6c-0.9,0-1.6-0.7-1.6-1.6s0.7-1.6,1.6-1.6
	C771.1,472.4,771.9,473.1,771.9,474"/>
<path id="패스_25093" class="st6" d="M862.7,442.3c0,0.9-0.7,1.6-1.6,1.6c-0.9,0-1.6-0.7-1.6-1.6s0.7-1.6,1.6-1.6
	S862.7,441.4,862.7,442.3"/>
<path id="패스_25094" class="st8" d="M920,619.7c1.1-0.9-1.3-4.2-2.1-5c0.2,0.4,0.4,1.1-0.2,1.2c-1-0.2-1.9-0.9-2.1-1.9
	c-0.4,0.5-0.7,1.1-1,1.8C914.3,616.3,918.5,620.9,920,619.7"/>
<path id="패스_25095" class="st11" d="M918.2,616.7c0.6,0-0.1-1.5-0.3-1.9s-0.5-0.8-0.9-1.1c-0.1-0.2-0.2-0.5-0.1-0.8l-0.5-0.3
	c-0.1,0.4-0.3,0.7-0.6,0.9c-0.1,0.1-0.2,0.2-0.4,0.4C915.7,614.8,917.4,616.8,918.2,616.7"/>
<path id="패스_25096" class="st8" d="M934.8,616.6c0.7-0.8-1.3-4.3-2.1-5.1c0.2,0.4,0.4,1.1-0.2,1.2c-1-0.2-1.9-0.9-2.1-1.9
	c-0.4,0.5-0.7,1.1-1,1.8C929.2,613.1,933.5,618,934.8,616.6"/>
<path id="패스_25097" class="st8" d="M933.1,613.6c0.6,0-0.1-1.5-0.3-1.9s-0.5-0.8-0.9-1.1c-0.1-0.2-0.2-0.5-0.1-0.8l-0.5-0.3
	c-0.1,0.4-0.3,0.7-0.6,0.9c-0.1,0.1-0.2,0.2-0.4,0.4C930.6,611.6,932.3,613.6,933.1,613.6"/>
<path id="패스_25098" class="st13" d="M890.6,543.5c-4.3,2.1-4,12.3-4.2,19c-0.2,10.8,25.4,15.1,25.4,15.1s0.9,30.2,2.3,35
	c0.4,1.4,5.1,0.2,5.1,0.2s8.6-32.2,5-41.9c-2.2-5.8-15.8-11.5-15.8-11.5l21.4,13.9l1.1,36.6l4.8-0.7c0,0,10.4-29,7.1-43.2
	c-1.8-7.7-28-17.1-28-17.1s-6.3-4.3-6.9-5.1C904.5,543.6,895.5,542.4,890.6,543.5"/>
<path id="패스_25099" class="st11" d="M862.3,566.6c0,0-1.4,2-2.3,1.7c-1-0.3-5.4,0.2-5.3-0.2c0-0.4,0.9-1.2,2.5-1.7
	c0.8-0.1,1.6-0.2,2.4-0.2c0.5,0.1,1.8-1,2.7-0.9C862.6,565.3,862.7,565.9,862.3,566.6"/>
<path id="패스_25100" class="st11" d="M859.6,567.7c-1.2,0.2-2.3,0.6-3.4,1c-0.4,0.2,0.1,0.3,0.1,0.3s4.2-0.2,4.9-1.2
	C861.8,566.9,859.6,567.7,859.6,567.7"/>
<path id="패스_25101" class="st17" d="M860.6,564.4c-0.3-0.4-0.3-1,0-1.5c2.4-3.2,15-18.2,16.3-19.8c2-2.4,3.8-4.8,4.9,0.1
	c0.5,2.1-3.4,10.4-4.3,12.7C874.5,563.4,867.7,573.9,860.6,564.4"/>
<path id="패스_25102" class="st14" d="M902.1,550.8c0,2.6-0.5,5.1-1.4,7.5c1.7-0.1,3.3-0.1,5,0.3c1.3,0.4,2.6,1,3.8,1.6
	c5.6,3.1,20.3,13,20.3,13l1.1,36.6l4.8-0.7c0,0,10.4-29,7.1-43.2c-1.8-7.7-28-17.1-28-17.1s-6.3-4.3-6.9-5.1
	c-1.6-0.1-5.5-0.8-5.5-0.8S902.2,546.6,902.1,550.8"/>
<path id="패스_25103" class="st17" d="M909.1,528.4c1.2,5.9,1.7,8.4,0.2,16.2c-0.4,2.3-21.8,5.5-22.1,4.2c-0.1-0.5-1-4.6-1.2-6.6
	c-1-9.1-2-12.8-1-16.4c0.7-2.4-0.9-3.4,11.4-5.6c3.9-0.7,9.1,0.3,10.6,0.6C909.2,521.3,908.5,525.9,909.1,528.4"/>
<path id="패스_25104" class="st3" d="M890,514.7L890,514.7"/>
<path id="패스_25105" class="st17" d="M888,522.5c0,0-5,0.2-7.2,7.9c-1.3,4.6-2.9,9.2-4.7,13.6l4.5,4.2c2.6-7,5.7-13.8,9.4-20.3
	c0.6-1.2,1-2.5,1.3-3.8C891.4,522.7,888,522.5,888,522.5"/>
<path id="패스_25106" class="st11" d="M931,555.7c0,0,0.4,2.4,1.4,2.5s4.8,2.4,4.9,2c0.2-0.4-0.3-1.5-1.6-2.6
	c-0.7-0.5-1.4-0.9-2.1-1.2c-0.4-0.1-1.2-1.7-2.1-2C931.3,554.3,930.9,554.8,931,555.7"/>
<path id="패스_25107" class="st11" d="M933,557.8c0.9,0.7,1.8,1.5,2.6,2.4c0.3,0.3-0.2,0.3-0.2,0.3s-3.7-1.9-3.9-3.1
	C931.3,556,933,557.8,933,557.8"/>
<path id="패스_25108" class="st20" d="M933.6,556.4c0.4-0.4,0.4-1.1,0-1.5c-2.4-3.2-13.6-10.9-15-12.5c-2-2.4-3.7-3.1-4.7,1.8
	c-0.5,2.1,1.5,5.5,3.5,7.3C923.2,557.1,926.2,563.2,933.6,556.4"/>
<path id="패스_25109" class="st20" d="M904.3,520.4c0,0,6.5,0,8.8,6.3c3,8.2,5.7,17.1,5.7,17.1l-4.6,3c0,0-4.4-18.4-10.6-21
	c-0.7-0.3-1.9-3-1.9-3.5C901.5,520.7,904.3,520.4,904.3,520.4"/>
<path id="패스_25110" class="st20" d="M909.1,528.4c1.2,5.9,1.7,8.4,0.2,16.2c-0.2,0.8-3,1.8-6.7,2.6c-0.1,0-0.4,0.1-0.4,0.1
	c0.1-4.6-0.2-9.1-1-13.6c-1-5.6-3.5-13.6-3.3-13.6s0.4,0,0.6,0c2.9,0,5.7,0.2,8.5,0.8C909.2,521.3,908.5,525.9,909.1,528.4"/>
<path id="패스_25111" class="st11" d="M899,516.2c0,0,0.1,4.6-0.3,5.1c-0.5,0.6-1.3,0.7-1.9,0.2c-0.2-0.1-0.3-0.3-0.4-0.5
	c-0.5-1.2,0.7-5.1,0.7-5.1L899,516.2z"/>
<path id="패스_25112" class="st15" d="M899,519.1c-1,0.2-2-0.3-2.4-1.2c0.1-0.8,0.1-0.3,0.3-1l2.2,0.3
	C899,517.9,899,518.4,899,519.1"/>
<path id="패스_25113" class="st12" d="M898.1,523.2c0,0-0.6,10.7-0.6,14.2c0,3.6,0.8,4.4,0.8,4.4l3.2,1.4l2.4-2.7
	c0,0-4-16-5.2-17.4S898.1,523.2,898.1,523.2"/>
<path id="패스_25114" class="st12" d="M897.1,522.1c0,0,0.8,1.3,1.3,1.2s0.5-0.7,0.6-1.2c0-0.5-0.8-0.8-1.6-0.4
	C896.7,522.1,897.1,522.1,897.1,522.1"/>
<path id="패스_25115" class="st17" d="M899,519.2c0,0.3,0,0.5-0.1,0.8c-0.1,0.4,0,0.6-0.8,1.5l1.5,1.6
	C899.6,523.1,901,521.6,899,519.2"/>
<path id="패스_25116" class="st20" d="M896.3,519.5c0,0.2,0.1,0.5,0.2,0.7c0.4,0.6,1,1.1,1.6,1.3l-1,2c-1.3-0.7-1.8-2.3-1.1-3.6
	C896.1,519.8,896.2,519.6,896.3,519.5"/>
<path id="패스_25117" class="st12" d="M896.7,516.5c0,0-2,0.2-3.8-2.6c-2.3-3.6,0.6-5,0.6-5s-2.3-3.6,3.2-5.3
	c5.5-1.6,1.3-6.5,5-3.7c1.2,0.9,4.5,6.4,0.8,9.4c0,0,1,5.5-0.7,6.3C900.2,516.3,898.4,516.6,896.7,516.5"/>
<path id="패스_25118" class="st13" d="M896.7,516.5c-0.9,0-1.8-0.3-2.6-0.8c-1.6-1.1-2.5-2.9-2.5-4.8c0.1-1.1,0.7-2,1.7-2.5
	l-0.2,0.7c-0.3-0.5-0.5-1.1-0.6-1.8c-0.1-0.7,0-1.3,0.4-1.9c0.3-0.5,0.8-1,1.4-1.3c0.5-0.3,1.1-0.5,1.6-0.7l1.6-0.5
	c0.5-0.1,1-0.3,1.4-0.7c0.3-0.4,0.6-0.9,0.7-1.4c0.1-0.5,0.2-1.1,0.4-1.6c0.1,1.2-0.2,2.3-0.7,3.3c-0.4,0.4-0.9,0.8-1.5,1l-1.5,0.6
	c-0.5,0.2-1,0.4-1.4,0.7c-0.4,0.2-0.8,0.6-1,1c-0.4,0.9-0.3,1.9,0.2,2.7c0.1,0.2,0,0.5-0.2,0.7l0,0c-0.7,0.3-1.1,1-1.2,1.7
	c-0.1,0.8,0.1,1.6,0.4,2.4c0.3,0.8,0.8,1.5,1.4,2C895,516,895.8,516.4,896.7,516.5"/>
<path id="패스_25119" class="st11" d="M896,516.1c-0.4-0.6-0.5-3.5-0.5-3.5c0.4-2.1,4.9-1.7,5.6-1.4c0.8,0.4,0.9,1.5,1.1,2.2
	c0.1,1,0,2-0.3,2.9c-0.6,0.7-1.4,1.2-2.3,1.4C897.3,518.1,896.6,517.6,896,516.1"/>
<path id="패스_25120" class="st11" d="M1002.4,635.6c-1.1,0.5-2.1,1.2-2.8,2.1c-0.4,0.7-0.8,2.9-0.5,3.1c0.3,0.2,0.4-0.2,0.4-0.2
	s0,0.5,0.4,0.4c0.2,0,0.5-1.1,0.9-1.7c0.3-0.4,0.7-0.7,0.8-1c0,0-0.1,1,0.2,1s0.8-1.7,0.7-2.2
	C1002.6,636.7,1002.8,635.7,1002.4,635.6"/>
<path id="패스_25121" class="st12" d="M1005.2,706.5c-0.3-2,2.4-1.4,4-1.9c-0.5,0.3-1,0.7-0.2,0.9c1.1,0.3,3.5,0.1,4.2-0.7
	c0.2,0.6,0.3,1.3,0.3,2C1013.5,707.6,1005.4,707.9,1005.2,706.5"/>
<path id="패스_25122" class="st11" d="M1009,705.6c-0.7-0.2-0.3-0.7,0.2-0.9c1-0.3,1.8-0.5,2-0.5c0.3-0.1,0.5-0.4,0.6-0.6l0.5-0.1
	c0,0,0.8,1.3,0.9,1.5C1012.5,705.6,1010.1,705.9,1009,705.6"/>
<path id="패스_25123" class="st12" d="M1049.9,705c0.3-2-2.4-1.4-4-1.9c0.5,0.3,1,0.7,0.2,0.9c-1.1,0.3-3.5,0.1-4.2-0.7
	c-0.2,0.6-0.3,1.3-0.3,2C1041.7,706.1,1049.7,706.4,1049.9,705"/>
<path id="패스_25124" class="st11" d="M1046.1,704.1c0.7-0.2,0.3-0.6-0.2-0.9c-1-0.3-1.8-0.5-2-0.5c-0.3-0.1-0.5-0.4-0.6-0.6
	l-0.5-0.1c0,0-0.8,1.3-0.9,1.5C1042.6,704.1,1045,704.4,1046.1,704.1"/>
<path id="패스_25125" class="st8" d="M1017.1,612c-2.1,3.5-4,7.2-5.5,11.1c-3.6,9.6-1.5,69.7-0.1,80c0.2,1.4,3.5,0,3.6-1.7
	c0.5-10.9,12.7-67,12.7-67l14.6,68.2h3.4c0,0-1.9-48.8-4.1-74.8c-0.5-5.7-1.8-11.3-4-16.6C1034.5,610.4,1022.1,611.6,1017.1,612"/>
<path id="패스_25126" class="st12" d="M1017.1,612c-2.1,3.5-4,7.2-5.5,11.1c-3.6,9.6-1.5,69.7-0.1,80c0.1,0.7,1.1,0.7,2,0.2
	c0.4-0.2,0.1-21.5,5.3-46.3c1.9-9.3,3.6-18.4,5.4-25.8c2.5-10.2,4.8-17.2,3.3-17.1C1023.3,614.2,1019.4,611.8,1017.1,612"/>
<path id="패스_25127" class="st17" d="M1031.7,584.9c-2.5-1.8-5.7-3.6-18.1-0.5c-1.3,0.3-2.5,0.8-3.6,1.5c1,4.2-0.4,9.8-0.4,9.8
	c1.4,2.7,2.5,5.6,3.2,8.5c1,3.5,2.1,11.4,2.1,11.4s8.6,0.3,12.7,0c3.4-0.3,10.1-2.1,10-4.2c-0.1-5.4-0.6-10.8-1.7-16
	C1035.2,591.7,1033.8,588.2,1031.7,584.9"/>
<path id="패스_25128" class="st12" d="M1019.6,580.8"/>
<path id="패스_25129" class="st21" d="M1010.1,585.9c-3,2.9-3.5,4.4-4.8,7c-2.6,5.2-5.1,20.5-5.4,23.2c-0.6,5,8.4-5.6,8.4-5.6
	s-0.2-4.1,2.5-10.6c0.6-1.5,2.7-5.8,2.7-5.8C1012.3,591.4,1011.1,588.7,1010.1,585.9"/>
<path id="패스_25130" class="st21" d="M998.6,633.3c-2.7-4.3,1.9-27.4,5.8-23.6c1,1.2,2.6,1.5,4,0.8l-2.1,22.7
	C1006.2,633.1,1003.3,640.9,998.6,633.3"/>
<path id="패스_25131" class="st11" d="M1070,550.5c0.5-1.2-0.1-2.9-1.2-2.5c-0.3,0.2-0.7,0.4-1,0.7c-0.3,0.2-0.6,0.4-0.6,0.4
	s0.7-0.9,0.3-1c-0.4-0.1-0.7,0.4-1,0.8c-0.2,0.4-1.7,2.4-1,4c-0.1-0.1,0.3,0.3,0.5,0.3C1067.2,552.9,1069.4,551.8,1070,550.5"/>
<path id="패스_25132" class="st11" d="M1070.5,546.9c0,0,0.7-0.1-0.8,1.3l-2,0.6C1068.5,548.1,1069.4,547.5,1070.5,546.9"/>
<path id="패스_25133" class="st21" d="M1018.1,583.2c0,0,6.4,32.5,5,41.9c-0.1,1.1-1,1.9-2.1,2l-10.4,1.2c0,0,0.6-6.4,1-8.5
	c0.4-2.3,2.5-9.2,2.5-9.2l-7.7-19.7c0,0,1.7-3.8,4-5.5C1011.9,584.1,1014,583.8,1018.1,583.2"/>
<path id="패스_25134" class="st22" d="M1022.2,608.1l-6.6-14.9l1.5-1l-2.8-0.7l0.7-5.5c0.2-1.8,1.5-3.2,3.2-3.7
	c0.5-0.1,1-0.2,1.5-0.3l-0.7,1.7c-0.2,0.6-0.3,1.3-0.2,1.9l2.5,10.3L1022.2,608.1z"/>
<path id="패스_25135" class="st22" d="M1059,553.3c-2,2.5-11.4,17.5-11.4,17.5s1.6,6.1,4.5,4c3.2-2.3,6.9-6,11.3-9.9
	c3.2-2.8,2.9-9.4,2.6-12.5c-0.1-0.9-0.9-1.6-1.9-1.5c-0.1,0-0.1,0-0.1,0C1062.4,551.1,1060.2,551.7,1059,553.3"/>
<path id="패스_25136" class="st22" d="M1051.2,568c0,0-12.2,8.8-15.4,10.9c-1.4,0.9-3.2,2-8.6,3.9c-1.6,0.6,3.4,2.1,2.5,6.5
	c3.4-1.1,21.9-13.8,24.6-16.2C1057.1,570.5,1051.2,568,1051.2,568"/>
<path id="패스_25137" class="st20" d="M1022,585.1c0,0,8.2,22.9,5.7,30.6c0,0,6.8-0.6,8.9-2.7c2.1-2.1-7.7-30.3-7.7-30.3
	L1022,585.1z"/>
<path id="패스_25138" class="st22" d="M1023.2,582.5c0,0,10.1,27.3,11.5,41.1c0.1,0.6,0.6,1,1.1,0.9c0.1,0,0.2,0,0.3-0.1l5.2-0.9
	l-3.3-16.2c0,0-0.8-10.2-1.2-12.6c-0.2-0.9-0.7-3.7-1.3-6.2c-0.3-1.2,2.8-4.2,2.8-4.2s-4.8-2.9-6.6-2.9c-2.9-0.1-5.8,0.1-8.6,0.6
	L1023.2,582.5z"/>
<path id="패스_25139" class="st21" d="M1030.7,605.3c0,0-7.1-22.5-7.8-23.1c0,0-0.9-0.9,0.7-0.7c2.2,0.4,4.1,1.6,5.3,3.5
	c1.5,2.1,1.9,2.7,1.9,2.7l-1.8,1.5l2.8,0.6L1030.7,605.3z"/>
<path id="패스_25140" class="st12" d="M1023.6,585.4l-0.5,1.6l-0.8,0.1l-1.5-1.4C1020.8,585.8,1022.2,584.3,1023.6,585.4"/>
<path id="패스_25141" class="st12" d="M1022.3,586.4c0,0,0.7,10.9,0.9,14.7s0.2,5.4,0.2,5.4l3.8,1l1.8-2.7c0,0-4.7-16.9-6.1-18.4
	C1021.4,584.9,1022.3,586.4,1022.3,586.4"/>
<path id="패스_25142" class="st11" d="M1019.4,579.7c0,0,0,4.7,0.5,5.1c1,0.6,2.4,0.4,3.1-0.6c0.7-1.3-1-5-1-5L1019.4,579.7z"/>
<path id="패스_25143" class="st15" d="M1019.6,583.1c1.1,0.2,2.5-0.7,3.3-2c-0.1-0.8-0.1-0.3-0.4-1l-3-0.7
	C1019.5,580.1,1019.5,582.3,1019.6,583.1"/>
<path id="패스_25144" class="st23" d="M1023.6,577.9c0-0.1-0.2-7.5-0.4-8.2c-0.3-1-0.7-1.8-1.4-2.6c-1.4-1.4-4.9-1.3-6.2,0.6
	c-0.7,1-1.4,4.2-3.6,3.3c0,0-1.6-1.1-0.9,0.5c0.4,1.1,1.3,1.9,2.5,2.2c0,0,2.4,6.1,4.4,6.1C1018.1,579.9,1023.9,579.7,1023.6,577.9"
	/>
<path id="패스_25145" class="st11" d="M1023.5,577.3c-0.2-1-0.6-2-1.2-2.8c-0.2-0.3-0.4-0.5-0.8-0.6c-1.8-0.4-4.5,1.4-4.9,2
	c-0.5,0.8,0,1.7,0.3,2.5c0.3,0.7,2.5,4.1,4.8,2.9C1024.1,579.9,1023.7,578.9,1023.5,577.3"/>
<path id="패스_25146" class="st17" d="M1023.1,582.2c0,0,0.3,1-1.2,2.9l1.8,1C1023.7,586.1,1025.2,585,1023.1,582.2"/>
<path id="패스_25147" class="st20" d="M1019.5,582.8c0,0,0,0.5,2.5,2.3l-1,2c-1.5-0.6-2.3-2.3-1.7-3.8
	C1019.4,583.1,1019.5,582.9,1019.5,582.8"/>
<path id="패스_25148" class="st24" d="M1021.8,567.2c-0.8-0.6-1.8-0.9-2.9-0.8c-1,0-1.9,0.4-2.7,1c-0.3,0.3-0.6,0.7-0.8,1.2
	s-0.4,1-0.7,1.4c-0.3,0.5-0.7,1-1.1,1.3c-0.5,0.3-1.2,0.4-1.8,0.1l0,0h-0.1c-0.2-0.1-0.3-0.2-0.5-0.3c-0.1,0-0.2,0-0.1,0
	c0,0,0.1,0,0.1-0.1l0,0c0.1,0.4,0.2,0.7,0.5,1.1c0.2,0.4,0.5,0.7,0.8,0.9s0.7,0.4,1,0.5l0,0c0.1,0,0.2,0.1,0.2,0.2
	c0.4,0.9,0.8,1.8,1.2,2.7l0.6,1.3c0.2,0.4,0.4,0.9,0.7,1.2c-0.4-0.3-0.7-0.7-0.9-1.1c-0.3-0.4-0.5-0.8-0.8-1.2
	c-0.5-0.9-0.9-1.7-1.4-2.6l0.2,0.2c-0.5-0.1-1-0.3-1.4-0.6s-0.7-0.7-1-1.1c-0.1-0.2-0.2-0.4-0.3-0.6c-0.1-0.2-0.2-0.5-0.2-0.8
	c0-0.1,0-0.2,0.1-0.3s0.2-0.2,0.4-0.3c0.2,0,0.4,0,0.5,0.1c0.2,0.1,0.5,0.2,0.7,0.3h-0.1c0.4,0.2,0.8,0.2,1.2,0
	c0.4-0.3,0.7-0.6,0.9-1c0.3-0.4,0.5-0.9,0.7-1.3c0.2-0.5,0.5-1,1-1.3c0.9-0.7,1.9-1,3-1C1020,566,1021,566.4,1021.8,567.2"/>
<path id="패스_25149" class="st17" d="M839.6,278.4c0,0,7.5,1.6,8.2-0.6c0.9-3-2.1-4.5-2.1-4.5s2.2-6.7,0.5-9.9
	c-1-1.8-4.2-4.1-5.7-2.5c0,0-2.2-3.5-5.2-2.4s-3.3,5.3-3.3,5.3s-4.1-1.5-3.1,2.5c0,0-9.1-2.8-13.3,4.2s2.3,12.9,5,14.7
	C823.2,287,839.6,278.4,839.6,278.4"/>
<path id="패스_25150" class="st25" d="M846.1,263.5c-0.6-1-1.5-1.8-2.5-2.3c-0.5-0.3-1-0.5-1.6-0.5c-0.5-0.1-1,0.1-1.4,0.5
	c-0.1,0.1-0.2,0.1-0.3,0l0,0l0,0c-0.6-0.8-1.4-1.5-2.3-2c-0.9-0.5-1.9-0.5-2.8-0.1c-0.9,0.4-1.6,1.1-2,2s-0.7,1.9-0.8,2.9
	c0,0.2-0.2,0.4-0.5,0.4l0,0h-0.1c-0.7-0.3-1.5-0.3-2.2,0c-0.3,0.2-0.4,0.5-0.4,0.8c0,0.2,0,0.4,0,0.6l0.1,0.6c0,0.3-0.1,0.5-0.4,0.6
	l0,0c-0.1,0-0.1,0-0.2,0c-2.5-0.7-5.2-0.7-7.7,0c-1.2,0.4-2.4,1-3.4,1.8c-1,0.9-1.7,1.9-2.3,3.1s-0.9,2.4-0.9,3.7s0.4,2.6,0.9,3.8
	c1.2,2.4,3,4.5,5.1,6c-2.3-1.4-4.2-3.4-5.6-5.8c-0.7-1.2-1-2.6-1.1-4c0-1.4,0.2-2.8,0.8-4.1l0.5-0.9c0.2-0.3,0.4-0.6,0.6-0.9
	c1.2-1.8,3-3,5-3.6c2.7-0.8,5.6-0.8,8.2,0l-0.6,0.5l-0.1-0.7c0-0.3,0-0.5,0-0.8c0-0.6,0.3-1.1,0.8-1.5c0.5-0.3,1-0.4,1.6-0.3
	c0.5,0,1,0.1,1.5,0.3l-0.6,0.4c0.1-1.1,0.4-2.2,0.9-3.2s1.4-1.8,2.5-2.3c1.1-0.4,2.3-0.3,3.3,0.3s1.8,1.3,2.4,2.3h-0.4
	c0.5-0.4,1.1-0.6,1.8-0.5c0.6,0.1,1.2,0.3,1.7,0.7C844.8,261.5,845.6,262.4,846.1,263.5"/>
<path id="패스_25151" class="st8" d="M805.2,372.9c-1,0.4-3.5,2.6-3.2,3.3c0.6,1.6,5.6-0.8,5.6-1.4s-0.1-1.2-0.2-1.8
	c0,0,0,0.1-0.1,0.1l-0.1,0.1c-0.1,0.1-0.2,0.2-0.2,0.2l0,0c-0.8,0.6-2.2,1.3-2.7,1C803.8,374.2,804.9,373.2,805.2,372.9
	C805.1,373,805.2,373,805.2,372.9"/>
<path id="패스_25152" class="st11" d="M805.1,373c-0.3,0.3-1.3,1.3-0.9,1.5c0.5,0.2,1.9-0.4,2.7-1c-0.5,0.4-1.3,0.6-1.9,0.4
	c-0.5-0.2,0-0.7,0.2-1l0,0C805.2,373,805.1,373,805.1,373"/>
<path id="패스_25153" class="st11" d="M805.2,372.9c-0.3,0.3-0.7,0.8-0.2,1c0.7,0.2,1.4,0,1.9-0.4c0,0,0,0,0.1,0
	c0.1-0.1,0.2-0.1,0.2-0.2l0.1-0.1l0.1-0.1c0-0.1-0.1-0.3-0.2-0.4c-0.1-0.2-0.2-0.3-0.2-0.5c-0.2,0-0.4,0.1-0.7,0.1
	c-0.1,0.1-0.1,0.1-0.2,0.2C805.8,372.5,805.5,372.7,805.2,372.9"/>
<path id="패스_25154" class="st8" d="M828.7,373c0,0.5,6,0.5,6,0.1c0.2-1.5-1.7-1.4-2.9-1.6c0.6,0.1,0.5,0.5,0,0.6
	c-1,0.2-2,0-2.9-0.5C828.8,372,828.7,372.5,828.7,373"/>
<path id="패스_25155" class="st11" d="M829.1,370.6c-0.1,0.3-0.2,0.9-0.2,1c0.9,0.6,1.9,0.7,2.9,0.5c0.5-0.2,0.1-0.4-0.2-0.6
	c-0.5-0.1-0.9-0.2-1.3-0.4c-0.2-0.1-0.3-0.2-0.4-0.4C829.7,370.7,829.4,370.6,829.1,370.6L829.1,370.6"/>
<path id="패스_25156" class="st11" d="M831.7,371.5L831.7,371.5c0.2,0.2,0.6,0.5,0.1,0.6C832.3,372,832.4,371.6,831.7,371.5
	L831.7,371.5"/>
<path id="패스_25157" class="st13" d="M836,300c-0.5-3.3-1.8-6.4-3.8-9.1l0,0c-1.2,0.8-3.1,0.9-5.2,0.6c-3.1-0.5-6.1-1.5-8.9-2.9
	c-0.9-0.4-1.8-0.9-2.6-1.5c-3.4,2.2-6.2,5.3-7.9,9c-4,8-1.6,67.2-1.9,76c0,0.2,2.4,0,2.4,0l13.3-66.7l7.3,64.7
	c0,0.2,0.2,0.4,0.5,0.5h0.1l0.7,0.1c0.2,0,0.3,0,0.5,0.1c0.3,0,0.7-0.2,0.7-0.5c0,0,0,0,0-0.1C831.3,359.4,837.2,308.5,836,300"/>
<path id="패스_25158" class="st11" d="M809.5,291.1c0,0,1.9-1.8,2.6-1.3s2,1.2,1.8,1.6c-0.1,0.4-1-0.2-1-0.2
	c0.1,0.3,0.3,0.7,0.3,1.1c0,0.2-0.5,0-0.5,0c0.1,0.2,0,0.4-0.1,0.5c-0.2,0.2-0.6-0.5-0.9-0.6c-0.4-0.2-1.8,0.4-2.5,0.2
	C808.9,292.2,809,291.6,809.5,291.1"/>
<path id="패스_25159" class="st14" d="M836,300c-0.5-3.3-1.8-6.4-3.8-9.1l0,0c-1.2,0.8-3.1,0.9-5.2,0.6c-3.1-0.4-3.2-0.4-5.5-1.5
	c-1.5-0.7-15.2,82.2-14.6,82.2c0.6,0,1.2-0.1,1.2-0.1l13.3-66.7l7.3,64.7c0,0.2,0.2,0.4,0.5,0.5h0.1l0.7,0.1c0.2,0,0.3,0,0.5,0.1
	c0.3,0,0.7-0.2,0.7-0.5c0,0,0,0,0-0.1C831.3,359.4,837.2,308.5,836,300"/>
<path id="패스_25160" class="st7" d="M840.8,275c-1.1-0.5-2.3-1-3.5-1.6c-0.2,0.2-0.4,0.5-0.6,0.6c-1,0.7-1.4-0.3-1.3-0.9
	c0.1-0.2,0.1-0.3,0.2-0.5c-1.7-0.7-3.5-1.1-5.3-1.3c-1.5-0.1-3.7-1-5.1,1.1c-3.2,4.5-9,13.4-9.6,14.6c0.7,0.7,1.5,1.4,2.4,2
	c2.8,2.1,5.9,2.7,9,3c1.9,0.3,3.9,0.1,5.8-0.5c2.3-1.8,4.3-3.9,6.2-6.2c0.8-1.1,3.1-4.2,3.7-7C843,277.1,842.2,275.5,840.8,275"/>
<path id="패스_25161" class="st11" d="M838.3,271.8c-0.2,0.1-0.9-1.3-0.9-1.5c0-0.1-0.7,0.8-1,1.2c-0.4,0.5-0.7,1-1,1.4
	c-0.1,0.1-0.2,0.3-0.2,0.5c-0.1,0.6,0.3,1.6,1.3,0.9c0.2-0.2,0.5-0.4,0.6-0.6c0.2-0.3,0.4-0.6,0.7-1
	C837.7,272.8,838.5,271.6,838.3,271.8"/>
<path id="패스_25162" class="st15" d="M837.9,272.5L837.9,272.5L837.9,272.5L837.9,272.5"/>
<path id="패스_25163" class="st26" d="M854.5,280.4l-10.4-1.9c0,0,10.2,8.4,13,6.5c0.9-0.6,6.2-8.1,8-13.1
	c0.4-1.2-0.5-2.5-1.7-3.2c-0.1,0.1-0.3,0.2-0.4,0.2l-1,0.1c0,0,0-0.3,0-0.8c-0.2,0-0.4,0.1-0.6,0.2
	C860,270.2,854.5,280.4,854.5,280.4"/>
<path id="패스_25164" class="st16" d="M847.6,267.3c-0.2,0.1-0.2,0.7-0.1,1c0.1,0.3,0.4,0.7,0.6,0.7c0.2,0,0.3-0.1,0.4-0.2
	c-0.3-0.2-0.5-0.5-0.6-0.9c0-0.3,0-0.5,0.1-0.8C848,267.2,847.8,267.2,847.6,267.3"/>
<path id="패스_25165" class="st6" d="M854.2,267.6c-0.2-0.3-0.4-0.6-0.5-1s-0.1-0.7,0-1.1l-5.4,1.5l-0.1,0.1
	c-0.1,0.2-0.1,0.5-0.1,0.8c0,0.4,0.2,0.7,0.6,0.9c0,0,0,0,0.1,0L854.2,267.6L854.2,267.6"/>
<path id="패스_25166" class="st16" d="M856.9,265.8c-0.2-0.5-0.3-0.9-0.3-1.4l-2.6,0.8c-0.1,0-0.2,0.1-0.2,0.1
	c-0.1,0.1-0.1,0.1-0.1,0.2c-0.1,0.3-0.1,0.7,0,1.1s0.3,0.7,0.5,1c0,0,0,0,0.1,0.1c0.2,0.1,0.4,0.2,0.6,0.1c0.5-0.1,1.7-0.4,2.8-0.6
	C857.3,266.8,857.1,266.3,856.9,265.8"/>
<path id="패스_25167" class="st6" d="M865.4,266.3c-0.3,0.1-0.5,0.2-0.7,0.4l5.6-1.1c-0.2,0-0.3-0.1-0.5-0.2
	c-1.1-0.6-1.8-1.7-1.9-2.9c-0.2-0.8-0.1-1.7,0.1-2.5c0-0.1,0.1-0.2,0.1-0.3l-10.7,3.3c-0.4,0.1-0.6,0.4-0.7,0.7
	c0,0.2-0.1,0.4-0.1,0.6c0,0.5,0.1,1,0.3,1.4c0.1,0.5,0.4,1,0.7,1.5c0.5,0.7,1,0.6,1,0.6l3.6-0.7c0.1-0.8,0.2-1.5,0.4-1.6
	c0.7-0.2,1.4-0.3,2-0.1c0.2-0.1,0.3-0.1,0.4,0c0.1,0,0.1,0.1,0.1,0.2C865.7,265.8,865.9,266.1,865.4,266.3"/>
<path id="패스_25168" class="st6" d="M862.6,265.6c-0.2,0.1-0.4,0.8-0.4,1.6l0.9-0.2l0,0c0.5-0.6,1-1.1,1.6-1.5
	C864,265.3,863.3,265.4,862.6,265.6"/>
<path id="패스_25169" class="st11" d="M863.1,267l-0.9,0.2c0,0.4-0.1,0.8-0.1,1.1h0.1h0.2c0.4,0.1,0.8,0.2,1.1,0.4
	c0.9-0.5,0.6-1.2,0.9-1.8c-0.2,0.3-0.4,0.4-0.4,0.4L863.1,267L863.1,267z"/>
<path id="패스_25170" class="st7" d="M862.2,268.3L862.2,268.3c-0.1,0.4-0.1,0.8-0.1,0.8l1-0.1c0.2-0.1,0.3-0.1,0.4-0.2
	c-0.3-0.2-0.7-0.4-1.1-0.5L862.2,268.3L862.2,268.3z"/>
<path id="패스_25171" class="st11" d="M863.1,267l1,0.4c0,0,0.2-0.2,0.4-0.4l0,0c0.1-0.1,0.1-0.2,0.2-0.3l0,0L863.1,267z"/>
<path id="패스_25172" class="st11" d="M863.1,267l1.6-0.3c0.3-0.4,0.6-0.8,0.5-1.1c-0.2-0.1-0.4-0.1-0.5-0.2
	C864,265.9,863.5,266.4,863.1,267"/>
<path id="패스_25173" class="st11" d="M864.4,266.9c0.1-0.1,0.1-0.2,0.2-0.3C864.6,266.8,864.5,266.8,864.4,266.9"/>
<path id="패스_25174" class="st11" d="M865.1,265.4c-0.1-0.1-0.3-0.1-0.4,0c0.2,0,0.4,0.1,0.5,0.2
	C865.2,265.5,865.1,265.5,865.1,265.4"/>
<path id="패스_25175" class="st6" d="M865.2,265.6c0,0.4-0.2,0.8-0.5,1.1c0.2-0.2,0.5-0.3,0.7-0.4
	C865.9,266.1,865.7,265.8,865.2,265.6"/>
<path id="패스_25176" class="st16" d="M891.4,261.3c-0.7-1.2-1.2-2.5-1.5-3.9c-0.3-1.3-0.3-2.7-0.2-4l-20.3,5.4
	c-0.5,0.1-1,0.5-1.3,1c0,0.1-0.1,0.2-0.1,0.3c-0.2,0.8-0.2,1.6-0.1,2.5c0.1,1.2,0.8,2.3,1.9,2.9c0.2,0.1,0.3,0.1,0.5,0.2l0,0
	c0.3,0.1,0.5,0.1,0.8,0l20.5-4.1C891.5,261.4,891.5,261.3,891.4,261.3"/>
<path id="패스_25177" class="st6" d="M889.9,252.9c-0.1,0-0.2,0.1-0.2,0.2c0,0.1,0,0.1,0,0.2l0.7-0.2l1.9,8.2l-0.7,0.1
	c0.2,0.1,0.4,0.2,0.6,0.2l4.8-0.6c-0.5,0.1-1.2-1.3-1.8-3.4c-0.1-0.2-0.1-0.4-0.2-0.6c0-0.1-0.1-0.3-0.1-0.5c0,0,0,0,0-0.1
	s0-0.2-0.1-0.3c0-0.1,0-0.2-0.1-0.3c0-0.1,0-0.2-0.1-0.3c0-0.1,0-0.1,0-0.2c0-0.2-0.1-0.4-0.1-0.6c-0.3-1.8-0.2-3.1,0.2-3.2
	L889.9,252.9z"/>
<path id="패스_25178" class="st6" d="M890.4,253.2l-0.7,0.2c-0.1,1.3-0.1,2.7,0.2,4c0.3,1.4,0.9,2.7,1.5,3.9
	c0,0.1,0.1,0.1,0.2,0.2l0.7-0.1L890.4,253.2z"/>
<path id="패스_25179" class="st8" d="M894.6,253.3c-0.1,0-0.1,0.6,0,1.4c0,0.2,0.1,0.4,0.1,0.6c0,0.1,0,0.1,0,0.2
	c0,0.1,0,0.2,0.1,0.3c0,0.1,0.1,0.2,0.1,0.3s0,0.2,0.1,0.3c0,0,0,0,0,0.1c0,0.2,0.1,0.3,0.1,0.5c0.1,0.2,0.1,0.4,0.2,0.6
	c0.3,1.1,0.7,1.8,0.9,1.7s0.1-0.9-0.1-2.1c-0.1-0.5-0.3-1.1-0.4-1.8l0,0C895.2,254.2,894.8,253.3,894.6,253.3"/>
<path id="패스_25180" class="st13" d="M894.7,255.5c0-0.1,0-0.1,0-0.2C894.6,255.3,894.7,255.4,894.7,255.5"/>
<path id="패스_25181" class="st13" d="M894.8,256.2c0-0.1-0.1-0.2-0.1-0.3C894.8,255.9,894.8,256,894.8,256.2"/>
<path id="패스_25182" class="st13" d="M895,257c0-0.1-0.1-0.3-0.1-0.5C894.9,256.6,895,256.8,895,257"/>
<path id="패스_25183" class="st13" d="M895.7,256.2c-0.1-0.3-0.1-0.5-0.2-0.7c0.1,0.7,0.3,1.3,0.4,1.8
	C895.9,256.9,895.8,256.6,895.7,256.2"/>
<path id="패스_25184" class="st5" d="M896.8,256c-0.6-2.6-1.6-4.6-2.1-4.5c-0.4,0.1-0.5,1.4-0.2,3.2c-0.1-0.8-0.1-1.3,0-1.4
	c0.2,0,0.6,0.9,1,2.2l0,0c0.1,0.2,0.1,0.5,0.2,0.7c0.1,0.4,0.2,0.7,0.2,1c0.2,1.2,0.3,2,0.1,2.1c-0.2,0-0.5-0.7-0.9-1.7
	c0.6,2.1,1.4,3.5,1.8,3.4C897.6,260.9,897.5,258.6,896.8,256"/>
<path id="패스_25185" class="st26" d="M841.6,275.5c4.1,2.2,8.4,3.8,12.9,4.9l0.5,4.8c0,0-7.4-1.3-12.9-5.4
	c-1.3-0.9-2.5-2-3.5-3.3C838.6,276.4,841.1,275.2,841.6,275.5"/>
<path id="패스_25186" class="st7" d="M832.4,271.8c-2.6-0.9-5.3-1.6-8-1.9c-5-0.3-13.2,0.5-16.4,3.5c-3.8,3.4-5.5,15.6-0.7,18.9
	c1.8,1.2,3.6-2.6,3.6-2.6l1.7-13l13.9-2.7L832.4,271.8z"/>
<path id="패스_25187" class="st15" d="M837.6,272.2c-0.3-0.4-0.5-0.9-0.6-1.4c-0.1,0.2-0.3,0.4-0.4,0.6l-0.5,0.7
	c-0.1,0.1-0.1,0.3,0.1,0.4c0.5,0.3,1,0.5,1.5,0.5c0,0,0-0.1,0.2-0.3c0,0,0-0.1,0.1-0.1C837.8,272.4,837.7,272.3,837.6,272.2"/>
<path id="패스_25188" class="st11" d="M842.3,270.8c0.1-0.9,0-1.8-0.2-2.6c-0.1-0.8-0.9-1.4-1.8-1.3l0,0c-1.1,0.1-2.2,0.4-3.2,0.9
	c-0.6,0.5-0.5,1.4-0.4,2.1c0,0.3,0.1,0.7,0.2,1l0,0c0.1,0.5,0.3,0.9,0.6,1.3c0.1,0.1,0.2,0.2,0.4,0.3l0,0c0.5,0.3,1.2,0.5,1.8,0.4
	C841.6,272.6,842.1,272.1,842.3,270.8"/>
<path id="패스_25189" class="st26" d="M840.8,275c-1.1-0.5-2.3-1-3.5-1.6c-0.2,0.2-0.4,0.5-0.6,0.6c-0.5,0.3-2.2,5.5-6,9.5
	c-2.8,2.8-6,5.3-9.5,7.3c0,0,0.3,0.1,0.4,0.2c1.8,0.6,3.6,1,5.4,1.1c1.9,0.3,3.9,0.1,5.8-0.5c2.3-1.8,4.3-3.9,6.2-6.2
	c0.8-1.1,3.1-4.2,3.7-7C843,277.1,842.2,275.5,840.8,275"/>
<path id="패스_25190" class="st16" d="M1012.3,442.8c0,0-0.5-6.7-7.4-6.3c-3.1,0.2-2.9,2.6-5.5,1.8c-2.6-0.8-0.9,0.5-2.7,1.9
	s-7.7-2.5-9.6-0.4c-1.9,2.1-1.4,3.5-1.3,5.9s-4.5-1.3-6.1,2.1s-2.7,12.8,10.3,18.4c8.8,3.8,22.4-10.1,24-14
	C1015.4,449.1,1017.9,440.2,1012.3,442.8"/>
<path id="패스_25191" class="st27" d="M1012.3,442.8c-0.3-1.8-1.2-3.5-2.6-4.7c-1.4-1.1-3.3-1.5-5-1.3c-0.9,0.1-1.7,0.5-2.3,1
	c-0.4,0.3-0.8,0.6-1.3,0.8c-0.5,0.2-1.1,0.2-1.6,0c-0.3-0.1-0.5-0.1-0.7-0.2s-0.4-0.1-0.6-0.1h-0.1c0,0,0,0,0,0.1
	c0,0.2-0.1,0.4-0.2,0.7c-0.2,0.5-0.5,1-0.9,1.3c-0.5,0.3-1,0.5-1.6,0.4c-1-0.1-1.9-0.3-2.8-0.6c-0.9-0.3-1.8-0.5-2.7-0.7
	c-0.8-0.2-1.6-0.2-2.4,0.2c-0.1,0.1-0.1,0.1-0.2,0.2l-0.2,0.2c-0.1,0.2-0.3,0.3-0.4,0.5c-0.2,0.3-0.4,0.7-0.6,1.1
	c-0.2,0.9-0.3,1.8-0.2,2.7v0.7c0,0.3,0,0.5,0,0.8c-0.1,0.3-0.3,0.6-0.6,0.7s-0.5,0.1-0.8,0c-0.9-0.2-1.8-0.3-2.7-0.4
	c-0.9,0-1.8,0.6-2.2,1.4c0.2-0.4,0.4-0.8,0.8-1.1c0.4-0.3,0.8-0.5,1.3-0.5c0.9,0,1.9,0,2.8,0.2c0.5,0,0.8,0,0.9-0.4
	c0-0.2,0-0.4,0-0.6v-0.7c-0.1-1-0.1-1.9,0.1-2.9c0.1-0.5,0.3-0.9,0.6-1.4c0.1-0.2,0.3-0.4,0.4-0.6l0.2-0.3c0.1-0.1,0.2-0.2,0.3-0.3
	c0.2-0.2,0.5-0.3,0.7-0.4c0.3-0.1,0.5-0.1,0.8-0.1c0.5,0,1,0,1.5,0.1c0.9,0.2,1.8,0.4,2.7,0.7c0.9,0.3,1.7,0.4,2.6,0.5
	c0.4,0,0.7,0,1-0.2s0.6-0.6,0.7-0.9c0.1-0.2,0.1-0.4,0.2-0.6c0.1-0.4,0.5-0.7,0.9-0.7c0.5,0,1,0.2,1.5,0.3c0.4,0.1,0.8,0.1,1.1,0
	c0.4-0.2,0.7-0.4,1.1-0.7c0.8-0.7,1.7-1,2.7-1.1c1.9-0.2,3.9,0.4,5.4,1.6C1011.4,439.1,1012.2,440.9,1012.3,442.8"/>
<path id="패스_25192" class="st8" d="M992.2,562.9c-0.3-0.6-1.8-1.1-3-1.4c0.4,0.2,0.7,0.5,0.2,0.7c-1.1,0.1-2.3-0.2-3.2-0.9
	c-0.2,0.5-0.2,1-0.2,1.5S992.7,563.9,992.2,562.9"/>
<path id="패스_25193" class="st8" d="M958.7,567.4c-0.1-0.6,2.3-2.3,3.2-2.5c-0.3,0.2-0.7,0.6-0.3,0.8c0.8,0.3,1.6,0.1,2.2-0.5
	c0.1,0.5,0.1,1,0,1.6C963.6,567.3,959,568.9,958.7,567.4"/>
<path id="패스_25194" class="st11" d="M989.9,561.7c-0.7-0.4-2.6-0.8-2.7-0.9c1.2-3.2,8.9-35.2,9.6-42.4
	c1.2-12.5-0.1-44.5-1.3-47.5c-3.2-1.4-11.3-0.2-16.6-0.8c-0.1,0.2-6.5,5-10.1,11c-5.6,9.3-5.3,72.3-5.9,83.3
	c-0.4,0.1-0.8,0.3-1.2,0.5c-0.3,0.2-1.3,0.9-0.9,1.2c0.5,0.3,2.5-0.3,2.9-0.9c0-0.1,0-0.3-0.1-0.4c0-0.1,19.1-69.9,19.1-69.9
	l3.6,22.8c0,0-0.1,43.5-0.2,43.6c0.4,0.7,2.3,1,3.1,1C989.8,562.4,990.2,562.1,989.9,561.7"/>
<path id="패스_25195" class="st12" d="M979.6,469.7c0,0-6,2.2-11.8,11.8c-2,3.4-4.9,24.1-5.2,29.1h4.7l2.4-17.7l-0.3,17.7
	c0,0,20.3,2.3,29.6-1.2c0,0,3.3-18.4-3.5-43L979.6,469.7z"/>
<path id="패스_25196" class="st8" d="M982.9,511.3c0,0,0.7,0,1.1,0c5.4,0,11.1-0.5,15-2c0,0,3.3-18.4-3.5-43l-6.6,1.4l-1.8,0.1
	c0,0,5.1,9,3.1,18.5C988.2,494.8,985.8,503.2,982.9,511.3"/>
<path id="패스_25197" class="st7" d="M995.2,449c2.7,0.7,8.5,4.6,9.1,5c2.5,1.6,4,1.6,3.3,5.8c-0.6,2.4-1.6,4.6-3.1,6.6
	c-2.6,3.7-5.5,7.2-8.6,10.6c-3.6,0.1-7.1-0.6-10.3-2.1c-5.6-2.9-6.1-5.1-6.1-5.1s1.4-6.7,8-17.5C988,451.5,992,448.1,995.2,449"/>
<path id="패스_25198" class="st28" d="M1012.3,475.1c0,0,8.3,9.4,12.3,10.8c0.7,0.2,1.5,0.4,2.2,0.4c2.4,0,5.7-2.3,2-6.4
	c-3.9-4.3-8.7-7.7-13.9-10.1C1014.9,469.7,1016,472.2,1012.3,475.1"/>
<path id="패스_25199" class="st28" d="M1006.7,455.4c-2.5-2.5-5.5,3.4,5.6,19.7c1.2,1.8,5.6-0.3,4-3
	C1012.2,465.2,1009.3,458,1006.7,455.4"/>
<rect id="사각형_6967" x="1022.9" y="478.7" transform="matrix(-0.8702 0.4928 -0.4928 -0.8702 2162.373 391.6968)" class="st13" width="13.3" height="4.1"/>
<path id="패스_25200" class="st13" d="M1004.8,497.5l-2.3-4c-0.5-0.9-0.2-2.1,0.7-2.6l16.7-9.4c2-1.2,4.6-0.5,5.8,1.5
	s0.5,4.6-1.5,5.8c0,0-0.1,0-0.1,0.1l-16.7,9.4C1006.4,498.7,1005.3,498.4,1004.8,497.5"/>
<path id="패스_25201" class="st9" d="M1009.1,497.2l-4.1-7.3l14.9-8.5c2-1.1,4.6-0.4,5.7,1.6s0.4,4.6-1.6,5.7L1009.1,497.2z"/>
<path id="패스_25202" class="st29" d="M1074.5,462.8c1.3,9.4-6.2,19.8-16.8,23.3c-4.7,1.7-9.9,1.5-14.5-0.6
	c-4.1-1.9-6.9-5.8-7.5-10.3v-0.1c-1.3-9.4,6.2-19.8,16.8-23.3c10.7-3.5,20.6,1.4,22,10.8V462.8z M1078.8,461.4c0-0.1,0-0.1,0-0.1
	c-1.7-11.5-13.8-17.5-26.9-13.2c-13,4.2-22.2,16.9-20.6,28.4c0,0.1,0,0.1,0,0.1c1.7,11.5,13.8,17.5,26.9,13.2
	C1071.2,485.7,1080.4,472.9,1078.8,461.4"/>
<path id="패스_25203" class="st9" d="M1073.1,461c1.3,9.4-6.2,19.8-16.8,23.3c-4.7,1.7-9.9,1.5-14.5-0.6
	c-4.1-1.9-6.9-5.8-7.5-10.3v-0.1c-1.3-9.4,6.2-19.8,16.8-23.3c10.7-3.5,20.6,1.4,22,10.8V461z M1077.4,459.6c0-0.1,0-0.1,0-0.1
	c-1.7-11.5-13.8-17.5-26.9-13.2c-13,4.2-22.2,16.9-20.6,28.4c0,0.1,0,0.1,0,0.1c1.7,11.5,13.8,17.5,26.9,13.2
	C1069.9,483.8,1079.1,471.1,1077.4,459.6"/>
<g id="그룹_15544" transform="translate(740.351 310.763)" class="st30">
	<g id="그룹_15543">
		<g>
			<g>
				<g>
					<g>
						<defs>
							<rect id="SVGID_1_" x="292.4" y="137.3" width="41.3" height="38.5"/>
						</defs>
						<clipPath id="SVGID_2_">
							<use xlink:href="#SVGID_1_"  style="overflow:visible;"/>
						</clipPath>
						<g id="그룹_15542" class="st31">
							<path id="패스_25204" class="st4" d="M315.8,174.6c-11.3,3.7-21.7-1.5-23.2-11.4c-1.5-10,6.4-21,17.7-24.7
								c11.3-3.7,21.7,1.5,23.2,11.4S327.1,171,315.8,174.6"/>
						</g>
					</g>
				</g>
			</g>
		</g>
	</g>
</g>
<path id="패스_25205" class="st11" d="M1027.5,484.6c0.1,0,0.1,0,0.2,0c0.5-0.2,2.8-1.1,2.8-2c0-1.4-1.6-2.3-2-2.1
	c-0.4,0.2,0.2,1,0.2,1s0.1-0.2-0.4-0.1s0,1,0,1.5S1026.8,484.5,1027.5,484.6"/>
<path id="패스_25206" class="st11" d="M1011.7,489.4c0,0,0.4-0.1,0.8-0.3c0.4-0.2,0.9-0.4,0.7-0.5c-0.3-0.1-0.7-0.1-1,0
	c-0.9,0.1-2,0.5-1.2,0.8C1011.1,489.5,1011.4,489.5,1011.7,489.4"/>
<path id="패스_25207" class="st11" d="M1009.8,489.2c0.1-0.1,0.2-0.2,0.4-0.2c0.8,0,1.5,0,2.3,0.1c0.7,0.2,2.3,1.4,2.3,1.8
	s-0.9,0-0.9,0s1,0.4,0.9,0.9s-1.7-0.1-1.7-0.1s0.4,0.7,0,0.6c-0.6-0.2-1.1-0.4-1.6-0.6c-0.3-0.1-0.6-0.3-0.9-0.5
	c-0.4-0.4-0.9-0.8-1.2-1.3C1009.5,489.7,1009.7,489.4,1009.8,489.2"/>
<path id="패스_25208" class="st28" d="M990,476.4c0,0,11-11.3,12.6-19c0.3-1.3-0.2-3.7,0.6-4.2s4,2.3,4.3,3.1s0.3,5.9-3.5,10.8
	s-7.4,10.4-7.4,10.4S990.2,476.8,990,476.4"/>
<path id="패스_25209" class="st4" d="M991.4,450.1c-1.5,1.2-3,5.4-2.2,10.8c0.7,4.8,2.4,14.1,7,17.7c3.4,2.6,2-6.6,2-6.6l-3.2-12
	C995,460,993,448.8,991.4,450.1"/>
<path id="패스_25210" class="st4" d="M992.9,471.9c-1.1,4.2,9.2,20,15.5,18.5c2.4-0.5,2.7-2.1,2.7-2.1l-13.2-17.5
	C997.8,470.8,994.2,467.2,992.9,471.9"/>
<path id="패스_25211" class="st11" d="M1006.9,449.2c0,0-3.9,3.1-4.1,3.7s-0.1,1.8,1.2,1.3s3.9-3.9,3.9-3.9L1006.9,449.2z"/>
<path id="패스_25212" class="st15" d="M1007.4,448.7c0,0-3.9,3.1-4.1,3.7c-0.2,0.6,0.1,1.8,1.3,1.3c1.3-0.5,3.8-4,3.8-4
	L1007.4,448.7z"/>
<path id="패스_25213" class="st11" d="M1011.4,448.3c-0.3-2.2-4.2-3.5-5-3.4c-0.9,0.1-1.5,1.1-1.9,1.9c-0.4,0.7-1.5,4.2,0.7,5.9
	C1009.3,455.7,1011.4,448.3,1011.4,448.3"/>
<path id="패스_25214" class="st16" d="M1000.2,447.9c0,0,6,2.5,10.1-1.4c0,0-0.9,3.7,1.7,6c0,0,3-4.4-0.4-8.1
	C1008.3,440.6,1000.3,445.5,1000.2,447.9"/>
<path id="패스_25215" class="st4" d="M1231.9,367.2c5.5,2,9,7.4,8.5,13.2c0,0.1,0,0.1,0,0.2c-0.1,0.7,1,0.8,1.2,0.2
	c0-0.1,0-0.1,0-0.2c2.2-9.2,2.5-22,12.1-26.9c4.3-2.5,9.8-1.5,13.1,2.2c3.7,4.3,4.2,10.2,4.5,15.6c0,0.3,0.3,0.6,0.6,0.6
	c0.2,0,0.4-0.1,0.5-0.3l0.2-0.3c1.7-2.5,5.6-2.1,7.7-0.2c2.5,2.3,3,6.2,3.2,9.4c0,0.3,0.3,0.6,0.6,0.6c4.6-0.4,8.6,3,9,7.5
	c0,0.2,0,0.5,0,0.7c0,0.1,0,0.2,0.1,0.3c-8.2-0.4-16.4-0.1-24.6-0.1h-26.2c-17.5,0-35,0-52.4,0c-9.7,0-19.4-0.4-29.1,0.2
	c-2.4-6.8,4.5-13.2,11-9.5c0.3,0.2,0.6,0.1,0.8-0.2c0.1-0.1,0.1-0.3,0.1-0.4s-0.1-0.3-0.1-0.4c-3.8-11.4-2.3-23.9,4-34.1
	c3-4.8,7.9-9.8,14-9.5c5.8,0.3,10,5.5,11.9,10.6c2.7,7.2,1.4,15.3,2.4,22.8c0,0.3,0.3,0.6,0.6,0.6c0.3,0,0.6-0.3,0.6-0.6
	c0.1-2.8,3.2-4.6,5.8-3.9c2.7,0.8,4.1,3.7,4.4,6.3c0,0.1,0,0.2,0,0.3c0,0.3,0.3,0.6,0.6,0.6c0.2,0,0.4-0.1,0.5-0.3
	C1220.5,367.6,1226.4,365.5,1231.9,367.2"/>
<path id="패스_25216" class="st4" d="M1293.1,389.9c0.3,0,0.7,0,1,0C1293.9,390.2,1293.5,390.3,1293.1,389.9
	C1293.2,390,1293.2,390,1293.1,389.9"/>
<path id="패스_25217" class="st4" d="M1284.6,380.1v0.6c-0.2-0.2-0.4-0.4-0.6-0.6C1284.2,380.1,1284.4,380.1,1284.6,380.1"/>
<path id="패스_25218" class="st4" d="M1284.6,380.1c5.3-0.1,9.6,4.1,9.7,9.4v0.1c0,0.1,0,0.3-0.1,0.4c-0.3,0-0.7,0-1,0
	c-0.1-0.1-0.1-0.2-0.1-0.3c0-4.6-3.7-8.3-8.3-8.3c-0.2,0-0.5,0-0.7,0c-0.3,0-0.6-0.3-0.6-0.6c-0.2-3.2-0.6-7.1-3.2-9.4
	c-2.1-1.9-5.9-2.3-7.7,0.2l-0.1-0.1c0-0.5-0.1-1-0.1-1.5c2-1.8,5.1-1.7,7.5-0.4C1283.5,371.6,1284.3,376.2,1284.6,380.1
	c-0.2,0-0.4,0-0.5,0c0.2,0.2,0.4,0.4,0.6,0.6L1284.6,380.1"/>
<path id="패스_25219" class="st4" d="M1272.5,371.4c-0.4-0.1-0.7-0.2-1.1-0.3c0.3-0.5,0.6-0.9,1-1.2
	C1272.4,370.4,1272.5,370.9,1272.5,371.4"/>
<path id="패스_25220" class="st4" d="M1271.3,371.4c-0.4-5.4-0.8-11.3-4.5-15.6c-3.3-3.8-8.7-4.7-13.1-2.2
	c-9.6,5-9.8,17.7-12.1,26.9l0,0c0.1-1.5,0-2.9-0.3-4.4c1.9-9.6,3.6-21.2,14-24.5c4.6-1.5,9.7,0,12.6,3.8c3.3,4.1,4,9.4,4.4,14.5
	c-0.4,0.4-0.7,0.8-1,1.2c0.4,0.1,0.7,0.2,1.1,0.3l0.1,0.1c-0.1,0.1-0.1,0.2-0.2,0.2c-0.2,0.3-0.6,0.4-0.8,0.2
	C1271.4,371.8,1271.3,371.6,1271.3,371.4"/>
<path id="패스_25221" class="st4" d="M1241.3,376.2c0.3,1.4,0.4,2.9,0.3,4.4c-0.4-0.1-0.8-0.1-1.2-0.2
	C1240.7,379.1,1241,377.6,1241.3,376.2"/>
<path id="패스_25222" class="st4" d="M1241.6,380.6L1241.6,380.6c0,0.1,0,0.1,0,0.2c-0.2,0.7-1.3,0.5-1.2-0.2c0-0.1,0-0.1,0-0.2
	l0,0C1240.8,380.4,1241.2,380.5,1241.6,380.6"/>
<path id="패스_25223" class="st4" d="M1217.5,372.1c-0.4-0.1-0.8-0.2-1.1-0.3c0.3-0.4,0.6-0.8,0.9-1.2
	C1217.4,371,1217.4,371.5,1217.5,372.1"/>
<path id="패스_25224" class="st4" d="M1231.9,367.2c-5.5-1.6-11.4,0.5-14.5,5.2c-0.2,0.3-0.6,0.4-0.8,0.2
	c-0.2-0.1-0.3-0.3-0.3-0.5c0-0.1,0-0.2,0-0.3h0.1c0.4,0.1,0.8,0.2,1.1,0.3c0-0.5-0.1-1-0.2-1.5c4.6-5.9,13.2-7,19.1-2.4
	c2.6,2,4.3,4.8,5,8c-0.3,1.5-0.6,2.9-0.9,4.2l0,0C1240.9,374.6,1237.4,369.1,1231.9,367.2"/>
<path id="패스_25225" class="st4" d="M1211.2,364.1c3.3,0.4,5.3,3.4,6,6.4c-0.3,0.4-0.6,0.8-0.9,1.2h-0.1
	c-0.2-2.6-1.7-5.5-4.4-6.3c-2.6-0.8-5.7,1-5.8,3.9c0,0.3-0.3,0.6-0.6,0.6c-0.3,0-0.6-0.3-0.6-0.6c0.4,0,0.8-0.1,1.1-0.2
	c-0.1-0.8-0.2-1.7-0.3-2.5C1207,364.8,1209.1,363.9,1211.2,364.1"/>
<path id="패스_25226" class="st4" d="M1205.7,366.6c0.1,0.8,0.2,1.7,0.3,2.5c-0.4,0.1-0.8,0.1-1.1,0.2
	C1204.9,368.3,1205.2,367.4,1205.7,366.6"/>
<path id="패스_25227" class="st4" d="M1172.4,379.5c-0.3,0.2-0.6,0.4-0.8,0.6c-0.1-0.4-0.3-0.8-0.4-1.2
	C1171.5,379.1,1172,379.3,1172.4,379.5"/>
<path id="패스_25228" class="st4" d="M1203.5,346.2c2.4,6.5,1.6,13.6,2.2,20.4c-0.5,0.8-0.9,1.7-0.9,2.7c-1-7.5,0.2-15.6-2.4-22.8
	c-1.9-5.1-6-10.3-11.9-10.6c-6.1-0.3-11,4.7-14,9.5c-6.3,10.2-7.8,22.7-4,34.1h-0.1c-0.4-0.2-0.8-0.4-1.3-0.6
	c-2.1-6.6-2.5-13.6-1.1-20.3c1.2-6.3,3.9-12.3,8-17.2c3.6-4.2,9-7.7,14.8-6.3C1198.1,336.4,1201.7,341.3,1203.5,346.2"/>
<path id="패스_25229" class="st4" d="M1160.8,390c0.2,0.5-0.6,0.7-0.8,0.2v-0.1c0.1-0.1,0.1-0.1,0.2-0.1
	C1160.4,390,1160.6,390,1160.8,390L1160.8,390"/>
<path id="패스_25230" class="st4" d="M1172.6,379.9c0.1,0.3-0.1,0.6-0.4,0.7c-0.1,0-0.3,0-0.4-0.1c-6.4-3.7-13.4,2.7-11,9.5
	c-0.2,0-0.4,0-0.6,0c-0.1,0-0.2,0-0.2,0.1c-2.9-7.2,4.3-13.7,11.1-11.2c0.1,0.4,0.3,0.8,0.4,1.2c0.3-0.2,0.6-0.4,0.8-0.6h0.1
	C1172.5,379.6,1172.6,379.7,1172.6,379.9"/>
<path id="패스_25231" class="st4" d="M1189.9,389.8c17.5,0,35,0,52.4,0h26.2c8.2,0,16.4-0.2,24.6,0.1c0.2,0.3,0.6,0.3,0.9,0.1
	c0,0,0.1,0,0.1-0.1c0.2,0,0.4,0,0.6,0s0.4,0.2,0.4,0.4c0,0.2-0.2,0.4-0.4,0.4c-9.8,0.5-19.8,0.2-29.6,0.2c-17.5,0-35,0-52.4,0
	c-8.7,0-17.5,0-26.2,0s-17.5,0.4-26.2-0.2c-0.2,0-0.3-0.2-0.3-0.4c0-0.1,0-0.2,0.1-0.2v0.1c0.2,0.5,0.9,0.3,0.8-0.2l0,0
	C1170.5,389.4,1180.2,389.9,1189.9,389.8"/>
<path id="패스_25232" class="st4" d="M1062.3,263.6c0,0.3,0.2,0.6,0.6,0.7h0.1v0.6c-16.2-0.6-32.4-0.4-48.6-0.3
	c-8.1,0-16.3,0-24.4,0c-4.1,0-8.1,0-12.2,0.1c-3.2,0-6.6-0.2-9.8,0.2v-0.2c0.2,0,0.4-0.1,0.4-0.3l0,0c0-4.8,2.2-9.6,6.7-11.8
	c4.4-2.1,9.7-1.4,13.3,1.9c0.1,0.1,0.2,0.2,0.3,0.3c0.3,0.2,0.7,0.2,0.9,0c0.1-0.1,0.2-0.3,0.2-0.4c1.5-13.8,8.1-29,22.6-33.2
	c6.7-1.9,14.7-0.8,20,4.1c4.9,4.4,6.8,11.3,4.9,17.7c-0.2,0.5,0.5,1.1,1,0.8c0.1-0.1,0.3-0.2,0.4-0.3c2.9-2,6.9-1.3,8.9,1.6
	c1,1.5,1.4,3.3,1,5c-0.1,0.4,0.1,0.7,0.5,0.8c0.1,0,0.1,0,0.2,0c0.2,0,0.4,0,0.6,0c6.8-0.1,12.4,5.4,12.4,12.2
	C1062.3,263.2,1062.3,263.4,1062.3,263.6"/>
<path id="패스_25233" class="st4" d="M1050,249.4c7.6,0,13.7,6.1,13.7,13.7c0,0.2,0,0.3,0,0.5c0,0.4-0.3,0.7-0.7,0.7l0,0
	c-0.3,0-0.6-0.2-0.7-0.6v-0.1c0.3-6.8-5-12.6-11.8-12.8c-0.2,0-0.4,0-0.6,0v-0.5C1050,250,1050,249.7,1050,249.4"/>
<path id="패스_25234" class="st4" d="M1049.3,249.4c0.3,0,0.5,0,0.8,0c0,0.3-0.1,0.6-0.1,0.9
	C1049.7,250,1049.5,249.7,1049.3,249.4"/>
<path id="패스_25235" class="st4" d="M1039.1,241.5c5.4-2.6,11.5,1.8,11,7.9c-0.3,0-0.5,0-0.8,0c0.2,0.3,0.4,0.6,0.6,0.9v0.5
	c-0.2,0-0.4,0-0.6,0c-0.4,0-0.7-0.3-0.7-0.7c0-0.1,0-0.1,0-0.2c0.8-3.4-1.4-6.8-4.9-7.6c-1.7-0.4-3.5,0-5,1l-0.1-0.1
	C1038.8,242.6,1039,242.1,1039.1,241.5"/>
<path id="패스_25236" class="st4" d="M1039.1,241.5c-0.1,0.5-0.3,1.1-0.4,1.6c-0.3-0.3-0.7-0.5-1-0.8
	C1038.1,242.1,1038.6,241.8,1039.1,241.5"/>
<path id="패스_25237" class="st4" d="M989.6,253.8c-0.4,0.2-0.7,0.3-1.1,0.5c0-0.4,0.1-0.8,0.1-1.3
	C989,253.2,989.3,253.5,989.6,253.8"/>
<path id="패스_25238" class="st4" d="M1023.4,219.3c10.2,2,17.9,11.9,15.7,22.2c-0.5,0.2-1,0.5-1.4,0.9c0.3,0.3,0.7,0.5,1,0.8
	l0.1,0.1c-0.1,0.1-0.3,0.2-0.4,0.3c-0.5,0.4-1.2-0.2-1-0.8c1.9-6.4,0-13.2-4.9-17.7c-5.3-4.8-13.2-6-20-4.1
	c-14.5,4.2-21.1,19.4-22.6,33.2c0,0.4-0.3,0.6-0.7,0.6c-0.2,0-0.3-0.1-0.4-0.2l-0.3-0.3l0.1-0.2c0.4-0.2,0.7-0.3,1.1-0.5
	c-0.3-0.3-0.6-0.6-1-0.8c0.6-6.9,2.8-13.7,6.3-19.7C1001,223.7,1011.9,217,1023.4,219.3"/>
<path id="패스_25239" class="st4" d="M988.7,253c-0.1,0.4-0.1,0.8-0.1,1.3l-0.1,0.2c-3.7-3.2-8.9-4-13.3-1.9
	c-4.5,2.2-6.7,7-6.7,11.8c0,0.2-0.2,0.3-0.4,0.3l0,0c-0.1,0-0.3-0.1-0.3-0.2c-0.6-5.4,2.2-10.6,7.1-13
	C979.4,249.3,984.7,249.9,988.7,253"/>
<path id="패스_25240" class="st4" d="M1014.4,264.6c16.2,0,32.4-0.3,48.6,0.3c0.1,0,0.2,0,0.2,0c0.1,0,0.2,0.1,0.2,0.2
	s-0.1,0.2-0.2,0.2c-16.2,0.6-32.5,0.4-48.8,0.4c-8.1,0-16.3,0-24.4,0c-4.1,0-8.1,0-12.2-0.1c-3.7,0-7.6,0.2-11.3-0.4c0,0,0,0,0-0.1
	l0,0c0.5-0.1,1-0.2,1.6-0.2c3.2-0.3,6.6-0.2,9.8-0.2c4.1,0,8.1,0,12.2-0.1C998.1,264.6,1006.2,264.6,1014.4,264.6"/>
<path id="패스_25246" class="st23" d="M834.9,233.5c0.5-4.7-2.9-8.9-7.6-9.4c-4.7-0.5-8.9,2.9-9.4,7.6c0,0.3-0.1,0.6,0,0.9
	c-0.2,3.3,1.4,6.4,4.2,8.2c0.1,0.2,0.1,0.4,0.2,0.6c0.1,0.8,0.4,1.6,0.7,2.3c0.7,1,1.9,1.6,3.1,1.6c0.1,0,0.2,0,0.2,0
	c0.1,0,0.3,0,0.4,0c1.1,0.1,2.1-0.4,2.8-1.3c0.1-0.2,0.2-0.5,0.2-0.7c0.1-0.1,0.2-0.3,0.2-0.5c0.3-0.7,0.5-1.3,0.6-2
	C833.2,239.2,834.8,236.5,834.9,233.5"/>
<path id="패스_25247" class="st32" d="M827.2,237c0.2-0.1,0.3-0.3,0.5-0.4c0.4-0.5,0.9-1.5,0.3-2.1c-0.6-0.6-1.1,0.1-1.2,0.6
	c-0.1,0.6-0.1,1.2-0.1,1.8c-0.2,0.1-0.4,0.1-0.6,0.2V237c-0.2-1-0.9-1.9-1.8-2.4c-0.7-0.3-0.9,0.4-0.9,0.9c0.2,1.1,1.3,1.9,2.4,1.9
	c0.1,0.2,0.1,0.5,0.1,0.7c0.4,2.4,0.3,4.8-0.2,7.1c0,0.1,0.2,0.1,0.2,0c0.8-2.6,0.8-5.3,0.2-7.9c0.2,0,0.3-0.1,0.5-0.1
	c0.1,0.8,0.2,1.6,0.3,2.4c0.2,1.8,0,3.6-0.4,5.3c0,0.1,0.1,0.2,0.2,0.2c0.1,0,0.1,0,0.2-0.1c0.8-1.9,0.6-4.2,0.4-6.2
	C827.3,238.2,827.2,237.6,827.2,237 M824.1,236.1c-0.2-0.2-0.3-0.5-0.3-0.8c0.1-0.6,0.6-0.4,1,0c0.5,0.5,0.8,1.1,1,1.8
	C825.1,237,824.4,236.7,824.1,236.1 M827.1,235.6c0-0.2,0-0.4,0-0.6c0.2,0.1,0.5,0.2,0.7,0.3c0.1,0.2-0.2,0.8-0.3,0.9
	c-0.1,0.1-0.2,0.3-0.4,0.4C827.1,236.2,827.1,235.9,827.1,235.6"/>
<path id="패스_25248" class="st7" d="M828.4,245.4c0-0.2-0.1-0.4-0.3-0.5c-0.1,0-0.2-0.1-0.3,0c-0.1,0-0.2,0-0.3,0
	c-0.5,0.1-0.9,0.1-1.4,0.1c-0.3-0.1-0.6-0.1-0.9-0.2c-0.2-0.1-0.5-0.2-0.7,0c-0.1,0.1-0.1,0.1-0.1,0.2c-0.1,0.1-0.1,0.3-0.1,0.5
	c0.1,0.2,0.2,0.3,0.4,0.4c-0.1,0.1-0.2,0.3-0.1,0.4c0.1,0.2,0.2,0.3,0.4,0.4c0.1,0.1,0.2,0.1,0.3,0.1c-0.1,1,2.8,0.8,2.6-0.1v-0.1
	c0.2-0.1,0.3-0.2,0.4-0.4c0.1-0.2,0.1-0.4-0.1-0.5C828.3,245.7,828.4,245.6,828.4,245.4"/>
<path id="패스_25249" class="st1" d="M566.2,417.1l7.7,9.4l45.6-8.9L566.2,417.1z"/>
<path id="패스_25250" class="st4" d="M573.4,426.1c0.6,0.5,0.8,14.6,0.8,14.6l2.4-11.7l42.7-11.2L573.4,426.1z"/>
<path id="패스_25251" class="st33" d="M591.6,434.7l-17.4,5.9l2.4-11.7l23.2,0.3L591.6,434.7z"/>
<path id="패스_25252" class="st1" d="M576.5,429c0.3,0.1,5.2,12.5,5.2,12.5l37.9-23.8L576.5,429z"/>
<path id="패스_25253" class="st4" d="M779.9,311.9c3.6,2.7,4.8,7.2,4.6,11.6c-14.1,0.6-28.2,0.8-42.3,0.7c0.1-4.2-2.9-7.8-7-8.5
	c2.7-7.5,7.4-15.2,15.9-16.5c9.6-1.4,17,7.5,15.4,16.6c-0.1,0.8,1.4,0.5,1.6-0.1C769.2,310.1,775.6,308.8,779.9,311.9"/>
<path id="패스_25254" class="st4" d="M784.4,323.5c0.3-4.3-0.9-8.9-4.6-11.6c-4.3-3.1-10.7-1.8-11.9,3.7c-0.1,0.7-1.7,0.9-1.6,0.1
	c1.6-9.1-5.8-18-15.4-16.6c-8.4,1.3-13.2,9-15.9,16.5c4.1,0.7,7.1,4.3,7,8.5C756.2,324.3,770.3,324.1,784.4,323.5 M777.2,309.3
	c6.5,1.4,9.2,8,8.9,14.1c0,0.2-0.2,0.4-0.4,0.5c0.1,0.3-0.3,0.8-0.8,0.8c-14.3,0.6-28.7,0.9-43,0.7c-10,0.4-20.1,0.2-30.1,0.2
	c-5,0-10,0-15,0c-2.5,0-5,0-7.5,0c-2.3,0.1-4.7,0-7-0.2v-0.1c0.3-0.1,0.6-0.1,1-0.1v-0.1c-0.1,0-0.2-0.1-0.2-0.1
	c-0.4-3.3,1.4-6.5,4.4-8c2.8-1.3,6.1-0.9,8.6,1c0.4-4.3,1.7-8.4,3.9-12.1c3.7-5.9,10.4-10,17.5-8.6c6.3,1.2,11.1,7.3,9.7,13.7
	c2.4-1.1,5.2-0.1,6.3,2.3c0.3,0.8,0.5,1.6,0.4,2.4c3-8.2,8.5-16.3,17.8-17.4c8.2-1,15.7,4.9,16.6,13.2c0,0.3,0.1,0.6,0.1,1
	C770.4,309.6,773.9,308.5,777.2,309.3"/>
<path id="패스_25255" class="st34" d="M1197.2,304.9c-0.9,6-5.4,9.9-10,9.6c-1,0-2-0.2-3-0.5c-4.6-1.6-4.5-6.6-3.7-11.8
	c0.9-5.7,1.8-10.9,8.2-9.9c0.3,0,1.5,0.2,1.8,0.3C1195.1,293.7,1198.2,298.8,1197.2,304.9"/>
<path id="패스_25256" class="st23" d="M1194.9,304.5c-0.9,6-5.4,10.4-10,9.6s-7.6-6.2-6.7-12.2s5.4-10.4,10-9.6
	C1192.8,293,1195.8,298.5,1194.9,304.5"/>
<path id="패스_25257" class="st17" d="M1191.7,300.8c0.3-2.2-1.3-4.2-3.5-4.5c-0.1,0-0.2,0-0.3,0c-1.7-0.1-4.3,0.3-5.3,1.8
	c-1.4,2.3,0.9,4.7,2.8,5.6c1.5,0.7,3.9,1.5,3.9,3.6c0,2.2-3.7,2.1-4.9,1.1c-1-0.8-1.4-2.1-1.1-3.4c0.1-0.3-1.9-0.4-2,0.2
	c-1,4.9,8.4,7.2,9.9,2.7c0.9-2.8-2.6-3.9-4.4-4.8c-1.5-0.8-2.9-2.4-2.5-4.2c0.4-2,3.1-2.3,4.4-0.9c0.7,0.9,1.1,2,0.9,3.1
	C1189.6,301.4,1191.6,301.4,1191.7,300.8"/>
<path id="패스_25258" class="st17" d="M1186,296.1c-0.8,5-1.5,9.9-2.3,14.9c0,0.3,0.9,0.2,0.9-0.2c0.8-4.9,1.5-9.9,2.3-14.8
	C1187,295.5,1186.1,295.6,1186,296.1"/>
<path id="패스_25259" class="st17" d="M1188.5,296.1l-2.3,14.9c0,0.3,0.7,0.2,0.8-0.2c0.8-4.9,1.5-9.9,2.3-14.8
	C1189.4,295.6,1188.6,295.7,1188.5,296.1"/>
<rect x="292.7" y="137.1" class="st3" width="1480.4" height="700"/>
<rect x="292.7" y="137.1" class="st3" width="1480.4" height="698"/>
<path id="패스_25614" class="st35" d="M799.4,477.6l-1.3-8.6l2.3-0.8l1.4,12.2l-2.4,0.8l-4.5-7l0.8,8.2l-2.4,0.8l-6.4-10.5
	l2.3-0.8l4.3,7.5l-0.9-8.7l2-0.7L799.4,477.6z M812.6,470.6c0.4,1,0.5,2.1,0.4,3.1c-0.1,0.9-0.4,1.8-1,2.5s-1.4,1.3-2.3,1.6
	c-0.9,0.3-1.8,0.4-2.7,0.2c-0.9-0.2-1.7-0.7-2.4-1.3c-0.7-0.8-1.3-1.7-1.6-2.7l-0.2-0.6c-0.4-1-0.5-2.1-0.4-3.2
	c0.1-0.9,0.4-1.8,1-2.5s1.4-1.3,2.3-1.5c0.9-0.3,1.8-0.4,2.8-0.2c0.9,0.2,1.7,0.7,2.4,1.4c0.7,0.8,1.3,1.7,1.6,2.7L812.6,470.6z
	 M810,470.9c-0.3-1-0.8-1.8-1.6-2.5c-0.6-0.5-1.4-0.6-2.1-0.3c-0.7,0.2-1.3,0.8-1.5,1.5c-0.2,1-0.1,2,0.3,2.9l0.2,0.6
	c0.3,1,0.8,1.8,1.6,2.5c0.6,0.5,1.4,0.6,2.2,0.3c0.7-0.2,1.3-0.8,1.5-1.5c0.2-1,0.1-2-0.3-2.9L810,470.9z M818.4,470l-1.9,0.6
	l1.4,4.2l-2.3,0.8l-3.9-11.3l4.2-1.5c1.1-0.5,2.3-0.5,3.4-0.2c1,0.4,1.7,1.2,2,2.2c0.3,0.7,0.3,1.4,0.2,2.1
	c-0.2,0.7-0.6,1.3-1.1,1.8l4,3.8v0.1l-2.5,0.9L818.4,470z M815.9,468.7l1.9-0.6c0.5-0.1,0.9-0.5,1.2-0.9c0.2-0.4,0.2-0.9,0.1-1.4
	c-0.1-0.5-0.5-0.9-0.9-1.1c-0.5-0.2-1.1-0.2-1.6,0l-1.9,0.6L815.9,468.7z M827.3,466.5l-0.8,1.7l1.1,3.2l-2.3,0.8l-3.9-11.3l2.3-0.8
	l1.8,5.1l0.5-1.8l1.6-4.7l2.9-1l-2.3,6.4l6.3,4.9l-2.8,1L827.3,466.5z M837.2,468.2l-2.3,0.8l-2.9-8.4l2.3-0.8L837.2,468.2z
	 M831.2,458.4c-0.1-0.3-0.1-0.7,0.1-0.9c0.2-0.3,0.5-0.5,0.8-0.6s0.7-0.1,1,0s0.5,0.4,0.6,0.7c0.1,0.3,0.1,0.7-0.1,1
	c-0.2,0.3-0.5,0.5-0.8,0.6s-0.7,0.1-1,0C831.5,459,831.3,458.7,831.2,458.4L831.2,458.4z M837.7,456.3l0.7,2.1l1.4-0.5l0.6,1.7
	L839,460l1.4,4.2c0.1,0.2,0.2,0.5,0.4,0.6s0.5,0.1,0.8,0c0.2-0.1,0.4-0.2,0.6-0.3l0.6,1.7c-0.4,0.3-0.8,0.5-1.3,0.7
	c-1.1,0.6-2.5,0.1-3-1c-0.1-0.2-0.1-0.4-0.2-0.5l-1.6-4.5l-1.2,0.4l-0.6-1.7l1.2-0.4l-0.7-2.1L837.7,456.3z"/>
</svg>
