<svg xmlns="http://www.w3.org/2000/svg" xmlns:xlink="http://www.w3.org/1999/xlink" width="360" height="492" viewBox="0 0 360 492">
  <defs>
    <clipPath id="clip-path">
      <rect id="사각형_8139" data-name="사각형 8139" width="360" height="492" fill="none"/>
    </clipPath>
    <clipPath id="clip-path-2">
      <rect id="사각형_8138" data-name="사각형 8138" width="360" height="642" fill="#80bbff"/>
    </clipPath>
    <clipPath id="clip-path-3">
      <rect id="사각형_8130" data-name="사각형 8130" width="405.064" height="215.184" fill="none"/>
    </clipPath>
    <clipPath id="clip-path-4">
      <rect id="사각형_8128" data-name="사각형 8128" width="407.963" height="205.407" fill="none"/>
    </clipPath>
    <clipPath id="clip-path-5">
      <rect id="사각형_8129" data-name="사각형 8129" width="406.074" height="104.886" fill="none"/>
    </clipPath>
    <clipPath id="clip-path-6">
      <rect id="사각형_8137" data-name="사각형 8137" width="23.406" height="21.805" fill="none"/>
    </clipPath>
  </defs>
  <g id="마스크_그룹_53" data-name="마스크 그룹 53" clip-path="url(#clip-path)">
    <g id="마스크_그룹_52" data-name="마스크 그룹 52" clip-path="url(#clip-path-2)">
      <rect id="사각형_8126" data-name="사각형 8126" width="360" height="642" fill="#80bbff"/>
      <rect id="사각형_8127" data-name="사각형 8127" width="1458" height="506" transform="translate(-539 153)" fill="#80bbff"/>
      <g id="그룹_15755" data-name="그룹 15755" transform="translate(-30.233 273.961)">
        <g id="그룹_15754" data-name="그룹 15754" clip-path="url(#clip-path-3)">
          <g id="그룹_15750" data-name="그룹 15750" transform="translate(-1.229 11.951)" style="mix-blend-mode: multiply;isolation: isolate">
            <g id="그룹_15749" data-name="그룹 15749" style="isolation: isolate">
              <g id="그룹_15748" data-name="그룹 15748" clip-path="url(#clip-path-4)">
                <path id="패스_25915" data-name="패스 25915" d="M514.142,232.076q-.078-46.419-.152-92.839-.018-10.676-.036-21.352a1.268,1.268,0,0,0-1.241-1.174h-5.522v-3.886a1.27,1.27,0,0,0-1.241-1.174h-2.633v-2.96a1.268,1.268,0,0,0-1.241-1.174H484.646c-.908,0-2.1.5-2.1,1.585v2.548h-3.712c-.908,0-2.1.5-2.1,1.587v3.473h-2.583c-.906,0-2.1.5-2.1,1.587v92.789H445.793V146.7c0-1.314-1.694-1.347-2.526-.868q-8.163,4.7-16.323,9.41a1.569,1.569,0,0,0-.814,1.281v34.7h-7.586c-.906,0-2.1.5-2.1,1.587v2.6H393.778V139.272a1.271,1.271,0,0,0-1.241-1.174h-8.946v-3.034a1.269,1.269,0,0,0-1.241-1.174H356.065c-.906,0-2.1.5-2.1,1.585V138.1H351.59c-.906,0-2.1.5-2.1,1.587v39.792l-14.38.209q-.915-27.137-1.829-54.272-.135-3.975-.268-7.95a1.273,1.273,0,0,0-1.241-1.174h-12.7V105c0-1.492.424-3.743,0-5.191-.32-1.1-.972-1.361-1.922-1.995q-6.288-4.19-12.577-8.379a15.712,15.712,0,0,0-3.317-2.152c-1.632-.527-3.89-.085-5.594-.085-.915,0-2.088.5-2.1,1.585q-.182,21.707-.363,43.414-.285,34.447-.574,68.894-.06,7.211-.121,14.425h-2.5V203.557c0-1.181.4-3.143-.237-4.22-.935-1.58-3.615-2.873-5-4.078a6.775,6.775,0,0,0-1.15-.932,7.992,7.992,0,0,1,0-2.159V172.336a1.27,1.27,0,0,0-1.243-1.174h-11.59c-.591,0-1.267.073-1.879.021-.417-.27-.818-.595-1.217-.885-1.179-.857-2.476-2.2-3.926-2.524a18.83,18.83,0,0,0-3.822,0h-17.68c-.906,0-2.1.5-2.1,1.585v1.8h-.928c-.906,0-2.1.5-2.1,1.587v14.52H220.236V119.479a1.185,1.185,0,0,0-.845-1.089q-4.312-1.644-8.623-3.286l-.674-10.684c-.083-1.317-1.63-1.343-2.526-.868q-14.187,7.53-28.374,15.059a1.554,1.554,0,0,0-.814,1.281v67.6h-1.943V173.7a1.271,1.271,0,0,0-1.241-1.174H161.252v-3.613a1.162,1.162,0,0,0-.847-1.089q-7.925-1.929-15.847-3.857c-1-.245-2.493.258-2.493,1.5v7.057h-4.505c-.908,0-2.1.5-2.1,1.587v40.382h-.622v-11.3a1.271,1.271,0,0,0-1.243-1.172h-2.059v-6.058a1.269,1.269,0,0,0-1.241-1.174h-19.59c-.906,0-2.1.5-2.1,1.587v5.644h-.237c-.9,0-2.1.5-2.1,1.585q.207,38.386.41,76.772.031,5.44.059,10.881a1.272,1.272,0,0,0,1.241,1.174l40.3-.026,96.748-.061q58.148-.036,116.293-.073,50.555-.034,101.109-.064c16.316-.01,32.732.512,49.039-.031.221-.009.443,0,.664,0,.906,0,2.1-.5,2.1-1.585q-.049-29.256-.1-58.509" transform="translate(-106.274 -87.019)" fill="#cfd7e5"/>
              </g>
            </g>
          </g>
          <g id="그룹_15753" data-name="그룹 15753" transform="translate(0.014 111.682)" style="mix-blend-mode: multiply;isolation: isolate">
            <g id="그룹_15752" data-name="그룹 15752">
              <g id="그룹_15751" data-name="그룹 15751" clip-path="url(#clip-path-5)">
                <path id="패스_25916" data-name="패스 25916" d="M237.968,149.735h.923a7.824,7.824,0,0,0-.923,0" transform="translate(-11.546 -141.057)" fill="#cfd7e5"/>
                <path id="패스_25917" data-name="패스 25917" d="M178.866,150.608h1.884a10.3,10.3,0,0,0-1.884,0" transform="translate(-54.616 -140.441)" fill="#cfd7e5"/>
                <path id="패스_25918" data-name="패스 25918" d="M224.027,164.844h4.458a19.6,19.6,0,0,0-4.458,0" transform="translate(-21.705 -130.131)" fill="#cfd7e5"/>
                <path id="패스_25919" data-name="패스 25919" d="M328.237,162.975h3.388a11.912,11.912,0,0,0-3.388,0" transform="translate(54.237 -131.486)" fill="#cfd7e5"/>
                <path id="패스_25920" data-name="패스 25920" d="M512.756,189.9q-.023-4.214-.045-8.429c0-.067-.287-.067-.315-.067H510.2v-5.14c0-.066-.289-.067-.316-.067-.577,0-2.156.048-2.194-.005-.263-.361,0-1.976,0-2.361v-5.746c0-.067-.289-.069-.316-.069H495.109c-.04,0-.538-.01-.538.1,0,2.522.067,5.053,0,7.575-.012.46.147.5.223.482a.447.447,0,0,0-.059.029c-.3.173-1.245,0-1.559,0h-.322c.309.028.605.055.876.081h-4.472a1.06,1.06,0,0,1,.207-.081h-.213c-.04,0-.538-.01-.538.1,0,1.369-.062,2.756,0,4.125.033.691.074,1.015.119.987a.792.792,0,0,1-.28.081h-.711c-.035,0-.067,0-.1,0h-.005c-.389-.031-.776-.081-1-.081-.04,0-.536-.01-.536.093v50.623a6.457,6.457,0,0,1,0,1.571c-.041.007-.085.017-.137.028a3.874,3.874,0,0,1-.553.083h-1.447c-.576-.033-1.144-.083-1.632-.083-.19,0-.629.048-1.1.083h-1.267a.753.753,0,0,1-.271-.083c-.216-.135.154.114,0-.6-.387-1.846,0-4.23,0-6.111V196.846c0-.067-.289-.069-.315-.069h-8.924c-.038,0-.536-.01-.536.1v22.572a4.549,4.549,0,0,1,0,1.317.153.153,0,0,0,0,.114c-.358-.005-.818-.045-.887-.048-.218-.005-.605.04-1.03.083h-1.66a.784.784,0,0,1-.213-.083l-.046-.026a.4.4,0,0,0-.052-.147c-.579-1.163,0-4.123,0-5.4V144.777c0-.066-.287-.067-.315-.067H443.525c-.04,0-.538-.01-.538.093v59.135a11.5,11.5,0,0,1,.024,2.975l-.315.031c-.809.078-1.663,0-2.477,0-2.088,0-1.679.15-1.679-1.915,0-.067-.289-.069-.315-.069H417.693c.029-.316-.223-.169-.394,0-.085,0-.52,0-.52.1a6.508,6.508,0,0,1,0,1.777.251.251,0,0,0-.01.045c-.057.017-.123.04-.2.067a2.423,2.423,0,0,1-.322.081h-2.206c-.456-.04-.89-.081-1.241-.081h-7.2c-.04,0-.538-.01-.538.093V228.5a10.439,10.439,0,0,1,.005,2.8c-.32.01-.811-.05-.94-.05h-3.71c-.194,0-.567.047-.965.081h-1.2a.507.507,0,0,1-.116-.047c.012-.012.012-.038-.028-.111a5.74,5.74,0,0,1,0-1.8V164.612c0-.066-.289-.067-.315-.067H396.72a2.353,2.353,0,0,1,.6.081h-2.458c.41-.035.87-.069,1.293-.081H371.865c-.04,0-.538-.01-.538.1V179.7a9.381,9.381,0,0,1,0,2.659.175.175,0,0,0-.014.107c-.026,0-.045.009-.073.01h-.335c-.443-.016-.958-.083-1.138-.083-1.571,0-3.146-.029-4.718,0a9.5,9.5,0,0,1-.982.057.374.374,0,0,0,.026-.313c-.588-1.39,0-4.369,0-5.828V153.455c0-.067-.29-.067-.316-.067H334.338c.372.019.745.048,1.1.081H332.9a2.892,2.892,0,0,1,.519-.081h-.866c-.038,0-.536-.01-.536.093v39.984a14.448,14.448,0,0,1,0,3.234.127.127,0,0,0,.023.128c-.28-.009-.605-.047-.7-.05a12.74,12.74,0,0,0-1.466.081h-2.413a2.39,2.39,0,0,1-.315-.081c-.633-.233-.524.1-.41-1.186s0-2.654,0-3.954v-7.19c0-.066-.289-.067-.315-.067h-8.639c-.244,0-.7.067-1.1.081h-.256a1.028,1.028,0,0,1-.413-.081c-.052-.028-.08-.038-.116-.055.036-.031.045-.112-.036-.309-.46-1.1,0-3.281,0-4.526,0-.067-.289-.067-.316-.067h-1.765c.13.021.252.052.375.08h-5.9c.347-.024.7-.052,1.065-.08H297.974c-.04,0-.536-.01-.536.093a26.448,26.448,0,0,0,0,4.054c.194,1.193.584.811-1.034.811h-7.368c-.045-.055-.121-.067-.232,0h-.033c-.038,0-.536-.01-.536.093v17.678a7.214,7.214,0,0,1,.01,1.312c-.085,0-.185.005-.316.009-7.615.13-15.242,0-22.858,0-.04,0-.538-.01-.538.093v21.077c0,3.3-.622,7.281,0,10.53a3.057,3.057,0,0,1,0,.956.242.242,0,0,0-.009.055l-.076.017c-.112.029-.247.055-.389.081h-5.629c-.1-.026-.188-.052-.268-.081a.767.767,0,0,0-.32-.067c.035-.054.066-.183.014-.5a17.7,17.7,0,0,1,0-2.742v-55.88c0-.067-.289-.069-.315-.069H238.583c-.04,0-.538-.01-.538.1v42.05a7.123,7.123,0,0,1,0,1.245.375.375,0,0,0,.017.23,2.814,2.814,0,0,0-.346.019,17.873,17.873,0,0,1-3.559-.08c-.261-.434,0-1.858,0-2.349V154.943c0-.067-.289-.069-.315-.069h-.716a1.652,1.652,0,0,1,.339.081h-3.248c.316-.028.667-.057,1.025-.081H202.056c-.04,0-.538-.009-.538.1v43.272a9.336,9.336,0,0,1,0,1.772c-.019.086.022.209,0,.3-.33.024-.861-.062-1.08-.062-.33,0-.762.038-1.233.081H195.82a1.823,1.823,0,0,1-.265-.081c-.3-.137-.163-.036-.157-1.037.019-2.9,0-5.81,0-8.715V171.308c0-.067-.289-.069-.315-.069-.214,0-.605.035-1.075.078l.014,0h-.062l.048,0a9.615,9.615,0,0,0-2.975,0h-.747a.41.41,0,0,1-.123-.081c-.1-.1.216-3.935.216-4.642,0-.067-.289-.069-.315-.069H169.431c-.038,0-.536-.01-.536.1V169.3a11.857,11.857,0,0,1,0,1.625c-.043.282.052.344.152.337a1.227,1.227,0,0,1-.126.059h-4.427c-.32-.031-.615-.057-.87-.069.014-.1-.076-.078-.182-.007-.048,0-.1-.005-.145-.005s-.538-.01-.538.1v63.981a16.332,16.332,0,0,1,.017,3.876c-.107,0-.244,0-.43-.014-.8-.05-1.616,0-2.412,0h-7.176a25.327,25.327,0,0,1-3.01,0c-.1-.014-.439.043-.609.017a.249.249,0,0,0-.028-.086c-.526-1.1,0-3.928,0-5.119V222.136c0-.067-.289-.069-.315-.069h-8.056c-.3,0-.724.04-1.184.083h-2.79a1.875,1.875,0,0,1-.273-.083c-.365-.162-.325-.045-.207-1.191.576-5.655,0-11.645,0-17.336,0-.067-.29-.067-.316-.067h-18.4c-.04,0-.538-.01-.538.093v16.06a8.388,8.388,0,0,1,0,2.408.347.347,0,0,0-.016.061,7.261,7.261,0,0,1-1.67-.028H107.53c-.038,0-.536-.009-.536.1v27.364c0,.067.289.067.315.067H512.53c.038,0,.536.01.536-.093q-.156-29.8-.309-59.6M107.711,249.513h1.952a6.925,6.925,0,0,1-1.952,0m.171-27.363a5.971,5.971,0,0,1,1.8,0Zm11.149-18.6a43.074,43.074,0,0,1,4.407,0Zm10.257,0a36.959,36.959,0,0,1,4.773,0Zm16.072,18.6a13.188,13.188,0,0,1,1.734,0Zm17.452,17.04c.145-.118.475-.009,0,0m76.054-62.167a4.036,4.036,0,0,1,.738,0Zm49.492,26.436c.142-.036.313-.017,0,0M299.421,179.5a38.755,38.755,0,0,1,4.18,0Zm72.167,2.894-.007,0,.021-.012-.014.009m33.749,48.846c-.007.007-.024.009-.035.014.059-.036.114-.073.152-.1l-.118.085m12.347-26.2v0a4.865,4.865,0,0,1,.793,0Zm18.975,0a5.15,5.15,0,0,1,.785,0Zm7-60.25a4.662,4.662,0,0,1,.985,0Zm67.17,36.7a1.408,1.408,0,0,1,.64,0Z" transform="translate(-106.992 -144.709)" fill="#cfd7e5"/>
              </g>
            </g>
          </g>
        </g>
      </g>
      <g id="그룹_15756" data-name="그룹 15756" transform="translate(-539 374.353)">
        <rect id="사각형_8131" data-name="사각형 8131" width="838.363" height="123.196" transform="translate(323.816 110.541)" fill="#fff"/>
        <path id="패스_25921" data-name="패스 25921" d="M838.363,216.36c-.092-.111-.178-.227-.273-.334a18.332,18.332,0,0,0-17.466-5.627,21.264,21.264,0,0,0-38.848-7.434c-.94-15.016-3.048-31.636-13.944-42.176-9.06-8.77-23.895-11.861-36.911-7.7-9.857,3.157-18.708,10.129-25.034,19.545a20.685,20.685,0,0,0-12.19.076,22.828,22.828,0,0,0-5.326,2.529q-1.595-4.1-3.533-7.982c-9.169-18.224-24.365-31.857-41.692-37.4-18.961-6.068-40.57-1.565-53.769,11.211-15.873,15.358-18.942,39.569-20.313,61.441-14.553-4.476-23.986-2.673-29.98,2.216-3.983-1.112-8.395-.546-11.436,2.144-.8-10.11-2.221-20.539-8.766-28.638a22.662,22.662,0,0,0-25.043-7.543c-20.584,6.59-24,29.577-27.809,48.619-2.116-9.188-8.811-17.244-17.97-20.237-10.67-3.506-22.669.545-29.7,9.024-1.284-6.061-5.335-11.94-11.878-12.711a11.836,11.836,0,0,0-10.972,4.943c-1.058-13.5-28.262-29.785-41.486-26.306-32.49,8.543-31.24,37.792-27.053,50.759a17.177,17.177,0,0,0-13.557.709c-.157.031-.315.054-.47.088a21.264,21.264,0,0,0-38.848-7.434c-.942-15.016-3.048-31.634-13.944-42.176-9.06-8.77-23.895-11.861-36.91-7.7-9.857,3.157-18.708,10.129-25.034,19.545a20.69,20.69,0,0,0-12.191.076,22.845,22.845,0,0,0-5.324,2.529q-1.595-4.1-3.534-7.982c-9.169-18.224-24.365-31.857-41.69-37.4-18.963-6.068-40.572-1.564-53.771,11.211C65.825,171.6,62.757,195.814,61.386,217.686c-14.553-4.476-23.986-2.673-29.98,2.216-3.983-1.112-8.395-.546-11.436,2.144-.8-10.11-2.221-20.539-8.766-28.638A23.24,23.24,0,0,0,0,185.7v78.044H5.6c6.265,0,12.546.069,18.831.13l.035.088.4-.007,2.419-.054c12.355.109,24.725.137,37.026-.52a.747.747,0,0,0,.6-.315l165.5-3.677.168-.268a22.8,22.8,0,0,0,3.369-10.995l99.265,1.775.278.005.1-.258c.121-.3.226-.614.328-.923,7.849-.055,15.7-.2,23.5-.19q25.98,0,51.945.016,51.958.023,103.9.016c6.265,0,12.546.069,18.831.13l.034.088.4-.007,2.419-.054c12.355.109,24.724.137,37.026-.52a.739.739,0,0,0,.6-.316l165.5-3.675.169-.268c2.031-3.238,1.827.735,2.031-3.238l98.072,8.148Z" transform="translate(323.816 -127.188)" fill="#fff"/>
        <ellipse id="타원_57" data-name="타원 57" cx="87" cy="93" rx="87" ry="93" transform="translate(1069 81.647)" fill="#fff"/>
        <ellipse id="타원_58" data-name="타원 58" cx="112" cy="119.5" rx="112" ry="119.5" transform="translate(142 28.647)" fill="#fff"/>
        <ellipse id="타원_59" data-name="타원 59" cx="86.5" cy="92.5" rx="86.5" ry="92.5" transform="translate(1196 69.647)" fill="#fff"/>
        <rect id="사각형_8132" data-name="사각형 8132" width="1231" height="105" transform="translate(118 179.647)" fill="#fff"/>
        <ellipse id="타원_60" data-name="타원 60" cx="59" cy="79" rx="59" ry="79" transform="translate(1340 87.647)" fill="#fff"/>
        <ellipse id="타원_61" data-name="타원 61" cx="112" cy="119.5" rx="112" ry="119.5" transform="translate(0 45.647)" fill="#fff"/>
        <rect id="사각형_8133" data-name="사각형 8133" width="175" height="123" transform="translate(1283 161.647)" fill="#fff"/>
        <rect id="사각형_8134" data-name="사각형 8134" width="175" height="123" transform="translate(0 161.647)" fill="#fff"/>
      </g>
      <g id="그룹_15757" data-name="그룹 15757" transform="translate(37.865 457.066)">
        <path id="패스_25922" data-name="패스 25922" d="M209.611,191.271c0,2.975-14.155,5.385-31.617,5.385s-31.617-2.41-31.617-5.385,14.157-5.385,31.617-5.385,31.617,2.41,31.617,5.385" transform="translate(-146.377 -167.124)" fill="#d5eaf5"/>
        <path id="패스_25923" data-name="패스 25923" d="M286.138,189.057c0,4.389-27.888,7.949-62.292,7.949s-62.29-3.56-62.29-7.949,27.888-7.949,62.29-7.949,62.292,3.559,62.292,7.949" transform="translate(-135.315 -170.606)" fill="#d5eaf5"/>
        <path id="패스_25924" data-name="패스 25924" d="M288.056,188.552c0,3.729-13.52,6.751-30.2,6.751s-30.2-3.022-30.2-6.751,13.52-6.751,30.2-6.751,30.2,3.022,30.2,6.751" transform="translate(-87.142 -170.101)" fill="#d5eaf5"/>
        <path id="패스_25925" data-name="패스 25925" d="M358.359,182.628c0,3.584-15.918,6.49-35.555,6.49s-35.557-2.906-35.557-6.49,15.92-6.49,35.557-6.49,35.555,2.906,35.555,6.49" transform="translate(-43.719 -174.228)" fill="#d5eaf5"/>
        <path id="패스_25926" data-name="패스 25926" d="M351.4,193.627c-.584,7.363-26.522,11.311-57.935,8.817s-56.4-10.483-55.819-17.846,26.522-11.311,57.935-8.817,56.4,10.483,55.819,17.846" transform="translate(-79.871 -175.033)" fill="#d5eaf5"/>
      </g>
      <path id="패스_25927" data-name="패스 25927" d="M268.5,180.746c-.074.01-2.007.614-2.007.612q.812.734,1.623,1.475c.13-.695.254-1.392.384-2.087" transform="translate(-20.979 286.196)" fill="#aacbe8"/>
      <g id="그룹_15763" data-name="그룹 15763" transform="translate(200.633 311.8)">
        <path id="패스_25928" data-name="패스 25928" d="M246.032,242.809a5.844,5.844,0,0,1-3.634-6.791q11.156-60.912,22.313-121.825a7.956,7.956,0,0,1,5.815-6.23c16.492-4.206,47.584-12.679,63.766-16.741a7.065,7.065,0,0,1,8.671,8.115L314.6,256.072a8.015,8.015,0,0,1-10.407,6.187c-14.407-4.768-43.018-14.585-58.162-19.45" transform="translate(-239.254 -91.004)" fill="#1e5160"/>
        <g id="그룹_15762" data-name="그룹 15762" transform="translate(0 0.32)">
          <path id="패스_25929" data-name="패스 25929" d="M304.742,261.17,244.17,241.662c-2.505-.819-4.085-3.954-3.527-7q10.914-59.574,21.831-119.149a9.283,9.283,0,0,1,6.063-6.841l67.328-17.364c2.79-.731,4.448,1.972,3.7,6.04Q325.1,176.319,310.63,255.29c-.745,4.068-3.381,6.7-5.888,5.88" transform="translate(-240.531 -91.189)" fill="#295a6e"/>
          <path id="패스_25930" data-name="패스 25930" d="M282.042,98.521a2.586,2.586,0,0,1-1.547,2.024c-.678.159-1.087-.482-.913-1.433a2.611,2.611,0,0,1,1.547-2.024c.679-.168,1.089.474.913,1.433" transform="translate(-212.102 -86.909)" fill="#30193b"/>
          <path id="패스_25931" data-name="패스 25931" d="M284.843,97.861a2.616,2.616,0,0,1-1.552,2.054c-.678.159-1.086-.5-.908-1.463a2.644,2.644,0,0,1,1.552-2.054c.679-.168,1.086.486.908,1.463" transform="translate(-210.063 -87.412)" fill="#30193b"/>
          <g id="그룹_15760" data-name="그룹 15760" transform="translate(11.807 145.131)">
            <path id="패스_25932" data-name="패스 25932" d="M262.8,185.5l-6.543-2.026c-.991-.308-1.594-1.689-1.342-3.069.118-.638.233-1.274.351-1.914.252-1.378,1.274-2.28,2.27-2l6.578,1.841c1,.277,1.594,1.68,1.331,3.12q-.184,1-.366,1.993c-.263,1.44-1.288,2.365-2.279,2.057" transform="translate(-241.894 -174.195)" fill="#30193b"/>
            <g id="그룹_15758" data-name="그룹 15758" transform="translate(32.468 9.548)">
              <path id="패스_25933" data-name="패스 25933" d="M270.884,185.691a.588.588,0,0,1-.163-.024l-4.384-1.321a.273.273,0,1,1,.157-.522l4.384,1.319a.5.5,0,0,0,.232-.375l.29-1.585c.057-.311-.062-.522-.123-.539l-3.8-1.1a.274.274,0,1,1,.152-.526l3.8,1.1a.966.966,0,0,1,.508,1.164l-.29,1.585a1.07,1.07,0,0,1-.444.733.625.625,0,0,1-.32.092" transform="translate(-266.142 -180.412)" fill="#aacbe8"/>
              <path id="패스_25934" data-name="패스 25934" d="M268.541,180.683a19.66,19.66,0,0,0-2.073.633c-.06.019-.2.1-.1.192q.812.734,1.623,1.475c.09.083.488.092.527-.119q.189-1.045.382-2.09c.024-.135-.524-.171-.565.06q-.192,1.043-.382,2.085l.527-.119q-.812-.742-1.623-1.475c-.035.064-.067.128-.1.192a18.752,18.752,0,0,1,1.938-.591c.064-.012.225-.055.2-.185s-.3-.067-.348-.057" transform="translate(-266.004 -180.663)" fill="#aacbe8"/>
            </g>
            <g id="그룹_15759" data-name="그룹 15759" transform="translate(0 0)">
              <path id="패스_25935" data-name="패스 25935" d="M252.527,180.5l-4.82-1.473.2.3.622-3.4c-.114.066-.226.131-.341.2l4.83,1.414c-.067-.1-.135-.2-.2-.3q-.319,1.732-.636,3.466c-.067.368.484.427.543.109q.319-1.737.636-3.473a.249.249,0,0,0-.2-.3l-4.832-1.4a.292.292,0,0,0-.342.2l-.622,3.4a.252.252,0,0,0,.2.3q2.406.744,4.816,1.485a.261.261,0,0,0,.142-.5" transform="translate(-247.361 -174.792)" fill="#aacbe8"/>
              <path id="패스_25936" data-name="패스 25936" d="M249.339,176.8l.261-1.421-.411.149q2.077.591,4.151,1.186a2.6,2.6,0,0,1,.647.185c-.107-.066-.026-.287-.13-.019a3.18,3.18,0,0,0-.092.5q-.254,1.4-.512,2.8l.41-.149q-.923-.275-1.846-.553c-.213-.062-.633.265-.278.372l1.846.557c.092.028.375.043.41-.149l.643-3.5a.186.186,0,0,0-.133-.223l-4.837-1.376c-.092-.026-.377-.038-.411.149l-.259,1.418c-.057.309.5.327.543.076" transform="translate(-246.318 -175.141)" fill="#aacbe8"/>
            </g>
          </g>
          <g id="그룹_15761" data-name="그룹 15761" transform="translate(6.22 11.574)">
            <path id="패스_25937" data-name="패스 25937" d="M304.027,240.694l-59.9-15.834q10.292-56.182,20.586-112.365l65.478-14.611q-13.085,71.4-26.166,142.81" transform="translate(-244.129 -97.884)" fill="#aacbe8"/>
            <path id="패스_25938" data-name="패스 25938" d="M320.894,102.949,255.615,116.48l.731-3.985q32.738-7.307,65.476-14.611l-.928,5.065" transform="translate(-235.759 -97.884)" fill="#d5eaf5"/>
            <path id="패스_25939" data-name="패스 25939" d="M262.56,111.776l-7.358,1.411q.358-1.95.714-3.9l7.38-1.53-.736,4.019" transform="translate(-236.06 -90.689)" fill="#aacbe8"/>
            <path id="패스_25940" data-name="패스 25940" d="M317.278,105.772l-57.946,11.105q.368-2.007.735-4.016l58.119-12.048-.908,4.958" transform="translate(-233.05 -95.749)" fill="#fff"/>
            <path id="패스_25941" data-name="패스 25941" d="M318.943,114.664,254.286,124.8q.794-4.32,1.584-8.642,32.544-6.236,65.085-12.475l-2.012,10.983" transform="translate(-236.727 -93.66)" fill="#d5eaf5"/>
            <path id="패스_25942" data-name="패스 25942" d="M282.814,163.292,250.827,162.2q3.921-21.4,7.842-42.8,16.534-2.4,33.066-4.79l-8.92,48.685" transform="translate(-239.248 -85.697)" fill="#d5eaf5"/>
            <path id="패스_25943" data-name="패스 25943" d="M278.4,148.781s1.042-6.161,1.117-7.508a8.733,8.733,0,0,0-.921-4.666c-.783-1.158-3.919-2.239-3.919-2.235q-3.623,1.73-7.226,3.373-3.011-1.59-6.038-3.093s-3.546,1.151-4.738,2.225a11.033,11.033,0,0,0-2.555,4.256c-.4,1.217-1.5,6.766-1.5,6.766l25.781.882" transform="translate(-237.94 -71.294)" fill="#295a6e"/>
            <path id="패스_25944" data-name="패스 25944" d="M269.022,119.958c0-.009-2.387-.875-4.654,1.864-3.049,3.689-5.672,9.221-8.353,25.795.017-.09,10.307,5.138,16.511,1.442q1.055-.8,2.111-1.611c0,.024,3.133-14.209,2.342-21.794-.781-7.5-4.484-8.908-7.957-5.694" transform="translate(-235.467 -82.978)" fill="#295a6e"/>
            <path id="패스_25945" data-name="패스 25945" d="M267.954,135.567c-.873-1.38-.23-5.527-.23-5.527l-4.1.207s-.78,4.1-2.163,5.508a9.615,9.615,0,0,1-3.753,2.054c0-.012,1.151,4.991,5.688,5.017s7.574-5.286,7.577-5.3a5.906,5.906,0,0,1-3.018-1.962" transform="translate(-234.233 -74.45)" fill="#d5eaf5"/>
            <path id="패스_25946" data-name="패스 25946" d="M260.751,126.59s-1.086-.529-1.335.586.57,3.34,1.226,3.215.22-3.7.218-3.693" transform="translate(-233.022 -77.056)" fill="#aacbe8"/>
            <path id="패스_25947" data-name="패스 25947" d="M266.717,126.158s1.335-.581,1.072.59-2.1,3.5-2.7,3.357,1.462-3.826,1.464-3.831" transform="translate(-228.93 -77.385)" fill="#aacbe8"/>
            <path id="패스_25948" data-name="패스 25948" d="M260.87,131.314c0-.01,1.789,3.677,4.628,3.948,0,0-.617-1.663-.076-5.223q-2.277.646-4.552,1.274" transform="translate(-231.929 -74.45)" fill="#aacbe8"/>
            <path id="패스_25949" data-name="패스 25949" d="M270.319,128.607c-.849,4.63-3.812,8.466-6.618,8.566s-4.427-3.393-3.618-7.805c.149-.811.65-3.66,1.305-4.225,2.38-2.052,8.163-2.387,9.541-.415.318.455-.481,3.174-.61,3.879" transform="translate(-232.655 -79.28)" fill="#d5eaf5"/>
            <path id="패스_25950" data-name="패스 25950" d="M271.174,129.314l-7.923.638q.363-1.989.728-3.974-.643,2.041-1.283,4.075l-2.821.292s1.929-6.854,3.672-8.552c1.2-1.157,6.134-3.088,7.38.031a11.912,11.912,0,0,1,.207,7.712" transform="translate(-232.654 -81.671)" fill="#295a6e"/>
            <path id="패스_25951" data-name="패스 25951" d="M290.74,116.409q-7.639,1.024-15.279,2.045.283-1.551.569-3.1,7.655-1.11,15.31-2.218-.3,1.636-.6,3.272" transform="translate(-221.296 -86.769)" fill="#d5eaf5"/>
            <path id="패스_25952" data-name="패스 25952" d="M298.869,118.7l-23.9,2.806q.283-1.551.567-3.1l23.95-3.075-.617,3.371" transform="translate(-221.654 -85.174)" fill="#d5eaf5"/>
            <path id="패스_25953" data-name="패스 25953" d="M296.663,130.235l-23.682,1.212q.285-1.551.569-3.1l23.731-1.482-.617,3.371" transform="translate(-223.103 -76.765)" fill="#d5eaf5"/>
            <path id="패스_25954" data-name="패스 25954" d="M295.962,133.849l-23.589.709q.283-1.551.567-3.1l23.639-.98-.617,3.371" transform="translate(-223.546 -74.131)" fill="#d5eaf5"/>
            <path id="패스_25955" data-name="패스 25955" d="M295.26,137.464l-23.5.207q.283-1.551.567-3.1l23.547-.477-.617,3.371" transform="translate(-223.991 -71.497)" fill="#d5eaf5"/>
            <path id="패스_25956" data-name="패스 25956" d="M294.559,141.089l-23.405-.3q.283-1.551.569-3.1,11.726.01,23.454.024l-.617,3.371" transform="translate(-224.435 -68.873)" fill="#d5eaf5"/>
            <path id="패스_25957" data-name="패스 25957" d="M293.859,144.915l-23.314-.8q.285-1.548.569-3.1l23.362.527-.617,3.371" transform="translate(-224.879 -66.451)" fill="#d5eaf5"/>
            <path id="패스_25958" data-name="패스 25958" d="M287.925,180.158l-23.793-5.727.565-3.084q11.923,2.72,23.845,5.442-.309,1.683-.617,3.369" transform="translate(-229.552 -44.348)" fill="#d5eaf5"/>
            <path id="패스_25959" data-name="패스 25959" d="M260.555,173.432l-11.966-2.88q.252-1.38.5-2.759l11.994,2.735q-.267,1.452-.533,2.9" transform="translate(-240.879 -46.938)" fill="#d5eaf5"/>
            <path id="패스_25960" data-name="패스 25960" d="M305.091,151.037l-52.338-3.421q.254-1.38.507-2.759l52.448,2.811q-.309,1.683-.617,3.369" transform="translate(-237.844 -63.653)" fill="#d5eaf5"/>
            <path id="패스_25961" data-name="패스 25961" d="M304.351,155.073l-52.132-4.54q.252-1.38.5-2.759l52.244,3.929q-.309,1.683-.617,3.369" transform="translate(-238.233 -61.527)" fill="#d5eaf5"/>
            <path id="패스_25962" data-name="패스 25962" d="M303.612,159.107l-51.928-5.658q.254-1.38.507-2.757l52.039,5.046q-.309,1.683-.617,3.369" transform="translate(-238.623 -59.401)" fill="#d5eaf5"/>
            <path id="패스_25963" data-name="패스 25963" d="M253.438,146.481c-.2,1.1-1.048,1.943-1.888,1.884s-1.364-.984-1.165-2.066a2.117,2.117,0,0,1,1.888-1.884c.845.041,1.367.966,1.165,2.066" transform="translate(-239.601 -63.976)" fill="#295a6e"/>
            <path id="패스_25964" data-name="패스 25964" d="M302.506,165.456l-51.6-7.416q.252-1.38.5-2.759l51.717,6.8-.617,3.371" transform="translate(-239.194 -56.056)" fill="#d5eaf5"/>
            <path id="패스_25965" data-name="패스 25965" d="M301.767,169.493l-51.4-8.533q.254-1.38.506-2.761l51.511,7.923-.617,3.371" transform="translate(-239.584 -53.93)" fill="#d5eaf5"/>
            <path id="패스_25966" data-name="패스 25966" d="M301.027,173.53l-51.2-9.652q.252-1.38.5-2.761,25.654,4.522,51.307,9.041l-.617,3.371" transform="translate(-239.973 -51.803)" fill="#d5eaf5"/>
            <path id="패스_25967" data-name="패스 25967" d="M300.125,178.136,249.163,167.2q.254-1.38.507-2.757l51.072,10.321-.617,3.369" transform="translate(-240.461 -49.377)" fill="#d5eaf5"/>
            <path id="패스_25968" data-name="패스 25968" d="M251.577,156.9c-.2,1.1-1.037,1.891-1.867,1.768a1.733,1.733,0,0,1-1.143-2.183c.2-1.082,1.034-1.874,1.867-1.769s1.345,1.084,1.143,2.183" transform="translate(-240.926 -56.474)" fill="#295a6e"/>
          </g>
        </g>
      </g>
      <path id="패스_25969" data-name="패스 25969" d="M155.57,158.3s-4.331-3.3-1.822-6.9c1.08-1.551,1.862-1,1.862-1a6.147,6.147,0,0,1,5.729-4.733c7.351-.714,7.226,6.68,7.226,6.68s2.79-.778,3.449,1.924a2.821,2.821,0,0,1-.875,2.757s4.514-.577,6.452,2.073c3.29,4.5,2.654,9.959-3.935,13.18-8.6,4.206-13.27-5.855-13.27-5.855Z" transform="translate(-103.711 260.588)" fill="#c43b72"/>
      <path id="패스_25970" data-name="패스 25970" d="M154.242,156.848a6,6,0,0,1-1.091-1.762,4.143,4.143,0,0,1-.225-2.1,4.463,4.463,0,0,1,.863-1.947,3.071,3.071,0,0,1,.794-.764,1.17,1.17,0,0,1,1.219-.1l-.351.147a6.171,6.171,0,0,1,.78-1.922,5.511,5.511,0,0,1,1.371-1.533,5.673,5.673,0,0,1,1.808-.944,6.98,6.98,0,0,1,.989-.223c.332-.05.671-.054,1-.074-.328.069-.659.112-.98.19a6.472,6.472,0,0,0-.937.313,5.472,5.472,0,0,0-1.665,1,5.734,5.734,0,0,0-1.226,1.487,5.975,5.975,0,0,0-.7,1.779l-.064.313-.285-.166a.59.59,0,0,0-.339-.047,1.086,1.086,0,0,0-.392.149,2.739,2.739,0,0,0-.686.65,4.445,4.445,0,0,0-.859,1.75,3.885,3.885,0,0,0,.1,1.962,6.665,6.665,0,0,0,.88,1.831" transform="translate(-103.773 260.608)" fill="#dd5794"/>
      <path id="패스_25971" data-name="패스 25971" d="M155.016,159.059c-.012.121-3.4,4.358-4.054,7.624-1.964,9.835.819,35.4,1.5,40.608.092.7.389.156.507-.754.709-5.452,7.544-35.232,7.544-35.232l20.8,36.795.526.021s-4.687-16.088-7.39-24.667c-1.8-5.7-4.049-15.5-10.179-22.83-1.6-.349-6.77-1.76-9.251-1.564" transform="translate(-105.674 270.377)" fill="#ff97a6"/>
      <path id="패스_25972" data-name="패스 25972" d="M149.676,188.413c-.017-.249,1.158-.794,1.94-1.067-.232.161-.456.384-.083.479a2.689,2.689,0,0,0,2.071-.488,2.625,2.625,0,0,1,.2.991c.007.367-4.071.79-4.123.085" transform="translate(-106.108 291)" fill="#3b2b5b"/>
      <path id="패스_25973" data-name="패스 25973" d="M150.836,188.134c-.377-.1-.15-.32.081-.479.484-.169.892-.29.984-.335a.588.588,0,0,0,.292-.342l.245-.062s.425.647.469.731a2.7,2.7,0,0,1-2.071.487" transform="translate(-105.409 290.691)" fill="#ff97a6"/>
      <path id="패스_25974" data-name="패스 25974" d="M172.039,188.565c.021-.37-1.188-.733-1.978-.966.237.147.472.36.105.472a2.691,2.691,0,0,1-2.083-.387,2.574,2.574,0,0,0-.149.991c.01.365,4.064.593,4.1-.109" transform="translate(-92.803 291.19)" fill="#3b2b5b"/>
      <path id="패스_25975" data-name="패스 25975" d="M170.1,188.35c.368-.112.133-.323-.1-.472-.489-.145-.9-.245-.992-.285a.582.582,0,0,1-.308-.327l-.247-.05s-.394.66-.43.747a2.681,2.681,0,0,0,2.081.387" transform="translate(-92.738 290.911)" fill="#ff97a6"/>
      <path id="패스_25976" data-name="패스 25976" d="M155.748,159.084a45.429,45.429,0,0,0-4.242,6.165c-2.083,4.168-1.4,9.619-.992,17.35,0,0,6.835,5.345,19.789,2.061,0,0,3.7-1.288,4.171-1.933,0,0-3.651-16.943-9.771-22.031s-8.955-1.611-8.955-1.611" transform="translate(-105.818 269.564)" fill="#7f65c1"/>
      <path id="패스_25977" data-name="패스 25977" d="M157.645,185.322s.351.017.531.024a32.255,32.255,0,0,0,9.074-1.051s3.7-1.288,4.17-1.933c0,0-3.649-16.943-9.771-22.031a15.191,15.191,0,0,0-2.813-1.9,45.273,45.273,0,0,0-4.574,1.06s5.319,3.5,5.114,14.271a68.58,68.58,0,0,1-1.73,11.56" transform="translate(-102.766 269.928)" fill="#6e57b5"/>
      <path id="패스_25978" data-name="패스 25978" d="M153.829,152.127c1.269-.844,4.828-1.535,10.908.361a6.313,6.313,0,0,1,1.746.856,12.748,12.748,0,0,0-.061,4.97,29.352,29.352,0,0,0-3.032,7.731c-2.138.553-9.057-.641-9.987-1.31a22.843,22.843,0,0,1-.927-6.523,13.771,13.771,0,0,1,1.352-6.085" transform="translate(-104.067 264.719)" fill="#d5eaf5"/>
      <path id="패스_25979" data-name="패스 25979" d="M161.836,151.786a8.941,8.941,0,0,1,2.87,1.186,12.747,12.747,0,0,0-.06,4.97,26.332,26.332,0,0,0-2.764,7.873c-1.718.429-6.969-.546-6.969-.546s4.127-2.436,5.693-6.033c1.616-3.713,1.016-7.517,1.231-7.449" transform="translate(-102.292 265.091)" fill="#aacbe8"/>
      <path id="패스_25980" data-name="패스 25980" d="M157.4,153.98s.092.84-3.369,3.888a14.862,14.862,0,0,1-3.368,2.718c-1.193.622-1.663-2.132-1.663-2.132s5-4.414,6.215-5.677a9.154,9.154,0,0,1,1.24-1.042Z" transform="translate(-106.601 265.053)" fill="#d5eaf5"/>
      <path id="패스_25981" data-name="패스 25981" d="M156.793,150.035a15.085,15.085,0,0,1,.446,2.534c-.1.27-.538.659-.885.116a7.862,7.862,0,0,1-.308-2.574Z" transform="translate(-101.466 263.815)" fill="#ff97a6"/>
      <path id="패스_25982" data-name="패스 25982" d="M157.148,151.716a.932.932,0,0,1-1.013.2,11.439,11.439,0,0,1-.088-1.248l.723-.669c.074.327.308,1.336.379,1.718" transform="translate(-101.465 263.788)" fill="#c95d77"/>
      <path id="패스_25983" data-name="패스 25983" d="M155,150.672a7.035,7.035,0,0,1,.472-1.858,1.125,1.125,0,0,1,1.442-.705,7.235,7.235,0,0,1,2.111,1.01c.344.418.159,1.053.031,1.527a3.6,3.6,0,0,1-.92,1.59,2.217,2.217,0,0,1-1.625.252c-1.26-.4-1.52-.835-1.511-1.815" transform="translate(-102.231 262.362)" fill="#ff97a6"/>
      <path id="패스_25984" data-name="패스 25984" d="M165.642,167.317a4.024,4.024,0,0,1,2.009.436c.372.273,1.134,1.326,1.037,1.526s-.289-.01-.289-.01.105.266-.088.309c-.119.028-.52-.446-.9-.686-.235-.147-.567-.187-.692-.318,0,0,.273.5.109.564s-.818-.7-.93-1c-.074-.2-.406-.664-.254-.821" transform="translate(-94.502 276.393)" fill="#ff97a6"/>
      <path id="패스_25985" data-name="패스 25985" d="M163.832,165.477a81.159,81.159,0,0,0-2.647-8.134c-1.463-2.643-2.024-2.225-2.024-2.225l.085-3.03s2.363.062,3.371,1.418c1.87,2.514,4.557,14.048,4.825,14.444Z" transform="translate(-99.195 265.311)" fill="#aacbe8"/>
      <path id="패스_25986" data-name="패스 25986" d="M166.436,164.45c1.023,1.59,3.475,6.68,3.475,6.68,1.086,3.069-2.424,3.668-3.682,2.462-2.346-2.254-4.533-8.919-4.451-13.517.031-1.8,2.031-1.812,3.022.443.8,1.812,1.124,3.136,1.637,3.933" transform="translate(-97.291 270.181)" fill="#aacbe8"/>
      <path id="패스_25987" data-name="패스 25987" d="M154,151.455a.529.529,0,0,1,.226.589c-.458,1.637-1.11,6.016-1.3,6.884-.18.807-2.807,3.4-3.6,1.883a8.125,8.125,0,0,1-.266-3.113c.242-3.483,1.224-8.647,4.942-6.242" transform="translate(-106.578 264.4)" fill="#d5eaf5"/>
      <path id="패스_25988" data-name="패스 25988" d="M151.127,152.624h0a.621.621,0,0,0,.819-.311l1.4-3.108-1.132-.507-1.393,3.107a.619.619,0,0,0,.311.819" transform="translate(-105.317 262.84)" fill="#1e5160"/>
      <path id="패스_25989" data-name="패스 25989" d="M157.842,150.589s-4.27-4.272-5.311-9.681L144.6,152.453s6.412-1.281,11.479,1.3Z" transform="translate(-109.808 257.164)" fill="#ff5e4d"/>
      <path id="패스_25990" data-name="패스 25990" d="M151.076,150.094l2.96,1.328a.581.581,0,0,0,.736-.232l1.407-2.346a.582.582,0,0,0-.169-.778l-2.725-1.879a.582.582,0,0,0-.837.192l-1.641,2.9a.581.581,0,0,0,.268.818" transform="translate(-105.339 260.936)" fill="#295a6e"/>
      <path id="패스_25991" data-name="패스 25991" d="M146.885,146c-2.061,3.127-3.088,6.087-2.292,6.611s3.11-1.585,5.172-4.713,3.6-6.713,2.8-7.236-3.622,2.211-5.682,5.338" transform="translate(-110.008 256.936)" fill="#ffe5b0"/>
      <path id="패스_25992" data-name="패스 25992" d="M149.8,144.982c-.052-.043-1.385-1.407-1.385-1.407l-2.036,2.73,1.8,1Z" transform="translate(-108.512 259.107)" fill="#1e5160"/>
      <path id="패스_25993" data-name="패스 25993" d="M147.018,144.671c-.55.769-.823,1.518-.61,1.67s.83-.349,1.381-1.12.823-1.516.61-1.668-.832.349-1.381,1.119" transform="translate(-108.542 259.071)" fill="#295a6e"/>
      <path id="패스_25994" data-name="패스 25994" d="M149.958,143.071a29.857,29.857,0,0,1-3.183,4.979c-1.445,1.592,2.621,1.26,2.671,1.2s1.3-4.652.512-6.182" transform="translate(-108.447 258.74)" fill="#ff5e4d"/>
      <path id="패스_25995" data-name="패스 25995" d="M151.429,149.478a.406.406,0,0,1,.389-.245c.353.014.864.123.524.676a1.9,1.9,0,0,1-1.329.823.082.082,0,0,1-.086-.116Z" transform="translate(-105.202 263.229)" fill="#ff97a6"/>
      <path id="패스_25996" data-name="패스 25996" d="M152.009,150.529s-.022-1.094.221-.876c.133.118.029.6.029.6s.057.605.045.781a7.159,7.159,0,0,1-.441,1.018l-.524-.178s.138-.18.175-.245c.15-.261.494-1.1.494-1.1" transform="translate(-104.896 263.515)" fill="#ff97a6"/>
      <path id="패스_25997" data-name="패스 25997" d="M301.881,138.832a3.336,3.336,0,0,1-2.185.275,7.679,7.679,0,0,1,0-1.492l1.608-.908c.109.389.486,1.67.579,2.125" transform="translate(3.19 254.102)" fill="#c95d77"/>
      <g id="그룹_15764" data-name="그룹 15764" transform="translate(285.734 383.116)">
        <path id="패스_25998" data-name="패스 25998" d="M294.056,149.435s2.344-4.9,3.222-6.476a9.6,9.6,0,0,1,2.256-2.754c.818-.736,1.271-.9,3.368-1.469-.439,1.694-5.248,10.682-6.313,12.053-1.115,1.433-2.533-1.354-2.533-1.354" transform="translate(-286.625 -127.535)" fill="#7f65c1"/>
        <path id="패스_25999" data-name="패스 25999" d="M292.087,141.474a3.309,3.309,0,0,0,.655-1.388c.029-.339-.188-1.276-.346-1.319s-.135.166-.135.166-.1-.188-.216-.1c-.073.054-.005.507-.057.837-.031.2-.171.406-.157.541,0,0-.147-.4-.261-.335s-.009.8.1,1c.029.055.112.749.15.845.06.149.166-.242.263-.247" transform="translate(-288.473 -127.517)" fill="#ff97a6"/>
        <path id="패스_26000" data-name="패스 26000" d="M307.015,180.675c-.273-1.176,1.405-.946,2.353-1.271-.28.19-.555.458-.1.57a3.315,3.315,0,0,0,2.512-.581,3.026,3.026,0,0,1,.237,1.177c.009.437-4.811.923-5,.1" transform="translate(-277.204 -97.906)" fill="#30193b"/>
        <path id="패스_26001" data-name="패스 26001" d="M308.407,180.341c-.455-.112-.18-.38.1-.571.588-.2,1.082-.346,1.191-.4a.7.7,0,0,0,.356-.408l.3-.073s.515.768.565.868a3.308,3.308,0,0,1-2.512.583" transform="translate(-276.344 -98.272)" fill="#ff97a6"/>
        <path id="패스_26002" data-name="패스 26002" d="M296.408,180.94c-.273-1.176,1.405-.946,2.353-1.269-.28.19-.555.456-.1.57a3.323,3.323,0,0,0,2.512-.583,3.029,3.029,0,0,1,.237,1.179c.009.436-4.811.921-5,.1" transform="translate(-284.933 -97.712)" fill="#30193b"/>
        <path id="패스_26003" data-name="패스 26003" d="M297.8,180.607c-.455-.112-.18-.38.1-.57.588-.2,1.082-.346,1.191-.4a.7.7,0,0,0,.356-.408l.3-.073s.515.768.565.868a3.316,3.316,0,0,1-2.512.583" transform="translate(-284.073 -98.078)" fill="#ff97a6"/>
        <path id="패스_26004" data-name="패스 26004" d="M310.908,147.23a30.527,30.527,0,0,1,4.642,6.822c2.489,5.66,3.393,41.791,2.922,48.03-.062.842-2.1.126-2.213-.911-.678-6.509-10.02-39.785-10.02-39.785l-6.313,41.431-2.05.123s-.634-53.161.263-54.768c1.912-.524,9.752-1,12.77-.94" transform="translate(-284.001 -121.349)" fill="#30193b"/>
        <path id="패스_26005" data-name="패스 26005" d="M299.088,147.908a22.838,22.838,0,0,1,4.377-.384h-.856L307,161.167s-3,22.825-6.313,41.433l-2.05.121s-4.835-36.9.453-54.813" transform="translate(-284.761 -121.131)" fill="#3b2b5b"/>
        <path id="패스_26006" data-name="패스 26006" d="M297.138,140.848c1.023-1.45,6.91-2.88,10.673-2.546a8.746,8.746,0,0,1,3.661,1.995c1.613,2.014,1.081,6.263,1.141,7.971.076,2.2-.538,5.1-.207,7.361.5,3.4-12.962.915-13.292-.263a35.305,35.305,0,0,1-1.212-7.586c-.328-4.075-.764-6.932-.764-6.932" transform="translate(-284.379 -127.887)" fill="#aacbe8"/>
        <path id="패스_26007" data-name="패스 26007" d="M301.368,136.8s.826,2.7.574,3.024a1.386,1.386,0,0,1-1.9.173c-.657-.64-.277-3.077-.277-3.077Z" transform="translate(-282.543 -128.949)" fill="#ff97a6"/>
        <path id="패스_26008" data-name="패스 26008" d="M298.868,137.581a5.85,5.85,0,0,1,.584-1.845c.1-.2.437-.769.647-.828,1.129-.32,2.771,1.177,3.027,1.558.309.463.06,1.084-.114,1.551s-1.428,2.647-2.892,1.96c-1.6-.745-1.355-1.4-1.252-2.4" transform="translate(-283.174 -130.356)" fill="#ff97a6"/>
        <path id="패스_26009" data-name="패스 26009" d="M310.379,140.822c.287,1.157-.408,2.327-1.195,3.724-1.6,2.84-5.425,6.108-6.564,7.11-2.151,1.895-4.161-1.077-4.161-1.077a49.267,49.267,0,0,0,6.189-7.131c.515-.8,2.431-3.912,3.181-4.417,1.039-.7,2.3.785,2.55,1.791" transform="translate(-283.417 -127.451)" fill="#6e57b5"/>
        <path id="패스_26010" data-name="패스 26010" d="M297.138,140.57c.472-.669,1.915-1.284,3.8-1.822.123-.035.482-.112.482-.112a23.075,23.075,0,0,0-.4,8.829c.937,4.987,2.031,8.974,2.031,8.974a1.121,1.121,0,0,1-.278-.012c-2.09-.413-3.553-.953-3.66-1.338A35.305,35.305,0,0,1,297.9,147.5c-.328-4.075-.764-6.932-.764-6.932" transform="translate(-284.379 -127.608)" fill="#d5eaf5"/>
        <path id="패스_26011" data-name="패스 26011" d="M295.243,141.6c.894,1.514,3.976,8.294,3.976,8.294s-1.6,2.927-3.088,1.506c-1.637-1.568-1.319-1.746-3.188-4.51-.959-1.419-2.242-3.278-1.786-4.884a3.73,3.73,0,0,1,1.829-2.094,3.359,3.359,0,0,1,2.256,1.687" transform="translate(-288.807 -126.679)" fill="#7f65c1"/>
        <path id="패스_26012" data-name="패스 26012" d="M301.167,138.318s-.859,14.7,1.2,18.755c0,0,3.433,8.5,5.21,9s6.7-1.293,6.7-1.293.543-3.644-4.733-10.07c0,0,1.482-10.6-.258-13.735a6.21,6.21,0,0,0-4.284-2.657,23.759,23.759,0,0,0-3.84,0" transform="translate(-281.573 -127.9)" fill="#6e57b5"/>
        <path id="패스_26013" data-name="패스 26013" d="M302.367,138.691a29.713,29.713,0,0,0-1.139,10.8c.439,6.251.729,6.338.729,6.338s-2.221,7.938-3.027,8.794-3.674-1.689-3.674-1.689,3.335-7.721,3.485-7.653l.555-7.513-1-7.109s.569-1.2,4.069-1.964" transform="translate(-285.75 -127.568)" fill="#7f65c1"/>
        <path id="패스_26014" data-name="패스 26014" d="M289.992,145.058c-.009-.009-.3-.124-.22-.277.033-.062.4,0,.455.021-.147-.081-.239-.209-.161-.273a4.262,4.262,0,0,1,1.16.271c-.092-.121-.368-.434-.308-.553a.061.061,0,0,1,.052-.038,1.579,1.579,0,0,1,.493.413,4.828,4.828,0,0,1,.406.574,5,5,0,0,1,.284.524.874.874,0,0,1,.621.341c.057.123.028.021-.036.145-.012.022-.033.033-.05.052a.265.265,0,0,1,.071-.009c.028-.007.033.029.016.043a2.456,2.456,0,0,1-1.713-.1,4.285,4.285,0,0,1-.417-.185c-.041-.024-.088-.045-.13-.064-.019-.009-.041-.021-.069-.036a.944.944,0,0,1-.1-.052,1.89,1.89,0,0,1-.356-.337c-.045-.111.06-.124.1-.126-.005-.009-.258-.164-.252-.242.007-.147.135-.073.161-.1" transform="translate(-289.758 -123.546)" fill="#ff97a6"/>
        <path id="패스_26015" data-name="패스 26015" d="M292.32,148.112c1.846,1.751,17.189,1.048,15.7-1.234a2.074,2.074,0,0,1,.005-2.285l-14.853-.185s-4.113.61-.852,3.7" transform="translate(-288.807 -123.402)" fill="#6e57b5"/>
        <path id="패스_26016" data-name="패스 26016" d="M298.573,140.284c.287-.749.8-1.694.769-1.478-.133.83-.315,1.974.875,2.481a1.945,1.945,0,0,0,2.6-.517,7.284,7.284,0,0,0,.657-1.834c.033-.244-.109-.868-.6-.965a6.14,6.14,0,0,1-2.9-1.153,2.67,2.67,0,0,1-.8-1.955,3.082,3.082,0,0,1,.88-2.484c.2-.211.548-.137.434.138-.69,1.6,1.931,1.338,2.571,1.165a2.913,2.913,0,0,1,1.1-.256,1.842,1.842,0,0,1,1.181.735,2.181,2.181,0,0,1,.119,2.83c.308.156.448.482.285,1.093a4.947,4.947,0,0,1-2.014,2.666,7.237,7.237,0,0,1-.161,1.238,1.262,1.262,0,0,1-.292.719,4.733,4.733,0,0,1-2.538.583c-.6-.019-1.807-.23-2.152-.826a2.378,2.378,0,0,1-.005-2.178" transform="translate(-283.522 -132.257)" fill="#3b2b5b"/>
      </g>
      <rect id="사각형_8135" data-name="사각형 8135" width="3.162" height="4.448" transform="translate(128.341 422.745)" fill="#3b2b5b"/>
      <path id="패스_26017" data-name="패스 26017" d="M220.536,157.877H196.344a8.972,8.972,0,0,1-8.972-8.972h42.136a8.973,8.973,0,0,1-8.972,8.972" transform="translate(-78.638 262.992)" fill="#3b2b5b"/>
      <path id="패스_26018" data-name="패스 26018" d="M169.632,192.337l-7.99-99.728a13.069,13.069,0,0,1,10.9-13.944,147.445,147.445,0,0,1,43.6-.534c9.308,1.288,19.295,4.547,20.52,13.863.354,2.7-.133,10.13-.275,13.317-.641,14.414,3.273,24.8,5.8,32.516s8.077,32.115,5.385,45.074c0,0,32.815-1.011,40.726-.5s5.216,11.78,3.7,13.126-28.944,6.9-55.7,8.077c-20.551.906-44.776,1.81-57.806-1.022a11.375,11.375,0,0,1-8.856-10.239" transform="translate(-97.419 210.42)" fill="#ff5e4d"/>
      <path id="패스_26019" data-name="패스 26019" d="M189.7,145.724s10.319-1.582,19.87-2.827,66.086-6.281,68.285-4.687,3.532,1.259,3.549,6.661-.3,4.719-1.694,6.1c-.949.937-15.137,4.194-35.394,6.448-9.47,1.053-19.357,1.475-30.844,2.066-36.936,1.9-35-2.557-35-2.557Z" transform="translate(-85.135 254.973)" fill="#e23229"/>
      <path id="패스_26020" data-name="패스 26020" d="M194.71,154.1l8.5,3.905s7.677-3.905,7.971-3.905H194.71Z" transform="translate(-73.289 266.773)" fill="#30193b"/>
      <path id="패스_26021" data-name="패스 26021" d="M205.71,164.7h-8.526V161.76a4.263,4.263,0,1,1,8.526,0Z" transform="translate(-71.486 269.253)" fill="#30193b"/>
      <path id="패스_26022" data-name="패스 26022" d="M208.047,181.993H196.1l.111-20.05a1.212,1.212,0,0,1,1.212-1.212h9.417a1.212,1.212,0,0,1,1.212,1.212Z" transform="translate(-72.279 271.61)" fill="#3b2b5b"/>
      <path id="패스_26023" data-name="패스 26023" d="M183.292,160.226a.783.783,0,0,1-.531-1.361l4.358-4.007a.781.781,0,0,1,.531-.207h21.319a.784.784,0,0,1,0,1.568H187.955l-4.132,3.8a.78.78,0,0,1-.531.206" transform="translate(-82.181 267.179)" fill="#30193b"/>
      <path id="패스_26024" data-name="패스 26024" d="M186.551,157.1c.6.711-.424,2.562-2.285,4.137s-3.86,2.273-4.46,1.563.424-2.562,2.285-4.137,3.86-2.273,4.46-1.563" transform="translate(-84.276 268.765)" fill="#3b2b5b"/>
      <path id="패스_26025" data-name="패스 26025" d="M172.3,141.7s15.36.365,40.534-1.589,28.035-1.608,28.035-1.608,36.76-1.533,39.886-.481c0,0-6.427,3.542-25.622,5.057s-39.064,4.725-48.687,1.947c-5.563-1.6-38.242,9.641-34.146-3.326" transform="translate(-89.879 254.791)" fill="#ff5e4d"/>
      <path id="패스_26026" data-name="패스 26026" d="M208.283,187.422c-10-.429-22.771-2.444-28.488-1.6-4.1.605-5.779,2.386-6.3,1.653-1.359-1.929,5.212-5.719,5.551-12.262.226-4.382-3.171-88.671-5.527-94.9l-.016-.04a3.2,3.2,0,0,0-4.339-1.677,13.072,13.072,0,0,0-7.525,12.9l8,99.859a11.225,11.225,0,0,0,8.735,10.085c7.05,1.551,17.424,1.993,28.728,1.929,3.713-.021,10.35-.176,13.37-3.912,3.881-4.8-.581-11.539-12.193-12.037" transform="translate(-97.418 211.53)" fill="#f2483b"/>
      <path id="패스_26027" data-name="패스 26027" d="M206.932,185.463a5.193,5.193,0,1,1-5.193-5.193,5.193,5.193,0,0,1,5.193,5.193" transform="translate(-71.951 285.849)" fill="#aacbe8"/>
      <path id="패스_26028" data-name="패스 26028" d="M202.176,183.6a1.886,1.886,0,1,1-2.22-1.48,1.886,1.886,0,0,1,2.22,1.48" transform="translate(-70.572 287.173)" fill="#d5eaf5"/>
      <path id="패스_26029" data-name="패스 26029" d="M208.038,185.78H196.1a11.5,11.5,0,0,1,.116-1.181,5.973,5.973,0,0,1,11.757.263c.045.3.069.918.069.918" transform="translate(-72.279 285.513)" fill="#3b2b5b"/>
      <path id="패스_26030" data-name="패스 26030" d="M234.5,188.893a2.394,2.394,0,0,0,2.394-2.394v-5.532a2.4,2.4,0,0,0-1.291-2.126c-.652-.337-16.148-8.246-34.471-7.1a2.4,2.4,0,0,0,.3,4.782c14.11-.887,26.7,4.163,30.671,5.955V186.5a2.4,2.4,0,0,0,2.4,2.394" transform="translate(-70.247 279.552)" fill="#30193b"/>
      <path id="패스_26031" data-name="패스 26031" d="M216.654,185.845a5.193,5.193,0,1,0,5.193-5.193,5.193,5.193,0,0,0-5.193,5.193" transform="translate(-57.298 286.127)" fill="#aacbe8"/>
      <path id="패스_26032" data-name="패스 26032" d="M218.623,183.985a1.886,1.886,0,1,0,2.22-1.48,1.886,1.886,0,0,0-2.22,1.48" transform="translate(-55.891 287.451)" fill="#d5eaf5"/>
      <path id="패스_26033" data-name="패스 26033" d="M216.2,186.163h11.942a11.483,11.483,0,0,0-.116-1.181,5.973,5.973,0,0,0-11.757.263c-.045.3-.069.918-.069.918" transform="translate(-57.625 285.792)" fill="#3b2b5b"/>
      <path id="패스_26034" data-name="패스 26034" d="M181.133,188.8a2.394,2.394,0,0,1-2.394-2.394v-5.532a2.4,2.4,0,0,1,1.291-2.126c.652-.337,16.148-8.246,34.471-7.1a2.4,2.4,0,0,1-.3,4.782c-14.11-.887-26.7,4.163-30.671,5.956V186.4a2.4,2.4,0,0,1-2.4,2.394" transform="translate(-84.928 279.481)" fill="#30193b"/>
      <path id="패스_26035" data-name="패스 26035" d="M200.609,192.022a2.4,2.4,0,0,1-2.394-2.4V171.813a2.394,2.394,0,0,1,4.789,0v17.813a2.4,2.4,0,0,1-2.394,2.4" transform="translate(-70.736 277.941)" fill="#3b2b5b"/>
      <path id="패스_26036" data-name="패스 26036" d="M187.333,185.748a5.193,5.193,0,1,1-5.193-5.193,5.193,5.193,0,0,1,5.193,5.193" transform="translate(-86.234 286.056)" fill="#aacbe8"/>
      <path id="패스_26037" data-name="패스 26037" d="M182.577,183.888a1.886,1.886,0,1,1-2.22-1.48,1.886,1.886,0,0,1,2.22,1.48" transform="translate(-84.854 287.38)" fill="#d5eaf5"/>
      <path id="패스_26038" data-name="패스 26038" d="M188.439,186.065H176.5a11.492,11.492,0,0,1,.116-1.181,5.972,5.972,0,0,1,11.755.263c.047.3.071.918.071.918" transform="translate(-86.562 285.72)" fill="#3b2b5b"/>
      <path id="패스_26039" data-name="패스 26039" d="M195.673,123.69c.007,0,.005-.01,0-.01" transform="translate(-72.589 244.609)" fill="none"/>
      <path id="패스_26040" data-name="패스 26040" d="M210.1,138.02a10.628,10.628,0,0,1,1.482,1.352c.15.175-.107.15-.107.15s-2.1-1.1-2.2-1.784.828.282.828.282" transform="translate(-62.683 254.676)" fill="#ff97a6"/>
      <g id="그룹_15765" data-name="그룹 15765" transform="translate(103.019 359.493)">
        <path id="패스_26041" data-name="패스 26041" d="M206.766,159.469c.605-.52-.73-2.379-1.2-2.854.111.225.226.643-.092.655a1.5,1.5,0,0,1-1.212-1.1,4.254,4.254,0,0,0-.539,1.008c-.152.387,2.218,3,3.048,2.291" transform="translate(-169.748 -91.207)" fill="#30193b"/>
        <path id="패스_26042" data-name="패스 26042" d="M205.544,158.1c.316-.012-.041-.871-.152-1.1a4.165,4.165,0,0,0-.484-.647.648.648,0,0,1-.083-.434l-.278-.162a.757.757,0,0,1-.322.506,1.078,1.078,0,0,0-.2.2c.09.519,1.051,1.653,1.518,1.634" transform="translate(-169.519 -91.504)" fill="#ff97a6"/>
        <path id="패스_26043" data-name="패스 26043" d="M211.641,158.466c.4-.446-.726-2.408-1.2-2.884.109.225.225.641-.092.653a1.493,1.493,0,0,1-1.214-1.1,4.222,4.222,0,0,0-.539,1.008c-.15.387,2.313,3.132,3.046,2.32" transform="translate(-166.194 -91.959)" fill="#30193b"/>
        <path id="패스_26044" data-name="패스 26044" d="M210.42,157.069c.318-.012-.042-.871-.15-1.1a4.067,4.067,0,0,0-.484-.647.648.648,0,0,1-.083-.434l-.278-.163a.757.757,0,0,1-.322.507,1.08,1.08,0,0,0-.2.2c.09.517,1.051,1.653,1.516,1.634" transform="translate(-165.964 -92.257)" fill="#30193b"/>
        <path id="패스_26045" data-name="패스 26045" d="M196.852,133.249c-2.451,1.163-2.273,6.993-2.356,10.746-.133,6.115,14.387,8.533,14.387,8.533s.512,17.085,1.3,19.839c.221.768,2.908.138,2.908.138s4.892-18.211,2.833-23.715c-1.231-3.292-8.969-6.54-8.969-6.54l12.1,7.848.645,20.729,2.69-.391s5.881-16.4,4.006-24.455c-1.015-4.353-15.863-9.669-15.863-9.669s-3.549-2.434-3.935-2.878c-1.881-.118-6.951-.826-9.748-.187" transform="translate(-176.465 -108.103)" fill="#7f65c1"/>
        <path id="패스_26046" data-name="패스 26046" d="M188.415,141.035s-.785,1.134-1.326.951-3.037.109-3.024-.142.534-.686,1.419-.954a7.725,7.725,0,0,1,1.364-.111c.258.033,1.023-.558,1.544-.517.194.016.285.387.022.773" transform="translate(-184.065 -102.802)" fill="#ff97a6"/>
        <path id="패스_26047" data-name="패스 26047" d="M186.554,141.137a10.727,10.727,0,0,0-1.915.595c-.209.093.033.182.033.182s2.37-.1,2.75-.679-.868-.1-.868-.1" transform="translate(-183.709 -102.299)" fill="#ff97a6"/>
        <path id="패스_26048" data-name="패스 26048" d="M186.1,145.722a.706.706,0,0,1-.007-.84c1.338-1.827,8.49-10.3,9.242-11.211,1.106-1.347,2.173-2.711,2.8.055.271,1.2-1.928,5.9-2.46,7.212-1.711,4.21-5.57,10.143-9.574,4.783" transform="translate(-182.689 -108.734)" fill="#ffe5b0"/>
        <path id="패스_26049" data-name="패스 26049" d="M199.947,137.367a12.606,12.606,0,0,1-.769,4.272,9.8,9.8,0,0,1,2.8.156,13.324,13.324,0,0,1,2.149.932c3.16,1.734,11.513,7.373,11.513,7.373l.645,20.731,2.69-.392s5.881-16.4,4.005-24.455c-1.015-4.353-15.863-9.667-15.863-9.667s-3.549-2.434-3.935-2.878c-.913-.059-3.094-.451-3.094-.451s-.067,2.005-.145,4.381" transform="translate(-173.051 -108.103)" fill="#6e57b5"/>
        <path id="패스_26050" data-name="패스 26050" d="M207.779,130.178a18.036,18.036,0,0,1,.1,9.169c-.251,1.293-12.317,3.1-12.514,2.384-.073-.259-.589-2.629-.707-3.734-.553-5.155-1.143-7.275-.562-9.263.4-1.385-.51-1.938,6.453-3.172a18.731,18.731,0,0,1,5.981.323c1.341.264.959,2.885,1.252,4.292" transform="translate(-176.932 -113.612)" fill="#ffe5b0"/>
        <path id="패스_26051" data-name="패스 26051" d="M197.842,126.256s-2.809.135-4.052,4.49a66.021,66.021,0,0,1-2.666,7.724l2.576,2.393a75.611,75.611,0,0,1,5.311-11.51,9.148,9.148,0,0,0,.755-2.137c-.024-.868-1.924-.959-1.924-.959" transform="translate(-178.921 -113.007)" fill="#ffe5b0"/>
        <path id="패스_26052" data-name="패스 26052" d="M209.116,137.407s.23,1.361.8,1.424,2.7,1.386,2.8,1.155-.192-.849-.88-1.466a7.846,7.846,0,0,0-1.186-.681c-.247-.078-.69-.939-1.181-1.122-.18-.067-.422.228-.347.69" transform="translate(-165.819 -105.391)" fill="#ff97a6"/>
        <path id="패스_26053" data-name="패스 26053" d="M214.67,141.138a.644.644,0,0,0,0-.84c-1.352-1.815-7.707-6.182-8.467-7.09-1.117-1.336-2.074-1.739-2.678,1.032-.261,1.2.873,3.114,1.972,4.161,3.292,3.136,5,6.587,9.173,2.737" transform="translate(-169.911 -108.693)" fill="#f9cb9d"/>
        <path id="패스_26054" data-name="패스 26054" d="M200.985,125.551a5.5,5.5,0,0,1,4.982,3.554c1.692,4.659,3.253,9.688,3.253,9.688l-2.609,1.7s-2.51-10.44-6.025-11.911c-.41-.173-1.055-1.7-1.094-1.983-.119-.861,1.492-1.053,1.492-1.053" transform="translate(-172.827 -113.521)" fill="#f9cb9d"/>
        <path id="패스_26055" data-name="패스 26055" d="M204.6,130.179a18.036,18.036,0,0,1,.1,9.169c-.09.467-1.717,1-3.77,1.456l-.247.055a36.269,36.269,0,0,0-.593-7.717c-.567-3.179-2-7.674-1.874-7.683.107-.009.214-.016.323-.021a22.014,22.014,0,0,1,4.813.448c1.342.265.959,2.885,1.252,4.293" transform="translate(-173.757 -113.612)" fill="#f9cb9d"/>
        <path id="패스_26056" data-name="패스 26056" d="M199.27,124.238a13.313,13.313,0,0,1-.192,2.871.751.751,0,0,1-1.267-.156c-.306-.7.4-2.871.4-2.871Z" transform="translate(-174.104 -114.591)" fill="#ff97a6"/>
        <path id="패스_26057" data-name="패스 26057" d="M199.182,125.678A1.171,1.171,0,0,1,197.82,125c.055-.468.054-.2.157-.583l1.229.182c0,.373,0,.65-.024,1.084" transform="translate(-174.041 -114.35)" fill="#c95d77"/>
        <path id="패스_26058" data-name="패스 26058" d="M198.472,126.636s-.332,6.04-.33,8.053.444,2.481.444,2.481l1.8.807,1.338-1.507s-2.244-9.038-2.96-9.833-.294,0-.294,0" transform="translate(-173.807 -112.988)" fill="#3b2b5b"/>
        <path id="패스_26059" data-name="패스 26059" d="M198.015,126.276c.009.026.465.712.764.7s.3-.4.327-.707-.477-.432-.889-.228-.2.237-.2.237" transform="translate(-173.939 -113.238)" fill="#3b2b5b"/>
        <path id="패스_26060" data-name="패스 26060" d="M198.8,125.169a2.431,2.431,0,0,1-.033.451c-.043.218,0,.322-.427.856l.823.889s.787-.864-.363-2.2" transform="translate(-173.661 -113.799)" fill="#ffe5b0"/>
        <path id="패스_26061" data-name="패스 26061" d="M197.882,125.27a.739.739,0,0,0,.1.392,1.642,1.642,0,0,0,.933.738l-.589,1.131a1.5,1.5,0,0,1-.446-2.261" transform="translate(-174.236 -113.726)" fill="#f9cb9d"/>
        <path id="패스_26062" data-name="패스 26062" d="M198.981,128.456s-1.132.109-2.151-1.457c-1.328-2.042.367-2.856.367-2.856s-1.326-2.052,1.784-2.975.754-3.684,2.854-2.09c.7.529,2.527,3.644.446,5.35,0,0,.564,3.117-.4,3.573a8.992,8.992,0,0,1-2.9.455" transform="translate(-175.133 -118.592)" fill="#3b2b5b"/>
        <path id="패스_26063" data-name="패스 26063" d="M199.063,128.392a2.651,2.651,0,0,1-1.452-.434,3.209,3.209,0,0,1-1.393-2.731,1.677,1.677,0,0,1,.961-1.4l-.128.389a2.5,2.5,0,0,1-.339-1,1.762,1.762,0,0,1,.209-1.072,2,2,0,0,1,.78-.731,7.2,7.2,0,0,1,.908-.379l.9-.292a1.931,1.931,0,0,0,.774-.375,1.974,1.974,0,0,0,.417-.774c.071-.3.14-.607.221-.914a3.358,3.358,0,0,1-.422,1.884,2.153,2.153,0,0,1-.857.541l-.871.358a7.207,7.207,0,0,0-.819.386,1.66,1.66,0,0,0-.569.558,1.64,1.64,0,0,0,.121,1.53.283.283,0,0,1-.111.382l-.017.009a1.244,1.244,0,0,0-.674.956,2.731,2.731,0,0,0,.232,1.338,2.909,2.909,0,0,0,.818,1.144,2.823,2.823,0,0,0,1.31.626" transform="translate(-175.215 -118.528)" fill="#7f65c1"/>
        <path id="패스_26064" data-name="패스 26064" d="M197.741,125.389a7.016,7.016,0,0,1-.289-1.978c.225-1.162,2.749-.985,3.158-.778.449.225.527.825.6,1.269a3.216,3.216,0,0,1-.2,1.665,2.075,2.075,0,0,1-1.3.8c-1.227.121-1.613-.152-1.971-.978" transform="translate(-174.309 -115.757)" fill="#ff97a6"/>
      </g>
      <path id="패스_26065" data-name="패스 26065" d="M238.134,145.364" transform="translate(-41.645 260.411)" fill="#3b2b5b"/>
      <g id="그룹_15767" data-name="그룹 15767" transform="translate(184.121 386.568)">
        <path id="패스_26066" data-name="패스 26066" d="M233.3,163.291a3.9,3.9,0,0,0-1.587,1.217c-.213.394-.444,1.635-.277,1.772s.249-.128.249-.128.017.277.206.233c.116-.026.273-.607.508-.977.145-.226.424-.4.475-.567,0,0-.029.555.138.541s.429-.954.4-1.264c-.016-.209.081-.754-.116-.828" transform="translate(-230.69 -113.095)" fill="#ff97a6"/>
        <g id="그룹_15766" data-name="그룹 15766" transform="translate(4.172 87.738)">
          <path id="패스_26067" data-name="패스 26067" d="M233.409,186.981c-.192-1.12,1.373-.811,2.282-1.063-.273.164-.546.4-.126.531a3.118,3.118,0,0,0,2.394-.406,2.846,2.846,0,0,1,.157,1.12c-.016.411-4.574.6-4.707-.181" transform="translate(-233.393 -184.341)" fill="#3b2b5b"/>
          <path id="패스_26068" data-name="패스 26068" d="M234.741,186.754c-.42-.131-.149-.368.126-.531.564-.156,1.036-.265,1.141-.309a.656.656,0,0,0,.36-.363l.284-.052s.443.75.484.849a3.125,3.125,0,0,1-2.394.406" transform="translate(-232.569 -184.647)" fill="#ff97a6"/>
          <path id="패스_26069" data-name="패스 26069" d="M250.044,186.488c.192-1.12-1.373-.811-2.282-1.063.273.164.546.4.126.531a3.125,3.125,0,0,1-2.394-.406,2.844,2.844,0,0,0-.157,1.12c.016.411,4.574.6,4.707-.182" transform="translate(-224.691 -184.701)" fill="#3b2b5b"/>
          <path id="패스_26070" data-name="패스 26070" d="M247.819,186.261c.42-.131.149-.368-.126-.531-.564-.157-1.035-.265-1.141-.309a.656.656,0,0,1-.36-.363l-.284-.052s-.443.75-.484.849a3.125,3.125,0,0,0,2.394.406" transform="translate(-224.624 -185.006)" fill="#ff97a6"/>
        </g>
        <path id="패스_26071" data-name="패스 26071" d="M239.095,155.822a40.806,40.806,0,0,0-3.108,6.268c-2.024,5.459-.861,39.478-.071,45.317.107.788,1.986,0,2.031-.98.273-6.156,7.2-37.963,7.2-37.963l8.244,38.6h1.935s-1.084-27.651-2.32-42.337a31.883,31.883,0,0,0-2.24-9.4c-1.827-.385-8.841.261-11.674.489" transform="translate(-228.153 -118.98)" fill="#30193b"/>
        <path id="패스_26072" data-name="패스 26072" d="M239.095,155.567a40.8,40.8,0,0,0-3.108,6.268c-2.024,5.459-.861,39.478-.071,45.317.057.42.617.392,1.136.128.221-.114.045-12.163,2.977-26.225,1.1-5.288,2.04-10.411,3.081-14.591,1.435-5.774,2.728-9.736,1.867-9.707-2.413.083-4.6-1.295-5.881-1.191" transform="translate(-228.153 -118.726)" fill="#3b2b5b"/>
        <path id="패스_26073" data-name="패스 26073" d="M247.355,147.22c-1.4-1.022-3.2-2.028-10.245-.271a7.413,7.413,0,0,0-2.042.852,14.011,14.011,0,0,1-.211,5.57,23.835,23.835,0,0,1,1.832,4.823c.548,2,1.2,6.457,1.2,6.457s4.854.173,7.2,0c1.928-.143,5.693-1.215,5.679-2.368a47.258,47.258,0,0,0-.984-9.074,17.549,17.549,0,0,0-2.434-5.988" transform="translate(-228.153 -125.7)" fill="#ffe5b0"/>
        <path id="패스_26074" data-name="패스 26074" d="M237.471,147.015a10.625,10.625,0,0,0-2.709,3.94c-1.449,2.935-2.9,11.609-3.086,13.119-.354,2.854,4.763-3.157,4.763-3.157a15.5,15.5,0,0,1,1.433-6c.367-.877,1.556-3.283,1.556-3.283a38.6,38.6,0,0,1-1.957-4.624" transform="translate(-230.484 -124.954)" fill="#357a5f"/>
        <path id="패스_26075" data-name="패스 26075" d="M231.43,168.281c-1.511-2.448,1.086-15.536,3.267-13.361a1.786,1.786,0,0,0,2.24.425l-1.214,12.85s-1.627,4.408-4.294.086" transform="translate(-230.979 -119.371)" fill="#357a5f"/>
        <path id="패스_26076" data-name="패스 26076" d="M255.715,136.027c.3-.685-.054-1.632-.653-1.438a4.029,4.029,0,0,0-.543.386c-.171.131-.313.247-.313.247s.384-.52.171-.577-.413.206-.541.434-.968,1.381-.584,2.24c-.078-.029.194.157.3.143a3.408,3.408,0,0,0,2.164-1.435" transform="translate(-214.821 -134.028)" fill="#ff97a6"/>
        <path id="패스_26077" data-name="패스 26077" d="M255.456,134.254s.418-.035-.446.743l-1.16.328a9.673,9.673,0,0,1,1.606-1.072" transform="translate(-214.313 -134.254)" fill="#ff97a6"/>
        <path id="패스_26078" data-name="패스 26078" d="M240.464,146.123s3.6,18.39,2.827,23.734a1.345,1.345,0,0,1-1.186,1.153l-5.9.691s.32-3.636.546-4.828c.251-1.321,1.4-5.193,1.4-5.193l-4.386-11.138a10.287,10.287,0,0,1,2.251-3.139c.906-.721,2.106-.946,4.452-1.279" transform="translate(-228.952 -125.604)" fill="#357a5f"/>
        <path id="패스_26079" data-name="패스 26079" d="M240.848,160.507l-3.722-8.452.863-.543-1.594-.387.417-3.129a2.453,2.453,0,0,1,1.829-2.071,6.855,6.855,0,0,1,.863-.149l-.4.973a1.782,1.782,0,0,0-.09,1.065l1.438,5.855Z" transform="translate(-227.033 -125.857)" fill="#1f6864"/>
        <path id="패스_26080" data-name="패스 26080" d="M253.767,136.925c-1.124,1.421-6.481,9.885-6.481,9.885s.927,3.459,2.576,2.258c1.819-1.326,3.909-3.385,6.372-5.58,1.808-1.609,1.667-5.328,1.478-7.107a.965.965,0,0,0-1.132-.857,4.757,4.757,0,0,0-2.813,1.4" transform="translate(-219.096 -133.341)" fill="#1f6864"/>
        <path id="패스_26081" data-name="패스 26081" d="M254.261,141.147s-6.937,5.006-8.7,6.161a20.9,20.9,0,0,1-4.851,2.23c-.927.335,1.912,1.177,1.4,3.687,1.943-.647,12.4-7.843,13.918-9.2,1.587-1.421-1.765-2.877-1.765-2.877" transform="translate(-224.026 -129.23)" fill="#1f6864"/>
        <path id="패스_26082" data-name="패스 26082" d="M238.919,147.3s4.635,12.995,3.215,17.351c0,0,3.878-.327,5.063-1.528s-4.384-17.132-4.384-17.132Z" transform="translate(-225.194 -125.7)" fill="#f9cb9d"/>
        <path id="패스_26083" data-name="패스 26083" d="M239.321,146.18s5.71,15.433,6.5,23.271a.587.587,0,0,0,.835.47l2.923-.51-1.864-9.193s-.432-5.75-.705-7.15c-.1-.529-.372-2.1-.762-3.521-.183-.66,1.6-2.36,1.6-2.36s-2.7-1.623-3.715-1.623a23.074,23.074,0,0,0-4.86.349Z" transform="translate(-224.933 -126.012)" fill="#1f6864"/>
        <path id="패스_26084" data-name="패스 26084" d="M243.665,159.07s-4.042-12.743-4.412-13.069c0,0-.531-.532.415-.424a4.506,4.506,0,0,1,3.006,1.969c.83,1.208,1.055,1.513,1.055,1.513l-1.035.851,1.566.344Z" transform="translate(-225.058 -126.013)" fill="#357a5f"/>
        <path id="패스_26085" data-name="패스 26085" d="M240.077,146.964l-.277.925-.444.081-.835-.769s.787-.871,1.556-.237" transform="translate(-225.484 -125.16)" fill="#3b2b5b"/>
        <path id="패스_26086" data-name="패스 26086" d="M239.056,147.338s.424,6.156.484,8.3.1,3.065.1,3.065l2.178.56,1-1.542s-2.662-9.567-3.449-10.393-.313.009-.313.009" transform="translate(-225.197 -124.992)" fill="#3b2b5b"/>
        <path id="패스_26087" data-name="패스 26087" d="M238.07,145.13s-.016,2.655.3,2.883a1.306,1.306,0,0,0,1.76-.36c.42-.754-.583-2.851-.583-2.851Z" transform="translate(-225.812 -126.566)" fill="#ff97a6"/>
        <path id="패스_26088" data-name="패스 26088" d="M238.134,146.975a2.145,2.145,0,0,0,1.845-1.124c-.079-.467-.055-.192-.2-.565l-1.7-.384c.009.38.012,1.637.054,2.073" transform="translate(-225.805 -126.494)" fill="#c95d77"/>
        <path id="패스_26089" data-name="패스 26089" d="M242.434,147.2c-.007-.043-.092-4.239-.235-4.626a3.791,3.791,0,0,0-.783-1.461,2.554,2.554,0,0,0-3.492.318c-.387.576-.793,2.394-2.021,1.884,0,0-.92-.617-.512.287a1.945,1.945,0,0,0,1.392,1.233s1.335,3.475,2.47,3.464c.081,0,3.338-.078,3.181-1.1" transform="translate(-227.841 -129.652)" fill="#ffcb48"/>
        <path id="패스_26090" data-name="패스 26090" d="M241.076,145.037a5.412,5.412,0,0,0-.669-1.6.7.7,0,0,0-.443-.358,3.59,3.59,0,0,0-2.783,1.122c-.261.43-.01.984.166,1.4s1.4,2.336,2.693,1.658c1.411-.738,1.169-1.322,1.036-2.216" transform="translate(-226.542 -127.853)" fill="#ff97a6"/>
        <path id="패스_26091" data-name="패스 26091" d="M239.568,145.8s.188.546-.7,1.651l1.025.581s.835-.645-.327-2.232" transform="translate(-225.229 -125.84)" fill="#ffe5b0"/>
        <path id="패스_26092" data-name="패스 26092" d="M238.183,146.005s-.012.294,1.421,1.284l-.557,1.127a1.688,1.688,0,0,1-.864-2.412" transform="translate(-225.878 -125.69)" fill="#f9cb9d"/>
        <path id="패스_26093" data-name="패스 26093" d="M241.5,141.154a2.312,2.312,0,0,0-1.615-.443,2.357,2.357,0,0,0-1.509.583,1.861,1.861,0,0,0-.427.676,8.684,8.684,0,0,1-.382.806,1.928,1.928,0,0,1-.64.721,1.1,1.1,0,0,1-1.018.048l-.007,0-.029-.017a1.524,1.524,0,0,0-.292-.152c-.042-.017-.1-.021-.078-.021a.115.115,0,0,0,.064-.05c.01-.022,0-.024.005-.009a1.8,1.8,0,0,0,.263.6,1.966,1.966,0,0,0,.458.519,1.486,1.486,0,0,0,.595.294l.022.005a.167.167,0,0,1,.114.1c.209.5.429,1.006.657,1.5l.344.745a3.551,3.551,0,0,0,.41.707,2.838,2.838,0,0,1-.515-.648c-.149-.232-.3-.465-.43-.705-.27-.482-.527-.968-.778-1.459l.135.1a1.8,1.8,0,0,1-.778-.341,2.336,2.336,0,0,1-.565-.6,3.292,3.292,0,0,1-.2-.358,1.222,1.222,0,0,1-.135-.437.37.37,0,0,1,.038-.194.309.309,0,0,1,.211-.159.564.564,0,0,1,.3.033,1.919,1.919,0,0,1,.386.2l-.035-.019a.694.694,0,0,0,.657-.014,1.638,1.638,0,0,0,.51-.572c.144-.237.263-.5.391-.761a2.01,2.01,0,0,1,.541-.759,2.577,2.577,0,0,1,1.718-.548,2.279,2.279,0,0,1,1.616.641" transform="translate(-227.925 -129.694)" fill="#ffdb8a"/>
      </g>
      <path id="패스_26094" data-name="패스 26094" d="M197.191,38.068c-.085.019-.085.323-.022.773.016.1.035.221.055.342.007.041.019.083.026.124.012.064.021.121.038.185s.029.121.042.188c.01.05.021.1.035.152a.191.191,0,0,0,.012.038c.021.088.043.176.066.261.033.126.071.249.1.363.192.6.382,1.006.482.982s.081-.512-.042-1.172c-.078-.3-.157-.636-.242-1.01v0c-.207-.733-.436-1.25-.55-1.224" transform="translate(-71.53 182.22)" fill="#30193b"/>
      <path id="패스_26095" data-name="패스 26095" d="M197.208,38.839c-.007-.041-.017-.085-.026-.126.009.041.014.085.026.126" transform="translate(-71.488 182.689)" fill="#7f65c1"/>
      <path id="패스_26096" data-name="패스 26096" d="M197.26,39.08c-.012-.067-.029-.126-.041-.188.012.059.026.121.041.188" transform="translate(-71.461 182.82)" fill="#7f65c1"/>
      <path id="패스_26097" data-name="패스 26097" d="M197.336,39.372c-.022-.085-.043-.173-.066-.261.022.088.043.176.066.261" transform="translate(-71.424 182.98)" fill="#7f65c1"/>
      <path id="패스_26098" data-name="패스 26098" d="M197.593,39.2c-.035-.143-.071-.287-.111-.418q.125.56.242,1.01c-.04-.183-.08-.386-.131-.591" transform="translate(-71.27 182.737)" fill="#7f65c1"/>
      <g id="그룹_15772" data-name="그룹 15772" transform="translate(161.961 323.846)">
        <path id="패스_26099" data-name="패스 26099" d="M218.164,141.573c-.081-.353,1.291-1.288,1.791-1.435-.157.112-.392.354-.182.481a1.165,1.165,0,0,0,1.234-.3,3.3,3.3,0,0,1-.01.887c-.042.32-2.642,1.195-2.833.368" transform="translate(-218.161 -67.243)" fill="#30193b"/>
        <g id="그룹_15771" data-name="그룹 15771" transform="translate(1.149 0)">
          <path id="패스_26100" data-name="패스 26100" d="M243.75,101.652a3.854,3.854,0,0,0-4.215-3.565c-1.763.111-1.666,1.468-3.113,1.015s-.519.309-1.518,1.1-4.374-1.418-5.444-.249-.781,1.995-.764,3.352-2.552-.724-3.438,1.2-1.5,7.262,5.859,10.4c4.979,2.125,12.67-5.7,13.61-7.923.757-1.784,2.211-6.81-.977-5.34" transform="translate(-214.515 -97.895)" fill="#ff5e4d"/>
          <path id="패스_26101" data-name="패스 26101" d="M243.532,101.729a4.292,4.292,0,0,0-1.468-2.65,3.792,3.792,0,0,0-2.854-.712,2.416,2.416,0,0,0-1.31.586,2.591,2.591,0,0,1-.717.462,1.519,1.519,0,0,1-.9.017c-.147-.035-.259-.069-.382-.1a1.394,1.394,0,0,0-.323-.052.249.249,0,0,0-.054.005c.007-.012,0,.007-.019.048-.028.093-.057.247-.109.385a1.643,1.643,0,0,1-.529.731,1.373,1.373,0,0,1-.906.254,7.219,7.219,0,0,1-1.594-.334c-.5-.145-1-.3-1.5-.389a1.807,1.807,0,0,0-1.352.114c-.038.033-.079.057-.121.1l-.123.142a3.67,3.67,0,0,0-.225.294,2.337,2.337,0,0,0-.323.647,4.571,4.571,0,0,0-.107,1.5l.009.4a1.805,1.805,0,0,1-.028.429.49.49,0,0,1-.341.372,1.142,1.142,0,0,1-.441.026,8.94,8.94,0,0,0-1.549-.2,1.386,1.386,0,0,0-1.224.8,1.539,1.539,0,0,1,.462-.64,1.493,1.493,0,0,1,.752-.287,8.89,8.89,0,0,1,1.577.09c.256.012.477-.022.493-.218a1.6,1.6,0,0,0,0-.354l-.026-.391a4.913,4.913,0,0,1,.054-1.623,2.693,2.693,0,0,1,.344-.771,3.158,3.158,0,0,1,.245-.335l.133-.157c.054-.052.121-.1.182-.154a1.348,1.348,0,0,1,.418-.213,2.757,2.757,0,0,1,.437-.066,3.984,3.984,0,0,1,.832.064c.536.092,1.044.24,1.549.377a6.954,6.954,0,0,0,1.481.294.907.907,0,0,0,.583-.131,1.169,1.169,0,0,0,.391-.52c.042-.105.061-.211.109-.368a.5.5,0,0,1,.508-.37,3.465,3.465,0,0,1,.825.178,1.072,1.072,0,0,0,.646.005,2.206,2.206,0,0,0,.6-.382,2.648,2.648,0,0,1,1.537-.628,4.086,4.086,0,0,1,3.05.906,4.258,4.258,0,0,1,1.31,2.835" transform="translate(-214.297 -97.972)" fill="#ff7b71"/>
          <path id="패스_26102" data-name="패스 26102" d="M230.646,139.894c-.169-.323-1.027-.607-1.708-.8.206.121.41.3.1.4a2.464,2.464,0,0,1-1.8-.534,2.147,2.147,0,0,0-.118.838c.012.308,3.81.621,3.534.1" transform="translate(-212.788 -68.102)" fill="#30193b"/>
          <path id="패스_26103" data-name="패스 26103" d="M235.382,160.98c-.377-.223-1.487-.47-1.511-.538.657-1.82,5.025-19.936,5.409-23.986.673-7.081-.085-25.184-.761-26.891-1.824-.766-6.412-.142-9.4-.47a30.249,30.249,0,0,0-5.71,6.243c-3.195,5.271-2.986,40.961-3.33,47.191a4.546,4.546,0,0,0-.669.278c-.163.105-.743.536-.538.671.3.2,1.393-.18,1.66-.489a.786.786,0,0,0-.054-.211c-.022-.054,10.832-39.561,10.832-39.561l2.024,12.929s-.073,24.642-.1,24.68c.214.4,1.283.572,1.765.553.328-.014.553-.228.387-.4" transform="translate(-218.826 -89.866)" fill="#ff97a6"/>
          <path id="패스_26104" data-name="패스 26104" d="M229.065,109.762s-3.409,1.274-6.678,6.685c-1.148,1.9-2.785,13.628-2.949,16.461H222.1l1.333-10-.166,10s11.488,1.295,16.748-.705c0,0,1.86-10.4-2.009-24.33Z" transform="translate(-218.38 -90.757)" fill="#3b2b5b"/>
          <path id="패스_26105" data-name="패스 26105" d="M226.086,133.32s.4,0,.607,0a26.83,26.83,0,0,0,8.483-1.115s1.86-10.4-2.009-24.332l-3.715.785-1,.052s2.877,5.124,1.749,10.464a122.184,122.184,0,0,1-4.116,14.148" transform="translate(-213.535 -90.758)" fill="#30193b"/>
          <path id="패스_26106" data-name="패스 26106" d="M233.876,102.186c1.533.384,4.823,2.6,5.164,2.818,1.43.908,2.284.9,1.86,3.3a11.2,11.2,0,0,1-1.737,3.746,62.5,62.5,0,0,1-4.863,6.006,12.713,12.713,0,0,1-5.829-1.217c-3.19-1.615-3.464-2.885-3.464-2.885s.769-3.784,4.515-9.926c.24-.394,2.552-2.292,4.355-1.841" transform="translate(-214.322 -94.951)" fill="#aacbe8"/>
          <path id="패스_26107" data-name="패스 26107" d="M235.745,111.988s4.675,5.333,6.967,6.1a5.272,5.272,0,0,0,1.269.254c1.336-.016,3.2-1.3,1.127-3.622a25.1,25.1,0,0,0-7.888-5.746s.591,1.388-1.475,3.018" transform="translate(-206.496 -89.957)" fill="#9fc0e2"/>
          <path id="패스_26108" data-name="패스 26108" d="M234.461,104.4c-1.4-1.43-3.11,1.934,3.183,11.154.679,1,3.16-.194,2.251-1.689-2.358-3.881-3.962-7.966-5.433-9.465" transform="translate(-208.395 -93.52)" fill="#9fc0e2"/>
          <rect id="사각형_8136" data-name="사각형 8136" width="7.517" height="2.323" transform="translate(35.16 26.106) rotate(-29.523)" fill="#7f65c1"/>
          <path id="패스_26109" data-name="패스 26109" d="M233.858,122.014l-1.283-2.265a1.082,1.082,0,0,1,.41-1.475l9.441-5.345a2.383,2.383,0,1,1,2.348,4.147l-9.441,5.345a1.08,1.08,0,0,1-1.475-.408" transform="translate(-208.908 -87.297)" fill="#7f65c1"/>
          <path id="패스_26110" data-name="패스 26110" d="M235.671,121.864l-2.348-4.147,8.454-4.787a2.383,2.383,0,1,1,2.349,4.147Z" transform="translate(-208.261 -87.297)" fill="#c43b72"/>
          <path id="패스_26111" data-name="패스 26111" d="M266.445,110.541c.761,5.323-3.516,11.237-9.534,13.185a10.911,10.911,0,0,1-8.2-.332,7.578,7.578,0,0,1-4.261-5.81l-.01-.069c-.761-5.323,3.516-11.237,9.534-13.183,6.061-1.962,11.65.794,12.459,6.141Zm2.438-.773c0-.029-.009-.057-.012-.085-.989-6.531-7.816-9.9-15.22-7.5-7.371,2.386-12.577,9.6-11.647,16.1,0,.029.009.057.012.085.989,6.533,7.816,9.9,15.22,7.5,7.371-2.384,12.577-9.6,11.647-16.1" transform="translate(-202.013 -95.466)" fill="#af2b67"/>
          <path id="패스_26112" data-name="패스 26112" d="M266.009,109.94c.761,5.323-3.516,11.237-9.534,13.185a10.911,10.911,0,0,1-8.2-.332,7.578,7.578,0,0,1-4.261-5.809l-.01-.071c-.761-5.323,3.516-11.237,9.534-13.183,6.061-1.962,11.65.793,12.459,6.141Zm2.438-.773c0-.029-.009-.057-.012-.085-.989-6.531-7.816-9.9-15.22-7.5-7.371,2.386-12.577,9.6-11.647,16.1,0,.029.009.057.012.085.989,6.533,7.816,9.9,15.22,7.5,7.371-2.384,12.577-9.6,11.647-16.1" transform="translate(-202.331 -95.904)" fill="#c43b72"/>
          <g id="그룹_15770" data-name="그룹 15770" transform="translate(40.973 6.62)" opacity="0.69">
            <g id="그룹_15769" data-name="그룹 15769">
              <g id="그룹_15768" data-name="그룹 15768" clip-path="url(#clip-path-6)">
                <path id="패스_26113" data-name="패스 26113" d="M255.779,122.936c-6.4,2.073-12.291-.828-13.147-6.479s3.644-11.913,10.051-13.986,12.291.828,13.147,6.479-3.646,11.913-10.051,13.986" transform="translate(-242.527 -101.8)" fill="#d5eaf5"/>
              </g>
            </g>
          </g>
          <path id="패스_26114" data-name="패스 26114" d="M240.775,114.8c.035.005.064.026.1.014.277-.1,1.6-.6,1.584-1.127-.024-.811-.892-1.329-1.151-1.191-.233.124.088.581.088.581s.029-.1-.213-.043-.007.55,0,.832-.826.878-.4.935" transform="translate(-202.919 -87.401)" fill="#ff97a6"/>
          <path id="패스_26115" data-name="패스 26115" d="M235.793,115.625s.232-.076.453-.166c.254-.1.494-.226.368-.277a1.361,1.361,0,0,0-.593-.014c-.532.078-1.113.308-.7.432a.936.936,0,0,0,.47.024" transform="translate(-206.907 -85.458)" fill="#ff97a6"/>
          <path id="패스_26116" data-name="패스 26116" d="M235.032,115.4a.287.287,0,0,1,.216-.111,6.739,6.739,0,0,1,1.279.043c.375.093,1.284.787,1.295,1s-.488-.022-.488-.022.551.23.488.491-.935-.047-.935-.047.211.377.019.346a8.137,8.137,0,0,1-.93-.341,3.1,3.1,0,0,1-.51-.266,5.365,5.365,0,0,1-.7-.712,2.24,2.24,0,0,1,.263-.382" transform="translate(-207.207 -85.357)" fill="#ff97a6"/>
          <path id="패스_26117" data-name="패스 26117" d="M228.434,116.682s6.22-6.414,7.164-10.744c.159-.726-.1-2.1.327-2.37s2.239,1.3,2.41,1.749a8.592,8.592,0,0,1-1.969,6.121c-2.13,2.771-4.21,5.914-4.21,5.914s-3.608-.41-3.722-.671" transform="translate(-211.824 -93.916)" fill="#9fc0e2"/>
          <path id="패스_26118" data-name="패스 26118" d="M229.454,102.575c-.825.705-1.7,3.072-1.253,6.109.408,2.745,1.357,8,3.957,10.03,1.922,1.5,1.146-3.76,1.146-3.76l-1.812-6.813s-1.132-6.341-2.038-5.567" transform="translate(-212.083 -94.665)" fill="#d5eaf5"/>
          <path id="패스_26119" data-name="패스 26119" d="M229.4,110.248c-.645,2.353,5.183,11.323,8.768,10.485,1.333-.311,1.516-1.2,1.516-1.2l-7.489-9.921s-2.068-2.014-2.8.638" transform="translate(-211.158 -90.024)" fill="#d5eaf5"/>
          <path id="패스_26120" data-name="패스 26120" d="M234.943,102.255a19.892,19.892,0,0,0-2.32,2.09c-.119.325-.033,1,.685.721s2.23-2.223,2.23-2.223Z" transform="translate(-208.804 -94.85)" fill="#ff97a6"/>
          <path id="패스_26121" data-name="패스 26121" d="M235.124,102.065a19.885,19.885,0,0,0-2.32,2.09c-.119.325.035,1.023.752.749s2.163-2.251,2.163-2.251Z" transform="translate(-208.666 -94.989)" fill="#c95d77"/>
          <path id="패스_26122" data-name="패스 26122" d="M237.245,102.755c-.166-1.219-2.377-1.974-2.859-1.915-.531.066-.825.634-1.053,1.055s-.854,2.4.387,3.324c2.337,1.746,3.525-2.463,3.525-2.463" transform="translate(-208.517 -95.884)" fill="#ff97a6"/>
          <path id="패스_26123" data-name="패스 26123" d="M231.764,103s3.38,1.44,5.743-.774a3.685,3.685,0,0,0,.978,3.375,3.849,3.849,0,0,0-.244-4.6c-1.917-2.128-6.438.6-6.478,2" transform="translate(-209.397 -96.339)" fill="#ff5e4d"/>
        </g>
      </g>
      <path id="합치기_11" data-name="합치기 11" d="M59.9,31.827q-14.851,0-29.695-.006-7.424,0-14.844,0c-1.418,0-2.84.014-4.264.03-3.533.039-7.077.078-10.586-.147a.193.193,0,0,1-.131-.327h0a4.882,4.882,0,0,1,6.276-6.344v0a4.873,4.873,0,0,1,.707.322h0l.072-.026-.072.026a4.984,4.984,0,0,0-.709-.324,23.078,23.078,0,0,1-.631-11.515,21.706,21.706,0,0,1,4.527-9.765c2.038-2.4,5.091-4.376,8.362-3.56C21.923.939,24,3.7,25.016,6.494c1.339,3.671.925,7.687,1.227,11.543a3.383,3.383,0,0,1,3.134-1.409,4.267,4.267,0,0,1,3.4,3.632,7.2,7.2,0,0,0-.518.695c.212.055.419.115.632.17-.212-.056-.419-.116-.631-.17a7.134,7.134,0,0,1,.518-.693h0a7.7,7.7,0,0,1,13.622,3.2,7.834,7.834,0,0,1,.2,1.768,7.834,7.834,0,0,0-.2-1.768c1.089-5.442,2.064-12.011,7.947-13.894A6.477,6.477,0,0,1,61.5,11.725c1.871,2.315,2.277,5.3,2.505,8.186h0c.023.288.043.579.066.867h0l.042.031h0l-.043-.031c-.022-.289-.043-.579-.065-.868a3.713,3.713,0,0,1,4.237-.207c2.043,1.188,2.507,3.784,2.666,5.969a5.4,5.4,0,0,1,5.482,5.39.308.308,0,0,1-.078.211.365.365,0,0,1-.551-.012.365.365,0,0,0,.551.014c.121,0,.247.009.368.017a.216.216,0,0,1,0,.432c-2.424.129-4.858.166-7.293.166C66.22,31.889,63.053,31.827,59.9,31.827ZM.828,31.3l-.005-.009h0l.005.009a.2.2,0,0,1-.2.269A.2.2,0,0,0,.828,31.3Zm74.924-.052a.328.328,0,0,1-.052-.19.328.328,0,0,0,.051.19Zm-.266-.011c-4.542-.19-9.108-.052-13.654-.052H46.986q-14.848,0-29.694.008c-1.624,0-3.254-.019-4.886-.039-3.368-.042-6.746-.083-10.1.061,3.343-.144,6.708-.1,10.064-.061,1.645.02,3.288.04,4.925.039q14.851-.005,29.695-.009H61.832c2.688,0,5.384-.048,8.078-.048C71.771,31.139,73.63,31.162,75.486,31.239ZM2.2,31.222h0ZM.786,31.187h0Zm-.022-.068c-.013-.041-.026-.082-.038-.124C.738,31.036.75,31.077.763,31.118ZM75.7,31.061a4.7,4.7,0,0,0-5.1-4.686.348.348,0,0,1-.341-.341.348.348,0,0,0,.341.343,4.46,4.46,0,0,1,.449-.023A4.7,4.7,0,0,1,75.7,31.061ZM.718,30.967A4.462,4.462,0,0,1,2.529,26,4.462,4.462,0,0,0,.718,30.967Zm45.417-4.7h0Zm-.262-.422a.554.554,0,0,1-.005.092.3.3,0,0,0,.26.328.3.3,0,0,1-.259-.328.767.767,0,0,0,0-.09h0c.175-.705.333-1.456.488-2.226-.154.771-.313,1.521-.488,2.224h0q.025-.3.024-.6Q45.9,25.543,45.873,25.843Zm25.06.19ZM68.453,20.7c1.442,1.317,1.689,3.5,1.8,5.333-.112-1.836-.359-4.017-1.8-5.335-1.175-1.078-3.366-1.308-4.341.109a2.391,2.391,0,0,1,2.037-.99A3.5,3.5,0,0,1,68.453,20.7ZM2.532,26l.011-.007Zm.053-.035.009-.005Zm4.581-.016a.3.3,0,0,1-.132-.039A.3.3,0,0,0,7.167,25.948Zm39.4-.013h.009c.627-2.571.976-5.639,1.826-8.424-.85,2.785-1.2,5.853-1.828,8.424Zm-39.53-.026a4.879,4.879,0,0,0-.625-.3A4.88,4.88,0,0,1,7.035,25.909Zm-1.686-.58A4.108,4.108,0,0,0,4.83,25.3,4.1,4.1,0,0,1,5.349,25.329Zm26.858-4.2a.351.351,0,0,0,.35.339.35.35,0,0,1-.35-.339c-.006-.055-.009-.112-.014-.167h0C32.2,21.015,32.2,21.072,32.207,21.127Zm.4.335h0Zm.021,0h0Zm0,0a.345.345,0,0,0,.2-.126A.345.345,0,0,1,32.629,21.458Zm.2-.13.013-.018Zm.062-.09a7.448,7.448,0,0,1,6.057-3.215A7.447,7.447,0,0,0,32.891,21.238Zm30.852-.121a.365.365,0,0,1-.357-.339A.365.365,0,0,0,63.744,21.118Zm-.309-.512c.194.056.388.107.584.159-.194-.052-.39-.1-.584-.159Zm-37.669-.954,0-.011Zm0-.013,0-.006Zm0-.009a.411.411,0,0,1-.011-.049A.41.41,0,0,0,25.759,19.629ZM17.646.671c3.309.152,5.667,3.115,6.73,6,1.5,4.082.8,8.651,1.37,12.893a2.837,2.837,0,0,1,.5-1.522v0a2.835,2.835,0,0,0-.5,1.522c-.571-4.241.135-8.81-1.369-12.893-1.062-2.885-3.419-5.849-6.728-6-.094,0-.187-.006-.28-.006Q17.506.665,17.646.671Zm8.746,18.807c-.214.031-.43.06-.646.086q.324-.039.648-.086c-.033-.238-.061-.478-.086-.718C26.332,19,26.359,19.241,26.391,19.478Zm.012.052a2.135,2.135,0,0,1,.028-.26A2.135,2.135,0,0,0,26.4,19.53Zm.046-.349,0-.013Zm12.536-1.159h0Z" transform="translate(265.617 226.412)" fill="#d5eaf5"/>
      <g id="그룹_15774" data-name="그룹 15774" transform="translate(24.407 -10.779)">
        <path id="합치기_12" data-name="합치기 12" d="M33.656,32.824c-5.708-.006-11.41-.006-17.118-.032q-4.272-.016-8.556-.043c-.6,0-1.2,0-1.808.011a35.606,35.606,0,0,1-6.151-.287.037.037,0,0,1,0-.069c.364-.062.728-.111,1.1-.148l-.013-.117h0a.188.188,0,0,1-.2-.167,9.053,9.053,0,0,1,4.987-9.124,9.482,9.482,0,0,1,9.727,1.086,32.685,32.685,0,0,1,4.451-13.79C24.263,3.412,31.907-1.279,39.994.311c7.174,1.4,12.587,8.345,10.992,15.6a5.428,5.428,0,0,1,7.68,5.512c-.017.2-.049.407-.085.61.036-.2.068-.407.088-.61a9.6,9.6,0,0,1,9.58,9.957.474.474,0,0,1-.495.462h0l-.019.449c-11.342-.437-22.722-.259-34.078-.239,11.355-.02,22.736-.2,34.078.24.056,0,.1.006.16.006a.139.139,0,0,1,0,.278c-6.138.239-12.286.3-18.434.3C44.191,32.874,38.922,32.832,33.656,32.824Zm-32-.618h0Zm.107-.008.04,0Zm.105-.008.082-.006Zm.106-.007c1.348-.092,2.719-.078,4.074-.064.65.007,1.3.014,1.934.009q4.281-.029,8.556-.045-4.272.019-8.556.043c-.643.005-1.293,0-1.948-.008-.484,0-.969-.01-1.455-.01C3.708,32.108,2.836,32.123,1.973,32.182Zm-.606-.273a.209.209,0,0,1-.074.163.206.206,0,0,0,.074-.161,10.47,10.47,0,0,1,1.114-4.7A10.466,10.466,0,0,0,1.367,31.91Zm65.917-.53a.432.432,0,0,0,.424.461.433.433,0,0,1-.423-.46,8.654,8.654,0,0,0-8.71-9.008l.006-.332-.007.332c-.148,0-.3.007-.449.013a.47.47,0,0,1-.473-.5.472.472,0,0,0,.473.5c.148-.006.3-.013.449-.013A8.653,8.653,0,0,1,67.284,31.38ZM6.075,23.612a8.018,8.018,0,0,0-3.447,3.33,8.008,8.008,0,0,1,3.447-3.328,8.224,8.224,0,0,1,4.5-.795,8.537,8.537,0,0,0-.874-.045A8.168,8.168,0,0,0,6.075,23.612Zm9.58,1.531a.462.462,0,0,0,.253.126.46.46,0,0,1-.25-.126l-.2-.182Zm-.227-.21.074-.084-.074.082a8.774,8.774,0,0,0-3.881-1.955A8.765,8.765,0,0,1,15.429,24.933ZM32.3,1.556C22.111,4.472,17.475,15.131,16.433,24.822,17.476,15.131,22.111,4.472,32.3,1.556a16.2,16.2,0,0,1,3.25-.575A16.208,16.208,0,0,0,32.3,1.556ZM15.527,24.822h0c.026-.3.056-.593.092-.888C15.583,24.229,15.55,24.524,15.527,24.822Zm.527-.219.025-.01Zm.08-.033.17-.069Zm.17-.069c-.223-.2-.449-.388-.685-.568C15.855,24.113,16.082,24.3,16.3,24.5Zm-4.772-1.528-.018,0Zm-.048-.01-.009,0Zm-.815-.133h0Zm-.047-.005-.038,0Zm47.5-1.387c.148.2.3.4.456.6h0c-.155-.2-.309-.4-.456-.6Zm-.378-.979v0Zm0-.033a4.479,4.479,0,0,0-7-3.286l-.062-.086c-.226-.18-.455-.353-.688-.53h0c.234.177.463.351.689.529l.062.088a4.591,4.591,0,0,1,2.552-.789A4.452,4.452,0,0,1,57.743,20.425Zm-7.505-3.01a.519.519,0,0,1-.485-.485A.518.518,0,0,0,50.238,17.415Zm-.485-.486s0-.005,0-.008S49.753,16.927,49.753,16.929Zm.018-.122A11.819,11.819,0,0,0,48.217,6.636,11.82,11.82,0,0,1,49.772,16.807Z" transform="translate(166.469 163.779)" fill="#d5eaf5"/>
      </g>
      <path id="패스_26150" data-name="패스 26150" d="M181.693,33.829a4.828,4.828,0,1,0-9.629-.512,5.118,5.118,0,0,0,2.356,4.64c.04.107.08.214.111.328a5.125,5.125,0,0,0,.422,1.314,2.063,2.063,0,0,0,1.767.885c.047,0,.093,0,.14,0a1.858,1.858,0,0,0,.24.005,1.947,1.947,0,0,0,1.606-.724,1.443,1.443,0,0,0,.142-.4,2.834,2.834,0,0,0,.131-.261,5.83,5.83,0,0,0,.327-1.155,5.149,5.149,0,0,0,2.387-4.12" transform="translate(-89.798 175.241)" fill="#ffcb48"/>
      <path id="패스_26151" data-name="패스 26151" d="M175.966,33.377a1.281,1.281,0,0,0,.278-.237c.254-.289.493-.873.171-1.2s-.631.048-.688.347a4.1,4.1,0,0,0-.036,1.023,1.15,1.15,0,0,1-.313.1l-.019-.067a2.012,2.012,0,0,0-1-1.343c-.418-.154-.538.221-.486.527a1.337,1.337,0,0,0,1.366,1.063c.033.13.06.258.083.386a11.665,11.665,0,0,1-.1,4.033c-.009.055.09.073.107.019a8.427,8.427,0,0,0,.092-4.45,1.333,1.333,0,0,0,.283-.071c.043.462.118.927.149,1.355a9.1,9.1,0,0,1-.23,3.018.111.111,0,0,0,.211.064,7.271,7.271,0,0,0,.232-3.49c-.033-.356-.073-.714-.1-1.074m-1.751-.508a.671.671,0,0,1-.15-.434c.073-.346.368-.214.571-.016a2.283,2.283,0,0,1,.557,1,1.22,1.22,0,0,1-.977-.546m1.722-.273a1.374,1.374,0,0,1,.022-.347c.131.048.261.1.391.147.067.1-.142.465-.188.532a1.215,1.215,0,0,1-.211.221c-.01-.185-.017-.368-.014-.553" transform="translate(-88.483 177.663)" fill="#fff0d2"/>
      <path id="패스_26152" data-name="패스 26152" d="M176.473,35.644a.281.281,0,0,0-.182-.278.286.286,0,0,0-.182-.016.248.248,0,0,0-.161-.012,3.521,3.521,0,0,1-.809.067c-.168-.031-.335-.071-.5-.105-.14-.052-.3-.086-.4.024a.137.137,0,0,0-.038.128.331.331,0,0,0-.038.261.432.432,0,0,0,.207.249.236.236,0,0,0-.078.239.377.377,0,0,0,.213.233.662.662,0,0,0,.173.071c-.057.543,1.6.443,1.488-.061l-.012-.036a.551.551,0,0,0,.23-.206.253.253,0,0,0-.031-.309.365.365,0,0,0,.125-.249" transform="translate(-88.275 180.167)" fill="#aacbe8"/>
      <g id="그룹_15775" data-name="그룹 15775" transform="translate(7.372 244.862)">
        <path id="패스_26153" data-name="패스 26153" d="M170.262,60.346a7.326,7.326,0,0,1,2.585,6.543q-11.97.519-23.948.4a4.771,4.771,0,0,0-3.954-4.825c1.532-4.222,4.216-8.623,9-9.335,5.423-.8,9.6,4.244,8.694,9.4-.074.432.819.294.9-.074.693-3.162,4.3-3.891,6.727-2.118" transform="translate(-114.927 -51.725)" fill="#d5eaf5"/>
        <path id="패스_26154" data-name="패스 26154" d="M185.5,67.446a7.328,7.328,0,0,0-2.584-6.543c-2.429-1.774-6.032-1.042-6.727,2.118-.08.368-.972.507-.9.074.906-5.159-3.271-10.207-8.694-9.4-4.78.712-7.465,5.112-9,9.335a4.768,4.768,0,0,1,3.952,4.823q11.978.114,23.948-.4m-4.118-8.056c3.663.819,5.223,4.545,5.017,7.978a.344.344,0,0,1-.206.268c.038.187-.15.432-.456.448q-12.175.534-24.367.417c-5.67.221-11.356.133-17.033.123q-4.263,0-8.523-.014-2.126-.01-4.26-.022a25.238,25.238,0,0,1-3.961-.138c-.016,0-.016-.031,0-.033.18-.031.361-.055.546-.074l-.007-.059a.093.093,0,0,1-.1-.083,4.5,4.5,0,0,1,2.482-4.541,4.718,4.718,0,0,1,4.842.541,16.251,16.251,0,0,1,2.215-6.865c2.087-3.352,5.893-5.688,9.92-4.9,3.572.7,6.265,4.156,5.471,7.767a2.7,2.7,0,0,1,3.822,2.671c1.722-4.619,4.789-9.211,10.066-9.837a8.491,8.491,0,0,1,9.455,8.013,5.211,5.211,0,0,1,5.076-1.663" transform="translate(-127.581 -52.283)" fill="#d5eaf5"/>
      </g>
      <g id="그룹_15776" data-name="그룹 15776" transform="translate(-10 -40)">
        <path id="패스_26155" data-name="패스 26155" d="M300.4,57.97c-.522,3.418-3.043,5.615-5.684,5.463a7.1,7.1,0,0,1-1.689-.259c-2.59-.9-2.552-3.727-2.1-6.654.5-3.247,1.008-6.165,4.647-5.62.19.028.833.111,1.039.159,2.578.6,4.313,3.494,3.791,6.912" transform="translate(-3.342 191.522)" fill="#ff9a2e"/>
        <path id="패스_26156" data-name="패스 26156" d="M299.574,57.776c-.522,3.418-3.069,5.862-5.686,5.463s-4.313-3.5-3.791-6.913,3.068-5.862,5.684-5.461,4.315,3.494,3.793,6.912" transform="translate(-3.845 191.514)" fill="#ffcb48"/>
        <path id="패스_26157" data-name="패스 26157" d="M296.981,54.706a2.272,2.272,0,0,0-2.138-2.541c-.937-.05-2.444.154-2.984,1.032-.816,1.329.491,2.671,1.582,3.2.844.406,2.232.861,2.213,2.021-.021,1.267-2.087,1.208-2.788.605a1.857,1.857,0,0,1-.621-1.926c.036-.178-1.077-.207-1.144.126-.569,2.8,4.775,4.094,5.617,1.523.51-1.558-1.473-2.216-2.488-2.737a2.339,2.339,0,0,1-1.411-2.406,1.462,1.462,0,0,1,2.481-.526,2.369,2.369,0,0,1,.538,1.758c-.012.226,1.127.188,1.144-.126" transform="translate(-3.076 192.487)" fill="#ffe5b0"/>
        <path id="패스_26158" data-name="패스 26158" d="M293.189,52.162q-.643,4.206-1.286,8.41c-.028.173.491.131.529-.114l1.286-8.409c.028-.175-.491-.133-.529.112" transform="translate(-2.461 192.331)" fill="#ffe5b0"/>
        <path id="패스_26159" data-name="패스 26159" d="M294.006,52.189l-1.286,8.41c-.026.173.413.119.449-.126q.643-4.2,1.288-8.409c.026-.175-.413-.121-.451.124" transform="translate(-1.866 192.344)" fill="#ffe5b0"/>
      </g>
      <g id="그룹_15777" data-name="그룹 15777" transform="translate(73.213 219.257)">
        <path id="패스_26160" data-name="패스 26160" d="M185.239,51.107s4.26.918,4.626-.316a2.24,2.24,0,0,0-1.167-2.55s1.274-3.77.256-5.625c-.571-1.037-2.374-2.317-3.224-1.431,0,0-1.243-1.959-2.97-1.359s-1.865,2.98-1.865,2.98-2.308-.876-1.769,1.424c0,0-5.167-1.613-7.546,2.355s1.295,7.288,2.839,8.339,10.82-3.817,10.82-3.817" transform="translate(-163.927 -35.841)" fill="#ffe5b0"/>
        <path id="패스_26161" data-name="패스 26161" d="M189.033,42.691a4.046,4.046,0,0,0-1.431-1.31,2.391,2.391,0,0,0-.9-.3.923.923,0,0,0-.8.271.128.128,0,0,1-.178.01l-.017-.019-.009-.012a3.732,3.732,0,0,0-1.281-1.136,1.851,1.851,0,0,0-1.594-.069,2.311,2.311,0,0,0-1.151,1.138,4.474,4.474,0,0,0-.456,1.632.248.248,0,0,1-.268.226.237.237,0,0,1-.06-.014,1.624,1.624,0,0,0-1.269-.017.591.591,0,0,0-.23.474,2.716,2.716,0,0,0,.007.334l.064.349a.269.269,0,0,1-.218.313.281.281,0,0,1-.114,0,8.28,8.28,0,0,0-4.362-.019,5.244,5.244,0,0,0-1.9,1.037,5.7,5.7,0,0,0-1.29,1.751,4.792,4.792,0,0,0-.5,2.113,5.233,5.233,0,0,0,.522,2.135A9.593,9.593,0,0,0,174.5,55a9.114,9.114,0,0,1-3.162-3.3,5.535,5.535,0,0,1-.638-2.253,5.207,5.207,0,0,1,.462-2.315l.268-.531c.1-.173.22-.33.33-.494a5.256,5.256,0,0,1,2.854-2.064,8.229,8.229,0,0,1,4.671.014l-.332.308-.069-.411a3.071,3.071,0,0,1,0-.437,1.1,1.1,0,0,1,.46-.845,1.441,1.441,0,0,1,.9-.2,3.15,3.15,0,0,1,.826.178l-.328.213a4.951,4.951,0,0,1,.531-1.82,2.733,2.733,0,0,1,1.414-1.291,2.228,2.228,0,0,1,1.893.145,3.9,3.9,0,0,1,1.348,1.29l-.2-.021a1.165,1.165,0,0,1,1.015-.289,2.514,2.514,0,0,1,.944.38,3.858,3.858,0,0,1,1.36,1.431" transform="translate(-164.006 -35.916)" fill="#ffedcc"/>
        <path id="패스_26162" data-name="패스 26162" d="M168.667,77.256c-.553.245-1.976,1.49-1.832,1.883.332.916,3.176-.443,3.177-.816a3.805,3.805,0,0,0-.114-1.01.4.4,0,0,1-.042.057.479.479,0,0,1-.052.066,1,1,0,0,1-.14.128l-.028.022c-.441.354-1.229.716-1.527.583-.259-.112.322-.707.486-.857a.554.554,0,0,0,.071-.055" transform="translate(-166.824 -8.48)" fill="#30193b"/>
        <path id="패스_26163" data-name="패스 26163" d="M168.08,77.313c-.164.15-.743.745-.486.856.3.135,1.087-.226,1.526-.583a1.263,1.263,0,0,1-1.1.24c-.258-.112-.028-.417.137-.57l-.005,0a.458.458,0,0,1-.071.055" transform="translate(-166.31 -8.48)" fill="#ff97a6"/>
        <path id="패스_26164" data-name="패스 26164" d="M168,77.456c-.162.154-.394.458-.135.569a1.259,1.259,0,0,0,1.1-.239.223.223,0,0,0,.029-.022,1.7,1.7,0,0,0,.138-.128.375.375,0,0,0,.054-.064c.016-.021.029-.04.042-.059a1.032,1.032,0,0,0-.1-.228.688.688,0,0,1-.107-.3c-.121.017-.251.031-.372.043a.409.409,0,0,1-.114.111,3.694,3.694,0,0,0-.538.322" transform="translate(-166.152 -8.68)" fill="#ff97a6"/>
        <path id="패스_26165" data-name="패스 26165" d="M175.592,77.614c.007.284,3.387.3,3.413.066.088-.851-.944-.8-1.642-.894.349.076.258.261-.014.344a2.17,2.17,0,0,1-1.649-.287,1.956,1.956,0,0,0-.107.771" transform="translate(-160.436 -8.822)" fill="#30193b"/>
        <path id="패스_26166" data-name="패스 26166" d="M175.788,76.484c-.036.175-.111.527-.135.579a2.158,2.158,0,0,0,1.648.287c.292-.09.06-.254-.125-.367a3.49,3.49,0,0,1-.747-.216.458.458,0,0,1-.2-.216c-.14-.022-.283-.041-.4-.059l-.038-.009" transform="translate(-160.39 -9.042)" fill="#ff97a6"/>
        <path id="패스_26167" data-name="패스 26167" d="M176.588,76.78l-.054-.007c.185.112.418.277.125.367.273-.083.365-.268.016-.344l-.086-.016" transform="translate(-159.748 -8.832)" fill="#ff97a6"/>
        <path id="패스_26168" data-name="패스 26168" d="M185.3,56.426a11.616,11.616,0,0,0-2.132-5.131h0a4.268,4.268,0,0,1-2.932.363,19.239,19.239,0,0,1-5.046-1.637,6.177,6.177,0,0,1-1.483-.852,11.892,11.892,0,0,0-4.453,5.081c-2.277,4.54-.9,38.053-1.075,43.06.016.131,1.369,0,1.369,0l7.541-37.787,4.089,36.6a.355.355,0,0,0,.259.271l.036.009.4.059c.09.012.176.022.259.036a.356.356,0,0,0,.4-.346c.109-6.1,3.445-34.936,2.768-39.721" transform="translate(-166.029 -28.948)" fill="#7f65c1"/>
        <path id="패스_26169" data-name="패스 26169" d="M169.406,50.782s1.072-1.025,1.488-.749,1.112.707,1.042.916-.572-.121-.572-.121a4.264,4.264,0,0,1,.192.607c0,.1-.294,0-.294,0a.259.259,0,0,1-.052.278c-.121.138-.325-.277-.536-.363s-.992.242-1.423.09c-.161-.055-.156-.391.154-.659" transform="translate(-165.131 -28.353)" fill="#ff97a6"/>
        <path id="패스_26170" data-name="패스 26170" d="M184.91,55.729a11.616,11.616,0,0,0-2.132-5.131h0a4.268,4.268,0,0,1-2.932.363,7.416,7.416,0,0,1-3.122-.833c-.854-.406-8.6,46.55-8.265,46.534s.7-.05.7-.05l7.541-37.787,4.089,36.6a.355.355,0,0,0,.259.271l.036.009.4.059c.09.012.176.022.259.036a.356.356,0,0,0,.4-.346c.109-6.1,3.445-34.936,2.768-39.721" transform="translate(-165.643 -28.251)" fill="#6e57b5"/>
        <path id="패스_26171" data-name="패스 26171" d="M185.572,46.107c-.636-.266-1.3-.586-2-.885a1.779,1.779,0,0,1-.36.363c-.584.4-.785-.187-.738-.5a.945.945,0,0,1,.128-.264,11.113,11.113,0,0,0-2.994-.74c-.837-.071-2.068-.541-2.892.617-1.813,2.541-5.114,7.582-5.456,8.291a7.777,7.777,0,0,0,1.359,1.115,10.294,10.294,0,0,0,5.124,1.724,6.763,6.763,0,0,0,3.274-.29,24.494,24.494,0,0,0,3.5-3.483,11.578,11.578,0,0,0,2.09-3.974,1.619,1.619,0,0,0-1.037-1.972" transform="translate(-163.592 -32.768)" fill="#aacbe8"/>
        <path id="패스_26172" data-name="패스 26172" d="M179.475,44.48c-.107.073-.526-.723-.5-.871.01-.08-.415.46-.548.664-.23.311-.415.572-.546.785a.947.947,0,0,0-.128.266c-.047.313.154.9.738.5a1.841,1.841,0,0,0,.36-.365c.121-.156.247-.344.373-.541-.112.142.353-.507.254-.437" transform="translate(-158.867 -33.006)" fill="#ff97a6"/>
        <path id="패스_26173" data-name="패스 26173" d="M178.6,44.384a.4.4,0,0,0,.038-.048l-.007,0-.031.05" transform="translate(-158.244 -32.472)" fill="#c95d77"/>
        <path id="패스_26174" data-name="패스 26174" d="M186.518,49.839l-5.876-1.063s5.779,4.74,7.344,3.674a28.9,28.9,0,0,0,4.552-7.406,1.627,1.627,0,0,0-.935-1.8,1.735,1.735,0,0,1-.252.119l-.567.031s0-.178.017-.43a.386.386,0,0,0-.335.138c-.823.968-3.947,6.739-3.947,6.739" transform="translate(-156.755 -33.473)" fill="#91c1e5"/>
        <path id="패스_26175" data-name="패스 26175" d="M181.827,42.676c-.114.067-.1.38-.035.546s.225.424.351.42a.592.592,0,0,0,.252-.092.608.608,0,0,1-.316-.5.764.764,0,0,1,.061-.425.507.507,0,0,0-.313.055" transform="translate(-155.952 -33.723)" fill="#ff5e4d"/>
        <path id="패스_26176" data-name="패스 26176" d="M185.376,43.233a1.254,1.254,0,0,1-.284-.55.911.911,0,0,1,.022-.605l-3.063.87a.168.168,0,0,0-.052.066.764.764,0,0,0-.061.425.608.608,0,0,0,.316.5.43.43,0,0,0,.041.022l3.124-.695a.31.31,0,0,1-.045-.038" transform="translate(-155.812 -34.116)" fill="#295a6e"/>
        <path id="패스_26177" data-name="패스 26177" d="M185.622,42.492a2.808,2.808,0,0,1-.157-.807l-1.445.465a.247.247,0,0,0-.137.081.452.452,0,0,0-.081.133.911.911,0,0,0-.023.605,1.246,1.246,0,0,0,.284.55.426.426,0,0,0,.043.038.392.392,0,0,0,.322.081c.3-.057.987-.2,1.578-.32a2.792,2.792,0,0,1-.384-.826" transform="translate(-154.497 -34.402)" fill="#ff5e4d"/>
        <path id="패스_26178" data-name="패스 26178" d="M189.7,43.9a1.221,1.221,0,0,0-.413.206l3.183-.617a1.145,1.145,0,0,1-.273-.1,2.119,2.119,0,0,1-1.091-1.67,2.954,2.954,0,0,1,.042-1.392,1.351,1.351,0,0,1,.069-.162l-6.033,1.855a.6.6,0,0,0-.408.418,1.267,1.267,0,0,0-.031.356,2.808,2.808,0,0,0,.157.807,2.84,2.84,0,0,0,.382.826c.3.422.558.347.558.347l2.028-.394c.041-.439.117-.854.245-.9a2.423,2.423,0,0,1,1.16-.073c.1-.048.188-.062.251-.01a.149.149,0,0,1,.054.1c.318.126.427.306.121.4" transform="translate(-153.77 -35.51)" fill="#295a6e"/>
        <path id="패스_26179" data-name="패스 26179" d="M186.792,42.13c-.128.045-.2.46-.247.9l.507-.1.005,0a4.767,4.767,0,0,1,.9-.873,2.422,2.422,0,0,0-1.16.073" transform="translate(-152.453 -34.159)" fill="#295a6e"/>
        <path id="패스_26180" data-name="패스 26180" d="M187.073,42.551l-.507.1c-.022.214-.038.436-.048.619a.232.232,0,0,1,.06,0l.1.021a2.237,2.237,0,0,1,.638.254c.486-.294.344-.692.529-1.011-.128.143-.23.245-.23.245l-.543-.232Z" transform="translate(-152.472 -33.781)" fill="#ff97a6"/>
        <path id="패스_26181" data-name="패스 26181" d="M186.586,42.965a.237.237,0,0,0-.06,0c-.016.251-.017.43-.017.43l.567-.031a1.727,1.727,0,0,0,.252-.121,2.236,2.236,0,0,0-.638-.254Z" transform="translate(-152.48 -33.472)" fill="#aacbe8"/>
        <path id="패스_26182" data-name="패스 26182" d="M186.841,42.62l.543.23s.1-.1.23-.244l0,0a.545.545,0,0,1,.128-.152l.005-.007Z" transform="translate(-152.237 -33.849)" fill="#ff97a6"/>
        <path id="패스_26183" data-name="패스 26183" d="M186.841,42.914l.908-.176c.164-.209.318-.455.292-.609a1.558,1.558,0,0,0-.3-.088,4.767,4.767,0,0,0-.9.873" transform="translate(-152.237 -34.143)" fill="#ff97a6"/>
        <path id="패스_26184" data-name="패스 26184" d="M187.288,42.6c.041-.043.085-.1.13-.152a.584.584,0,0,0-.13.152" transform="translate(-151.911 -33.847)" fill="#ff97a6"/>
        <path id="패스_26185" data-name="패스 26185" d="M187.61,42.049c-.062-.054-.15-.04-.251.01a1.562,1.562,0,0,1,.3.086.144.144,0,0,0-.054-.1" transform="translate(-151.86 -34.161)" fill="#ff97a6"/>
        <path id="패스_26186" data-name="패스 26186" d="M187.658,42.091a1.032,1.032,0,0,1-.292.609,1.221,1.221,0,0,1,.413-.206c.306-.1.2-.278-.121-.4" transform="translate(-151.855 -34.106)" fill="#295a6e"/>
        <path id="패스_26187" data-name="패스 26187" d="M201.783,42.557a8.8,8.8,0,0,1-.87-2.2,7.687,7.687,0,0,1-.126-2.28l-11.51,3.039a1.134,1.134,0,0,0-.723.564,1.12,1.12,0,0,0-.069.162,2.972,2.972,0,0,0-.043,1.392,2.119,2.119,0,0,0,1.091,1.67,1.074,1.074,0,0,0,.273.1h.005a1.2,1.2,0,0,0,.465,0l11.61-2.334a.508.508,0,0,1-.1-.116" transform="translate(-151.112 -37.029)" fill="#ff5e4d"/>
        <path id="패스_26188" data-name="패스 26188" d="M195.68,38.266a.156.156,0,0,0-.111.137c0,.033-.009.073-.01.118l.413-.107,1.058,4.624-.372.076a.479.479,0,0,0,.354.1l2.712-.358c-.256.066-.693-.759-1.041-1.929-.031-.114-.069-.237-.1-.363-.022-.085-.045-.173-.066-.261a.193.193,0,0,1-.012-.038c-.014-.052-.024-.1-.035-.152-.016-.067-.028-.13-.042-.188s-.026-.121-.038-.185c-.01-.041-.017-.083-.026-.124-.021-.121-.04-.239-.055-.342-.161-1-.13-1.743.1-1.8Z" transform="translate(-145.884 -37.471)" fill="#295a6e"/>
        <path id="패스_26189" data-name="패스 26189" d="M195.986,38.017l-.413.107a7.687,7.687,0,0,0,.124,2.282,8.752,8.752,0,0,0,.871,2.2.432.432,0,0,0,.1.114l.372-.076Z" transform="translate(-145.898 -37.075)" fill="#295a6e"/>
        <path id="패스_26190" data-name="패스 26190" d="M198.5,40.034c-.363-1.485-.906-2.631-1.214-2.559-.226.057-.258.8-.1,1.8-.062-.448-.06-.754.022-.773.114-.026.344.493.551,1.224l0,0c.042.131.076.275.112.418.052.206.092.408.13.591.123.66.147,1.15.043,1.172s-.292-.382-.482-.982c.349,1.17.785,1.995,1.042,1.929.306-.073.256-1.34-.107-2.825" transform="translate(-144.767 -37.472)" fill="#1e5160"/>
        <path id="패스_26191" data-name="패스 26191" d="M180.519,45.354a29.077,29.077,0,0,0,7.316,2.761l.29,2.688a19.225,19.225,0,0,1-7.325-3.067,10.5,10.5,0,0,1-1.966-1.85c-.031-.042,1.4-.7,1.684-.532" transform="translate(-158.072 -31.747)" fill="#91c1e5"/>
        <path id="패스_26192" data-name="패스 26192" d="M183.5,44.593a19.715,19.715,0,0,0-4.538-1.061c-2.83-.192-7.449.277-9.311,1.983-2.128,1.948-3.091,8.851-.394,10.7,1,.69,2.028-1.5,2.028-1.5l.972-7.377,7.861-1.5Z" transform="translate(-166.252 -33.085)" fill="#aacbe8"/>
        <path id="패스_26193" data-name="패스 26193" d="M178.869,44.58a2.251,2.251,0,0,1-.361-.8c-.073.093-.15.23-.223.323l-.27.368a.177.177,0,0,0,.041.244,1.588,1.588,0,0,0,.866.27l.124-.192c.01-.014.021-.033.031-.048a.78.78,0,0,1-.209-.161" transform="translate(-158.693 -32.878)" fill="#c95d77"/>
        <path id="패스_26194" data-name="패스 26194" d="M181.386,44.734a5.407,5.407,0,0,0-.1-1.494.878.878,0,0,0-1.022-.738,5.817,5.817,0,0,0-1.8.494c-.328.273-.278.79-.247,1.174a3.291,3.291,0,0,0,.109.564l.01.022a2.07,2.07,0,0,0,.365.764.927.927,0,0,0,.209.161h.009a1.873,1.873,0,0,0,1.016.252c1.042-.14,1.309-.441,1.444-1.2" transform="translate(-158.533 -33.817)" fill="#ff97a6"/>
        <path id="패스_26195" data-name="패스 26195" d="M184.234,45.561c-.636-.266-1.3-.586-2-.885a1.779,1.779,0,0,1-.36.363c-.285.194-1.274,3.131-3.423,5.373a27.511,27.511,0,0,1-5.356,4.135s.169.064.254.093a14.52,14.52,0,0,0,3.055.641,6.763,6.763,0,0,0,3.274-.29,24.493,24.493,0,0,0,3.5-3.483,11.579,11.579,0,0,0,2.09-3.974,1.619,1.619,0,0,0-1.037-1.972" transform="translate(-162.254 -32.222)" fill="#91c1e5"/>
      </g>
      <g id="그룹_15778" data-name="그룹 15778" transform="translate(51.076 288.023)">
        <path id="패스_26196" data-name="패스 26196" d="M155.365,132.822a.276.276,0,0,1-.074-.01.272.272,0,0,1-.188-.337L168.13,86.067a.274.274,0,0,1,.527.149l-13.03,46.408a.273.273,0,0,1-.263.2" transform="translate(-153.237 -70.969)" fill="#295a6e"/>
        <path id="패스_26197" data-name="패스 26197" d="M199.136,120.49a.275.275,0,0,1-.244-.147c-.183-.356-18.383-35.5-21.106-38.919a10.5,10.5,0,0,0-6.9-3.627.274.274,0,1,1,.031-.546,10.87,10.87,0,0,1,7.3,3.833c2.756,3.456,20.413,37.557,21.163,39.007a.272.272,0,0,1-.116.368.283.283,0,0,1-.126.031" transform="translate(-141.913 -77.25)" fill="#295a6e"/>
        <path id="패스_26198" data-name="패스 26198" d="M213.2,114.375l-51.237,17.308a4.116,4.116,0,0,1-5.217-2.583l-2.51-7.43a4.117,4.117,0,0,1,2.583-5.217l51.236-17.306a4.117,4.117,0,0,1,5.217,2.581l2.51,7.43a4.116,4.116,0,0,1-2.583,5.217" transform="translate(-154.019 -61.451)" fill="#ffe5b0"/>
        <path id="패스_26199" data-name="패스 26199" d="M157.749,110.767a.928.928,0,1,1-.928-.928.929.929,0,0,1,.928.928" transform="translate(-152.654 -53.501)" fill="#295a6e"/>
        <path id="패스_26200" data-name="패스 26200" d="M187.522,100.376a.928.928,0,1,1-.928-.928.929.929,0,0,1,.928.928" transform="translate(-130.957 -61.073)" fill="#295a6e"/>
        <path id="패스_26201" data-name="패스 26201" d="M8.01.093,6.439,6.159h-1.2l-.96-3.483q-.042-.17-.106-.437T4.056,1.72a2.792,2.792,0,0,1-.064-.378q-.017.127-.068.378t-.11.518q-.059.268-.11.454L2.769,6.159H1.563L0,.093H1.087L1.92,3.551q.059.221.115.5t.106.556q.051.276.076.48.025-.221.076-.5T2.4,4.048a4.575,4.575,0,0,1,.115-.454l.951-3.5H4.519L5.488,3.6q.059.2.119.467t.11.544q.051.272.076.476.025-.2.076-.48t.11-.552q.059-.276.11-.505L6.923.093Zm7.017,3.024a4.034,4.034,0,0,1-.31,1.644,2.376,2.376,0,0,1-.947,1.092,3.006,3.006,0,0,1-1.6.391,3,3,0,0,1-1.605-.391,2.387,2.387,0,0,1-.939-1.1,4.065,4.065,0,0,1-.31-1.648,4.011,4.011,0,0,1,.31-1.635A2.359,2.359,0,0,1,10.572.387,3.045,3.045,0,0,1,12.181,0a3.01,3.01,0,0,1,1.593.387,2.359,2.359,0,0,1,.943,1.087A4.034,4.034,0,0,1,15.027,3.118Zm-4.562,0a2.767,2.767,0,0,0,.412,1.614,1.474,1.474,0,0,0,1.3.586,1.468,1.468,0,0,0,1.308-.586,2.835,2.835,0,0,0,.4-1.614,2.835,2.835,0,0,0-.4-1.614,1.458,1.458,0,0,0-1.3-.586,1.483,1.483,0,0,0-1.3.586A2.767,2.767,0,0,0,10.465,3.118ZM18.892.093a2.9,2.9,0,0,1,1.771.442,1.588,1.588,0,0,1,.573,1.342,1.6,1.6,0,0,1-.166.756,1.593,1.593,0,0,1-.433.522,2.563,2.563,0,0,1-.565.336l1.741,2.667H20.591l-1.453-2.4h-.883v2.4H17.168V.093ZM18.824,1h-.569V2.871h.6a1.554,1.554,0,0,0,.977-.242.871.871,0,0,0,.3-.718.773.773,0,0,0-.319-.7A1.846,1.846,0,0,0,18.824,1Zm9.387,5.156H26.962l-1.8-2.684-.569.45V6.159H23.5V.093h1.087V2.948q.17-.221.348-.437t.357-.437L26.936.093h1.232L25.943,2.761Zm3.7,0H29.357v-.62l.731-.272V.994l-.731-.28V.093h2.548v.62l-.731.28V5.267l.731.272Zm4.111,0H34.93V1.011H33.189V.093h4.57v.917H36.017Z" transform="matrix(0.94, -0.342, 0.342, 0.94, 12.183, 58.473)" fill="#154b89"/>
      </g>
      <g id="그룹_15779" data-name="그룹 15779" transform="translate(140.568 153)">
        <path id="패스_26202" data-name="패스 26202" d="M89.6,91.728l4.227,5.163,24.947-4.846Z" transform="translate(-89.595 -91.728)" fill="#fff"/>
        <path id="패스_26203" data-name="패스 26203" d="M91.945,96.482c.305.269.437,7.968.437,7.968l1.288-6.381,23.367-6.13Z" transform="translate(-88.024 -91.588)" fill="#d5eaf5"/>
        <path id="패스_26204" data-name="패스 26204" d="M101.72,98.771l-9.513,3.222L93.5,95.612l12.671.147Z" transform="translate(-87.849 -89.132)" fill="#92bddd"/>
        <path id="패스_26205" data-name="패스 26205" d="M92.979,98.082c.147.04,2.832,6.836,2.832,6.836l20.7-13Z" transform="translate(-87.333 -91.601)" fill="#fff"/>
      </g>
    </g>
  </g>
</svg>
