<svg xmlns="http://www.w3.org/2000/svg" width="968" height="530" viewBox="0 0 968 530">
  <g id="그룹_15674" data-name="그룹 15674" transform="translate(25 -1932)">
    <rect id="사각형_6990" data-name="사각형 6990" width="968" height="530" transform="translate(-25 1932)" fill="#52a2ff"/>
    <text id="Platform" transform="translate(389 2038)" fill="#fff" font-size="32" font-family="Roboto-Black, Roboto" font-weight="800"><tspan x="-63.422" y="0">Platform</tspan></text>
    <text id="Distributed_Production_Personalized_Consumption_Global_Digital_Connectivity_Monopoly_Intermediary" data-name="Distributed Production
Personalized Consumption
Global Digital Connectivity
Monopoly
Intermediary" transform="translate(387 2121)" fill="#fff" font-size="24" font-family="Roboto-Regular, Roboto"><tspan x="0" y="0">Distributed Production</tspan><tspan x="0" y="66">Personalized Consumption</tspan><tspan x="0" y="132">Global Digital Connectivity</tspan><tspan x="0" y="198">Monopoly</tspan><tspan x="0" y="264">Intermediary</tspan></text>
    <line id="선_369" data-name="선 369" x2="562" transform="translate(326.5 2067.5)" fill="none" stroke="#fff" stroke-width="2"/>
    <path id="Vector" d="M12.806,18.5,31.3,0,34.15,2.845,12.806,24.189,0,11.383,2.845,8.538Z" transform="translate(326 2098)" fill="#fff" opacity="0.5"/>
    <path id="Vector-2" data-name="Vector" d="M12.806,18.5,31.3,0,34.15,2.845,12.806,24.189,0,11.383,2.845,8.538Z" transform="translate(326 2165)" fill="#fff" opacity="0.5"/>
    <path id="Vector-3" data-name="Vector" d="M12.806,18.5,31.3,0,34.15,2.845,12.806,24.189,0,11.383,2.845,8.538Z" transform="translate(326 2232)" fill="#fff" opacity="0.5"/>
    <path id="Vector-4" data-name="Vector" d="M12.806,18.5,31.3,0,34.15,2.845,12.806,24.189,0,11.383,2.845,8.538Z" transform="translate(326 2299)" fill="#fff" opacity="0.5"/>
    <path id="Vector-5" data-name="Vector" d="M12.806,18.5,31.3,0,34.15,2.845,12.806,24.189,0,11.383,2.845,8.538Z" transform="translate(326 2365)" fill="#fff" opacity="0.5"/>
  </g>
</svg>
