<svg xmlns="http://www.w3.org/2000/svg" width="360" height="535" viewBox="0 0 360 535">
  <g id="그룹_15675" data-name="그룹 15675" transform="translate(0 -2772)">
    <rect id="사각형_6990" data-name="사각형 6990" width="360" height="535" transform="translate(0 2772)" fill="#52a2ff"/>
    <text id="Platform" transform="translate(71 2877)" fill="#fff" font-size="26" font-family="Roboto-Black, Roboto" font-weight="800"><tspan x="-51.53" y="0">Platform</tspan></text>
    <text id="Distributed_Production_Personalized_Consumption_Global_Digital_Connectivity_Monopoly_Intermediary" data-name="Distributed Production
Personalized Consumption
Global Digital Connectivity
Monopoly
Intermediary" transform="translate(56 2960)" fill="#fff" font-size="20" font-family="Roboto-Regular, Roboto"><tspan x="0" y="0">Distributed Production</tspan><tspan x="0" y="66">Personalized Consumption</tspan><tspan x="0" y="132">Global Digital Connectivity</tspan><tspan x="0" y="198">Monopoly</tspan><tspan x="0" y="264">Intermediary</tspan></text>
    <line id="선_369" data-name="선 369" x2="322" transform="translate(18.5 2906.5)" fill="none" stroke="#fff" stroke-width="2"/>
    <path id="Vector" d="M7.5,10.706,18.332,0,20,1.647,7.5,14,0,6.588,1.666,4.942Z" transform="translate(18 2947)" fill="#fff" opacity="0.5"/>
    <path id="Vector-2" data-name="Vector" d="M7.5,10.706,18.332,0,20,1.647,7.5,14,0,6.588,1.666,4.942Z" transform="translate(18 3012)" fill="#fff" opacity="0.5"/>
    <path id="Vector-3" data-name="Vector" d="M7.5,10.706,18.332,0,20,1.647,7.5,14,0,6.588,1.666,4.942Z" transform="translate(18 3078)" fill="#fff" opacity="0.5"/>
    <path id="Vector-4" data-name="Vector" d="M7.5,10.706,18.332,0,20,1.647,7.5,14,0,6.588,1.666,4.942Z" transform="translate(18 3144)" fill="#fff" opacity="0.5"/>
    <path id="Vector-5" data-name="Vector" d="M7.5,10.706,18.332,0,20,1.647,7.5,14,0,6.588,1.666,4.942Z" transform="translate(18 3209)" fill="#fff" opacity="0.5"/>
  </g>
</svg>
