<svg xmlns="http://www.w3.org/2000/svg" width="968" height="530" viewBox="0 0 968 530">
  <g id="그룹_15678" data-name="그룹 15678" transform="translate(-976 -1932)">
    <rect id="사각형_6991" data-name="사각형 6991" width="968" height="530" transform="translate(976 1932)" fill="#6db1ff"/>
    <text id="Protocol" transform="translate(1094 2038)" fill="#fff" font-size="32" font-family="Roboto-Black, Roboto" font-weight="800"><tspan x="-61.117" y="0">Protocol</tspan></text>
    <text id="Distributed_Ownership_Interoperable_Identity_Global_Contract_Execution_De-monopolization_Intermediary-Free" data-name="Distributed Ownership
Interoperable Identity
Global Contract Execution
De-monopolization
Intermediary-Free" transform="translate(1092 2121)" fill="#fff" font-size="24" font-family="Roboto-Regular, Roboto"><tspan x="0" y="0">Distributed Ownership</tspan><tspan x="0" y="66">Interoperable Identity</tspan><tspan x="0" y="132">Global Contract Execution</tspan><tspan x="0" y="198">De-monopolization</tspan><tspan x="0" y="264">Intermediary-Free</tspan></text>
    <line id="선_369" data-name="선 369" x2="562" transform="translate(1031.5 2067.5)" fill="none" stroke="#fff" stroke-width="2"/>
    <path id="Vector" d="M12.806,18.5,31.3,0,34.15,2.845,12.806,24.189,0,11.383,2.845,8.538Z" transform="translate(1031 2098)" fill="#fff" opacity="0.5"/>
    <path id="Vector-2" data-name="Vector" d="M12.806,18.5,31.3,0,34.15,2.845,12.806,24.189,0,11.383,2.845,8.538Z" transform="translate(1031 2165)" fill="#fff" opacity="0.5"/>
    <path id="Vector-3" data-name="Vector" d="M12.806,18.5,31.3,0,34.15,2.845,12.806,24.189,0,11.383,2.845,8.538Z" transform="translate(1031 2232)" fill="#fff" opacity="0.5"/>
    <path id="Vector-4" data-name="Vector" d="M12.806,18.5,31.3,0,34.15,2.845,12.806,24.189,0,11.383,2.845,8.538Z" transform="translate(1031 2299)" fill="#fff" opacity="0.5"/>
    <path id="Vector-5" data-name="Vector" d="M12.806,18.5,31.3,0,34.15,2.845,12.806,24.189,0,11.383,2.845,8.538Z" transform="translate(1031 2365)" fill="#fff" opacity="0.5"/>
  </g>
</svg>
