<svg xmlns="http://www.w3.org/2000/svg" width="360" height="535" viewBox="0 0 360 535">
  <g id="그룹_15679" data-name="그룹 15679" transform="translate(0 -3337)">
    <rect id="사각형_6990" data-name="사각형 6990" width="360" height="535" transform="translate(0 3337)" fill="#6db1ff"/>
    <text id="Protocol" transform="translate(71 3442)" fill="#fff" font-size="26" font-family="Roboto-Black, Roboto" font-weight="800"><tspan x="-49.658" y="0">Protocol</tspan></text>
    <text id="Distributed_Ownership_Interoperable_Identity_Global_Contract_Execution_De-monopolization_Intermediary-Free" data-name="Distributed Ownership
Interoperable Identity
Global Contract Execution
De-monopolization
Intermediary-Free" transform="translate(56 3525)" fill="#fff" font-size="20" font-family="Roboto-Regular, Roboto"><tspan x="0" y="0">Distributed Ownership</tspan><tspan x="0" y="66">Interoperable Identity</tspan><tspan x="0" y="132">Global Contract Execution</tspan><tspan x="0" y="198">De-monopolization</tspan><tspan x="0" y="264">Intermediary-Free</tspan></text>
    <line id="선_369" data-name="선 369" x2="322" transform="translate(18.5 3471.5)" fill="none" stroke="#fff" stroke-width="2"/>
    <path id="Vector" d="M7.5,10.706,18.332,0,20,1.647,7.5,14,0,6.588,1.666,4.942Z" transform="translate(18 3512)" fill="#fff" opacity="0.5"/>
    <path id="Vector-2" data-name="Vector" d="M7.5,10.706,18.332,0,20,1.647,7.5,14,0,6.588,1.666,4.942Z" transform="translate(18 3577)" fill="#fff" opacity="0.5"/>
    <path id="Vector-3" data-name="Vector" d="M7.5,10.706,18.332,0,20,1.647,7.5,14,0,6.588,1.666,4.942Z" transform="translate(18 3643)" fill="#fff" opacity="0.5"/>
    <path id="Vector-4" data-name="Vector" d="M7.5,10.706,18.332,0,20,1.647,7.5,14,0,6.588,1.666,4.942Z" transform="translate(18 3709)" fill="#fff" opacity="0.5"/>
    <path id="Vector-5" data-name="Vector" d="M7.5,10.706,18.332,0,20,1.647,7.5,14,0,6.588,1.666,4.942Z" transform="translate(18 3774)" fill="#fff" opacity="0.5"/>
  </g>
</svg>
