<svg xmlns="http://www.w3.org/2000/svg" xmlns:xlink="http://www.w3.org/1999/xlink" width="300" height="400" viewBox="0 0 300 400">
  <defs>
    <clipPath id="clip-path">
      <rect id="사각형_7022" data-name="사각형 7022" width="256.96" height="226.216" fill="none"/>
    </clipPath>
    <clipPath id="clip-path-3">
      <rect id="사각형_7017" data-name="사각형 7017" width="36.107" height="36.107" fill="none"/>
    </clipPath>
  </defs>
  <g id="그룹_15665" data-name="그룹 15665" transform="translate(-310 -1123)">
    <rect id="사각형_6974" data-name="사각형 6974" width="300" height="400" transform="translate(310 1123)" fill="#f4f4f6"/>
    <text id="Smart-Contract_for_security_of_payment" data-name="Smart-Contract 
for security of payment" transform="translate(336 1189)" fill="#333" font-size="24" font-family="Roboto-Bold, Roboto" font-weight="700" letter-spacing="-0.03em"><tspan x="0" y="0">Smart-Contract </tspan><tspan x="0" y="38">for security of payment</tspan></text>
    <g id="그룹_15654" data-name="그룹 15654" transform="translate(310 1296.784)">
      <g id="그룹_15653" data-name="그룹 15653" clip-path="url(#clip-path)">
        <g id="그룹_15652" data-name="그룹 15652">
          <g id="그룹_15651" data-name="그룹 15651" clip-path="url(#clip-path)">
            <path id="패스_25278" data-name="패스 25278" d="M210.995,280.6l1.9-30.486,29.659-1.558h0a36.047,36.047,0,0,1,0,37.792l-17.094,2.338-9.57-2.338c-2.7,0-4.894-2.573-4.894-5.748" transform="translate(-153.447 -180.76)" fill="#e29f73"/>
            <path id="패스_25279" data-name="패스 25279" d="M418.9,18.444h0a4.982,4.982,0,0,1-4.683-5.264,6.33,6.33,0,0,0-5.95-6.689L297.514.014a7.921,7.921,0,0,0-8.371,7.446l-8.866,151.6a7.922,7.922,0,0,0,7.446,8.371l109.16,6.384a7.921,7.921,0,0,0,8.371-7.446l5.961-101.932a4.982,4.982,0,0,1,5.264-4.683,4.982,4.982,0,0,0,5.264-4.683l1.834-31.367a4.982,4.982,0,0,0-4.683-5.264" transform="translate(-203.822 0)" fill="#fdc34a"/>
            <path id="패스_25280" data-name="패스 25280" d="M421.9,174.266l-115.135,1.261L304.975,12.292l97.056-1.063,18.277,17.88Z" transform="translate(-221.794 -8.166)" fill="#dde1e5"/>
            <path id="패스_25281" data-name="패스 25281" d="M427.584,176.29H312.344V12.906h97.144l18.1,18.1Z" transform="translate(-227.153 -9.386)" fill="#eaedef"/>
            <path id="패스_25282" data-name="패스 25282" d="M686.609,31h-18.1v-18.1Z" transform="translate(-486.179 -9.386)" fill="#ccd6da"/>
            <path id="패스_25283" data-name="패스 25283" d="M564.628,550.575h-50a.4.4,0,1,1,0-.8h50a.4.4,0,1,1,0,.8" transform="translate(-373.977 -399.827)" fill="#9b9b9a"/>
            <rect id="사각형_7000" data-name="사각형 7000" width="97.412" height="0.747" transform="translate(96.424 35.084) rotate(-0.914)" fill="#9b9b9a"/>
            <rect id="사각형_7001" data-name="사각형 7001" width="103.678" height="0.747" transform="translate(90.231 39.668) rotate(-0.914)" fill="#9b9b9a"/>
            <rect id="사각형_7002" data-name="사각형 7002" width="103.678" height="0.747" transform="translate(90.302 44.152) rotate(-0.914)" fill="#9b9b9a"/>
            <rect id="사각형_7003" data-name="사각형 7003" width="103.678" height="0.747" transform="translate(90.374 48.636) rotate(-0.914)" fill="#9b9b9a"/>
            <rect id="사각형_7004" data-name="사각형 7004" width="103.678" height="0.747" transform="translate(90.445 53.12) rotate(-0.914)" fill="#9b9b9a"/>
            <rect id="사각형_7005" data-name="사각형 7005" width="103.678" height="0.747" transform="translate(90.517 57.603) rotate(-0.914)" fill="#9b9b9a"/>
            <rect id="사각형_7006" data-name="사각형 7006" width="103.678" height="0.747" transform="translate(90.618 63.932) rotate(-0.914)" fill="#9b9b9a"/>
            <rect id="사각형_7007" data-name="사각형 7007" width="103.678" height="0.747" transform="translate(90.689 68.416) rotate(-0.914)" fill="#9b9b9a"/>
            <rect id="사각형_7008" data-name="사각형 7008" width="103.678" height="0.747" transform="translate(90.761 72.9) rotate(-0.914)" fill="#9b9b9a"/>
            <rect id="사각형_7009" data-name="사각형 7009" width="103.678" height="0.747" transform="translate(90.832 77.383) rotate(-0.914)" fill="#9b9b9a"/>
            <rect id="사각형_7010" data-name="사각형 7010" width="103.678" height="0.747" transform="translate(90.904 81.867) rotate(-0.914)" fill="#9b9b9a"/>
            <rect id="사각형_7011" data-name="사각형 7011" width="97.412" height="0.747" transform="matrix(1, -0.016, 0.016, 1, 97.27, 88.096)" fill="#9b9b9a"/>
            <rect id="사각형_7012" data-name="사각형 7012" width="103.678" height="0.747" transform="translate(91.077 92.679) rotate(-0.914)" fill="#9b9b9a"/>
            <rect id="사각형_7013" data-name="사각형 7013" width="103.678" height="0.747" transform="translate(91.148 97.163) rotate(-0.914)" fill="#9b9b9a"/>
            <rect id="사각형_7014" data-name="사각형 7014" width="103.678" height="0.747" transform="translate(91.22 101.647) rotate(-0.914)" fill="#9b9b9a"/>
            <rect id="사각형_7015" data-name="사각형 7015" width="103.678" height="0.747" transform="translate(91.291 106.131) rotate(-0.914)" fill="#9b9b9a"/>
            <rect id="사각형_7016" data-name="사각형 7016" width="103.678" height="0.747" transform="translate(91.363 110.615) rotate(-0.914)" fill="#9b9b9a"/>
            <path id="패스_25284" data-name="패스 25284" d="M335.355,425.1l-.012-.747,103.665-1.654.012.747" transform="translate(-243.879 -307.405)" fill="#9b9b9a"/>
            <path id="패스_25285" data-name="패스 25285" d="M439.27,439.133l.012.747-103.665,1.655-.012-.747" transform="translate(-244.07 -319.361)" fill="#9b9b9a"/>
            <path id="패스_25286" data-name="패스 25286" d="M439.533,455.573l.012.747L335.88,457.974l-.012-.747" transform="translate(-244.261 -331.316)" fill="#9b9b9a"/>
            <g id="그룹_15650" data-name="그룹 15650" transform="translate(100.88 118.763)" style="mix-blend-mode: multiply;isolation: isolate">
              <g id="그룹_15649" data-name="그룹 15649">
                <g id="그룹_15648" data-name="그룹 15648" clip-path="url(#clip-path-3)">
                  <path id="패스_25287" data-name="패스 25287" d="M398.908,477.235l-.183-.077a13.835,13.835,0,0,1-2.818-1.595,13.811,13.811,0,0,1-3.041,1.111l-.193.046-.139-.142a12.839,12.839,0,0,1-1.935-2.517,13.024,13.024,0,0,1-3.262-.174l-.2-.036-.069-.189a12.413,12.413,0,0,1-.71-3.154,11.091,11.091,0,0,1-2.876-1.691l-.146-.118.017-.187a14.848,14.848,0,0,1,.767-3.528,12.109,12.109,0,0,1-1.756-3.453l-.047-.141.069-.131a12.106,12.106,0,0,1,2.3-3.12,14.856,14.856,0,0,1-.18-3.606l.014-.187.163-.092a11.1,11.1,0,0,1,3.113-1.2,12.424,12.424,0,0,1,1.216-3l.1-.175.2,0a13.011,13.011,0,0,1,3.247.362,12.836,12.836,0,0,1,2.32-2.167l.16-.117.183.077a13.827,13.827,0,0,1,2.818,1.594,13.822,13.822,0,0,1,3.041-1.113l.193-.046.139.142a12.846,12.846,0,0,1,1.936,2.517,13.011,13.011,0,0,1,3.262.173l.2.035.069.189a12.41,12.41,0,0,1,.711,3.154,11.089,11.089,0,0,1,2.877,1.691l.146.118-.017.187a14.846,14.846,0,0,1-.766,3.529,12.11,12.11,0,0,1,1.757,3.455l.046.141-.069.132a12.107,12.107,0,0,1-2.3,3.12,14.833,14.833,0,0,1,.179,3.607l-.014.187-.163.092a11.089,11.089,0,0,1-3.115,1.2,12.408,12.408,0,0,1-1.217,3l-.1.175-.2,0a13.035,13.035,0,0,1-3.247-.362,12.858,12.858,0,0,1-2.322,2.166Zm-2.932-2.5.179.137a12.991,12.991,0,0,0,2.661,1.561,12.012,12.012,0,0,0,2.17-2.094l.142-.179.221.058a12.264,12.264,0,0,0,3.077.4,11.648,11.648,0,0,0,1.1-2.854l.052-.219.221-.043a10.344,10.344,0,0,0,2.959-1.074,14.167,14.167,0,0,0-.215-3.428l-.035-.19.141-.131a11.25,11.25,0,0,0,2.224-2.933,11.255,11.255,0,0,0-1.714-3.258l-.118-.152.066-.181a14.159,14.159,0,0,0,.772-3.347,10.334,10.334,0,0,0-2.743-1.543l-.211-.079-.016-.225a11.635,11.635,0,0,0-.62-3,12.251,12.251,0,0,0-3.1-.112l-.227.021-.111-.2a11.99,11.99,0,0,0-1.8-2.421,12.987,12.987,0,0,0-2.88,1.105l-.2.106-.179-.137a13,13,0,0,0-2.661-1.56,11.994,11.994,0,0,0-2.169,2.095l-.142.179-.221-.058a12.255,12.255,0,0,0-3.077-.4,11.63,11.63,0,0,0-1.1,2.854l-.052.219-.221.043a10.347,10.347,0,0,0-2.958,1.074,14.16,14.16,0,0,0,.216,3.427l.035.19-.141.131a11.253,11.253,0,0,0-2.224,2.932,11.247,11.247,0,0,0,1.714,3.256l.118.153-.066.181a14.172,14.172,0,0,0-.773,3.346,10.355,10.355,0,0,0,2.742,1.543l.211.079.016.225a11.629,11.629,0,0,0,.619,3,12.238,12.238,0,0,0,3.1.113l.227-.021.111.2a11.993,11.993,0,0,0,1.8,2.421,13,13,0,0,0,2.88-1.1Z" transform="translate(-378.923 -444.544)" fill="#b8dcf9"/>
                  <path id="패스_25288" data-name="패스 25288" d="M389.77,473.5a16.841,16.841,0,1,1,18.166-15.4,16.86,16.86,0,0,1-18.166,15.4m2.706-32.869a16.139,16.139,0,1,0,14.761,17.409,16.158,16.158,0,0,0-14.761-17.409" transform="translate(-373.099 -438.666)" fill="#b8dcf9"/>
                  <path id="패스_25289" data-name="패스 25289" d="M393.079,475.513a15.637,15.637,0,1,1,16.867-14.3,15.655,15.655,0,0,1-16.867,14.3m2.508-30.47a14.936,14.936,0,1,0,13.66,16.111,14.953,14.953,0,0,0-13.66-16.111" transform="translate(-376.308 -441.875)" fill="#b8dcf9"/>
                  <path id="패스_25290" data-name="패스 25290" d="M386.44,471.48a18.053,18.053,0,1,1,19.473-16.511A18.074,18.074,0,0,1,386.44,471.48m2.9-35.285a17.351,17.351,0,1,0,15.869,18.716,17.371,17.371,0,0,0-15.869-18.716" transform="translate(-369.867 -435.434)" fill="#b8dcf9"/>
                  <path id="패스_25291" data-name="패스 25291" d="M405.791,483.236a11.012,11.012,0,1,1,11.879-10.072,11.025,11.025,0,0,1-11.879,10.072m1.749-21.251a10.311,10.311,0,1,0,9.43,11.122,10.323,10.323,0,0,0-9.43-11.122" transform="translate(-388.641 -454.207)" fill="#b8dcf9"/>
                  <path id="패스_25292" data-name="패스 25292" d="M412.171,467.767a9.243,9.243,0,1,0,8.454,9.97,9.243,9.243,0,0,0-8.454-9.97m5.714,3.79a1.636,1.636,0,0,1-.17.237,50.433,50.433,0,0,0-3.887,5.237,44.457,44.457,0,0,0-3.186,5.864.576.576,0,0,1-.394.319,2.428,2.428,0,0,1-.866.046q-.266-.022-.448-.053a1.234,1.234,0,0,1-.3-.088.741.741,0,0,1-.2-.129.594.594,0,0,1-.128-.178q-.31-.611-.6-1.142t-.618-1.034q-.322-.5-.694-1.02t-.834-1.1a2.75,2.75,0,0,1-.229-.32.426.426,0,0,1-.067-.248.438.438,0,0,1,.17-.288,1.413,1.413,0,0,1,.4-.235,2.5,2.5,0,0,1,.514-.146,2.055,2.055,0,0,1,.526-.028,1.152,1.152,0,0,1,.43.106.983.983,0,0,1,.309.264,14.671,14.671,0,0,1,1.046,1.471q.461.745.9,1.534.588-1.249,1.2-2.407t1.287-2.262q.672-1.1,1.425-2.168t1.619-2.13a1.639,1.639,0,0,1,.887-.555,4.257,4.257,0,0,1,1.434-.083.98.98,0,0,1,.409.109.227.227,0,0,1,.142.212.513.513,0,0,1-.068.212" transform="translate(-393.359 -458.925)" fill="#b8dcf9"/>
                </g>
              </g>
            </g>
            <path id="패스_25293" data-name="패스 25293" d="M634.1,536.53c-.365-4.744,2.737-23.718,1.642-25.177s-29.891-15.819-34.167-15.265a7.034,7.034,0,0,0-2.895,1.175,1.964,1.964,0,0,1-2.058.708c-5.091-1.253-19.895-4.762-22.455-3.858-1.707.6-2.463,4.835,2.919,6.933s37.127,11.585,29.1,20.89c-4.961,5.751-7.142,8.156-8.931,10.066-.706.754-5.209.222-5.935-.138a13.432,13.432,0,0,1-6.029-6.762l-2.687-6.034c-.224-.452-.443-.875-.658-1.285l-.051.041c-2.153-5.975-4.284-6.452-6.785-5.381-2.607,1.117-2.3,7.267-1.5,11.053l.143.931-.074.06,4.525,12.086a29.167,29.167,0,0,0,8.2,12.219c.21.176.415.349.611.517a10.506,10.506,0,0,0,2.18,1.453v0s16.257,11.674,26.839,25.814L640.033,554.5s-5.565-13.227-5.93-17.971" transform="translate(-416.648 -359.237)" fill="#fdc599"/>
            <rect id="사각형_7018" data-name="사각형 7018" width="41.171" height="17.503" transform="translate(187.719 207.183) rotate(-37.401)" fill="#f4f4f4"/>
            <path id="패스_25294" data-name="패스 25294" d="M766.85,729.072l-58.6-.148-7.131-9.327,36.818-28.15Z" transform="translate(-509.89 -502.856)" fill="#1c1c1b"/>
            <path id="패스_25295" data-name="패스 25295" d="M532.717,491.043l-.925-.249.4.868Z" transform="translate(-386.747 -356.931)" fill="#1c1c1b"/>
            <path id="패스_25296" data-name="패스 25296" d="M816.456,721.51l-1.015-.937,1.406-1.5L799.4,702.96a1.368,1.368,0,0,1-.068-1.945l18.464,17.052.186.172.829.766Z" transform="translate(-581.043 -509.815)" fill="#c4c4c4"/>
            <path id="패스_25297" data-name="패스 25297" d="M738.255,673.507l-6.643,7.074,32.526,30.037,6.643-7.074Z" transform="translate(-532.066 -489.81)" fill="#3a8c3c"/>
            <path id="패스_25298" data-name="패스 25298" d="M563.906,513.06l-6.228,6.632,47.637,43.993,6.228-6.632Z" transform="translate(-405.573 -373.124)" fill="#4dad50"/>
            <path id="패스_25299" data-name="패스 25299" d="M550.372,502.8l-4.337,4.618,3.176,4.813,6.228-6.632Z" transform="translate(-397.105 -365.661)" fill="#3a8c3c"/>
            <path id="패스_25300" data-name="패스 25300" d="M859.085,787.456l-4.706,5.011,1.015.937,4.706-5.011Z" transform="translate(-621.349 -572.68)" fill="#4dad50"/>
            <path id="패스_25301" data-name="패스 25301" d="M613.618,563.685l6.228-6.632L572.209,513.06l-3.114,3.316a25.045,25.045,0,0,1,10.268,5.721l28.928,26.715A17.026,17.026,0,0,1,613.618,563.685Z" transform="translate(-413.876 -373.124)" fill="#439e46"/>
            <path id="패스_25302" data-name="패스 25302" d="M860.1,788.393h0a2.586,2.586,0,0,0-2.1.678l-3.616,3.4,4.706-5.011Z" transform="translate(-621.35 -572.68)" fill="#439e46"/>
            <path id="패스_25303" data-name="패스 25303" d="M770.78,703.544l-32.526-30.037-6.644,7.074,4.527-2.7a4.449,4.449,0,0,1,5.164.436Z" transform="translate(-532.066 -489.81)" fill="#2e7d32"/>
            <path id="패스_25304" data-name="패스 25304" d="M552.324,508.913l.439-1.666a2.082,2.082,0,0,0-.92-2.3,2.126,2.126,0,0,0-2.328.06l-3.481,2.411,4.337-4.618,5.067,2.8Z" transform="translate(-397.105 -365.661)" fill="#2e7d32"/>
            <path id="패스_25305" data-name="패스 25305" d="M606.257,572.652c-2.677-2.757-5.421-5.44-8.19-8.1-1.378-1.336-2.781-2.646-4.172-3.968l-4.21-3.926-4.248-3.887c-1.429-1.282-2.845-2.577-4.287-3.845-2.87-2.55-5.766-5.074-8.729-7.525,2.676,2.758,5.42,5.442,8.189,8.1,1.378,1.336,2.781,2.645,4.172,3.967l4.211,3.926,4.249,3.885c1.429,1.282,2.846,2.577,4.287,3.845,2.87,2.55,5.765,5.074,8.728,7.526" transform="translate(-416.293 -393.737)" fill="#64b96a"/>
            <path id="패스_25306" data-name="패스 25306" d="M772.432,731.157c-2.286-2.4-4.641-4.719-7.019-7.017-1.183-1.156-2.391-2.285-3.586-3.427l-3.625-3.385-3.662-3.346c-1.234-1.1-2.455-2.216-3.7-3.3-2.48-2.19-4.985-4.353-7.558-6.443,2.285,2.4,4.639,4.72,7.018,7.018,1.182,1.156,2.391,2.284,3.586,3.427l3.626,3.385,3.663,3.345c1.233,1.1,2.455,2.216,3.7,3.3,2.48,2.189,4.984,4.353,7.557,6.444" transform="translate(-540.552 -512.157)" fill="#439e46"/>
            <path id="패스_25307" data-name="패스 25307" d="M536.253,498.822l4.332-4.623-7.227-3.212-.78.832Z" transform="translate(-387.319 -357.071)" fill="#c4c4c4"/>
            <path id="패스_25308" data-name="패스 25308" d="M662.189,508.267s11.3,3.934,14.039,5.211c0,0-10.912-5.365-13.252-5.427Z" transform="translate(-481.579 -369.481)" fill="#fcb07e"/>
            <path id="패스_25309" data-name="패스 25309" d="M574.17,494.111c-1.707.6-2.463,4.835,2.919,6.933,2.331.909,9.608,3.2,16.456,6.27l2.327-9.528c-5.659-1.378-19.258-4.537-21.7-3.674" transform="translate(-416.648 -359.237)" fill="#fdc599"/>
            <path id="패스_25310" data-name="패스 25310" d="M585.671,573.164l-2.688-6.034c-.224-.452-.443-.876-.658-1.285l-.051.041c-2.153-5.975-4.284-6.452-6.784-5.381-2.607,1.117-2.3,7.267-1.5,11.052l.143.932-.073.06,4.525,12.086a30.182,30.182,0,0,0,7.022,11.153l3.019-18.148a15.477,15.477,0,0,1-2.957-4.477" transform="translate(-417.024 -407.3)" fill="#fdc599"/>
            <path id="패스_25311" data-name="패스 25311" d="M575.483,569.877l-1.546-.056c-.634-.023-1.093-.811-1.024-1.758l.234-3.253c.114-1.586,1.067-2.841,2.128-2.8s1.828,1.356,1.714,2.942l-.234,3.252c-.068.948-.638,1.7-1.272,1.675" transform="translate(-416.648 -408.721)" fill="#fdd4b9"/>
            <path id="패스_25312" data-name="패스 25312" d="M580.438,494.115s.144,2.607,6.887.7c0,0-5.645-1.357-6.887-.7" transform="translate(-422.125 -359.214)" fill="#fdd4b9"/>
            <path id="패스_25313" data-name="패스 25313" d="M144.33,289.545l-.085-.3a53.72,53.72,0,0,1-1.951-12.991L118,257.239c-4.712.416-10.424.676-17.351.676v34.552c28.977,0,44.562,2.532,44.562,2.532Z" transform="translate(-73.194 -187.078)" fill="#fcb07e"/>
            <path id="패스_25314" data-name="패스 25314" d="M231.543,210.749c0-3.911-5.954-5.264-9.865-5.264l-14.631-1.124a30.689,30.689,0,0,0-16.464,3.341c-.308.16-.609.314-.9.462a16.424,16.424,0,0,0-3.4,2.287,31.916,31.916,0,0,1-8.242,5.214,34.379,34.379,0,0,1-9.559,2.609q-1.962.243-4.22.444l24.3,19.013c-.028-1.065.046-2.55.163-4.1a8.856,8.856,0,0,1,6.359-7.862,16.653,16.653,0,0,0,2.935-1.155,15.273,15.273,0,0,0,6.135-5.487h14.065c11.336-.577,13.326-3.752,13.326-8.38" transform="translate(-119.459 -148.556)" fill="#fcb07e"/>
            <path id="패스_25315" data-name="패스 25315" d="M371.591,219.561v-2.724a1.9,1.9,0,0,1,2.023-1.916l3.834.2a3.612,3.612,0,0,1,3.386,3.565,3.179,3.179,0,0,1-3.386,3.206l-3.834-.2a2.159,2.159,0,0,1-2.023-2.131" transform="translate(-270.241 -156.299)" fill="#fdd4b9"/>
            <rect id="사각형_7019" data-name="사각형 7019" width="13.973" height="40.17" transform="translate(35.7 67.546)" fill="#f4f4f4"/>
            <rect id="사각형_7020" data-name="사각형 7020" width="37.069" height="49.573" transform="translate(0 63.156)" fill="#0a274c"/>
            <path id="패스_25316" data-name="패스 25316" d="M95.749,381.505a2.5,2.5,0,1,1,0-3.533,2.5,2.5,0,0,1,0,3.533" transform="translate(-66.532 -274.349)" fill="#f4f4f4"/>
            <path id="패스_25317" data-name="패스 25317" d="M428.518,68.139a2.821,2.821,0,0,1-2.926,2.267c-2.225.043-3.371-1.611-3.411-3.7-.038-2.009,1.046-3.846,3.307-3.89a2.7,2.7,0,0,1,2.971,2.191l-1.05.02a1.819,1.819,0,0,0-1.945-1.344c-1.594.03-2.215,1.491-2.187,2.969.028,1.427.667,2.919,2.341,2.887a1.851,1.851,0,0,0,1.845-1.379Z" transform="translate(-307.032 -45.682)" fill="#575756"/>
            <path id="패스_25318" data-name="패스 25318" d="M456.116,65.986c.039,2.035-1.077,3.863-3.413,3.907-2.191.042-3.437-1.616-3.478-3.736s1.178-3.825,3.42-3.868c2.09-.04,3.429,1.492,3.471,3.7m-5.795.119c.03,1.579.853,2.929,2.41,2.9,1.682-.032,2.318-1.434,2.289-2.982-.03-1.57-.807-2.873-2.4-2.843-1.636.032-2.327,1.365-2.3,2.926" transform="translate(-326.7 -45.3)" fill="#575756"/>
            <path id="패스_25319" data-name="패스 25319" d="M479.948,69.417l-.142-7.389L481.181,62c1.077,1.7,3.383,5.254,3.8,6.05H485c-.091-.927-.107-2.106-.13-3.313l-.054-2.806.986-.019.142,7.389-1.293.025c-.987-1.567-3.407-5.418-3.875-6.241h-.015c.069.819.1,2.1.122,3.434l.055,2.878Z" transform="translate(-348.94 -45.026)" fill="#575756"/>
            <path id="패스_25320" data-name="패스 25320" d="M508.326,62.384l-2.37.046-.017-.892,5.8-.112.017.893-2.373.046.125,6.5-1.056.02Z" transform="translate(-367.945 -44.672)" fill="#575756"/>
            <path id="패스_25321" data-name="패스 25321" d="M532.174,65.348l.062,3.221-1.038.02-.142-7.389,2.928-.056c1.529-.029,2.361.786,2.383,1.938a1.693,1.693,0,0,1-1.205,1.763c.579.148,1.116.58,1.14,1.867l.007.322a5.293,5.293,0,0,0,.128,1.455l-1.016.019a5.069,5.069,0,0,1-.159-1.594l0-.152c-.02-1.024-.315-1.467-1.625-1.442Zm-.017-.875,1.576-.03c1.1-.021,1.571-.445,1.556-1.251-.015-.765-.522-1.188-1.5-1.169l-1.679.032Z" transform="translate(-386.212 -44.467)" fill="#575756"/>
            <path id="패스_25322" data-name="패스 25322" d="M556.239,65.908l-.728,2.174-1.043.02,2.476-7.439,1.3-.025,2.873,7.337L560,67.995l-.837-2.143Zm2.642-.944c-.721-1.885-1.121-2.906-1.295-3.478h-.011c-.168.642-.57,1.889-1.09,3.523Z" transform="translate(-403.238 -44.098)" fill="#575756"/>
            <path id="패스_25323" data-name="패스 25323" d="M587.175,65.094a2.82,2.82,0,0,1-2.925,2.267c-2.225.043-3.37-1.61-3.41-3.7-.039-2.009,1.045-3.846,3.307-3.89a2.7,2.7,0,0,1,2.971,2.191l-1.05.02a1.82,1.82,0,0,0-1.945-1.344c-1.594.03-2.215,1.491-2.187,2.969.028,1.427.667,2.919,2.341,2.887a1.851,1.851,0,0,0,1.845-1.38Z" transform="translate(-422.416 -43.468)" fill="#575756"/>
            <path id="패스_25324" data-name="패스 25324" d="M608.446,60.463l-2.371.045-.017-.892,5.8-.112.017.893-2.373.046.125,6.5-1.056.02Z" transform="translate(-440.758 -43.274)" fill="#575756"/>
          </g>
        </g>
      </g>
    </g>
  </g>
</svg>
