<svg xmlns="http://www.w3.org/2000/svg" width="300" height="400" viewBox="0 0 300 400">
  <g id="그룹_15667" data-name="그룹 15667" transform="translate(-977 -1123)">
    <rect id="사각형_6975" data-name="사각형 6975" width="300" height="400" transform="translate(977 1123)" fill="#f4f4f6"/>
    <text id="Reputation_System" data-name="Reputation System" transform="translate(1003 1189)" fill="#333" font-size="24" font-family="Roboto-Bold, Roboto" font-weight="700" letter-spacing="-0.03em"><tspan x="0" y="0">Reputation System</tspan></text>
    <path id="패스_25356" data-name="패스 25356" d="M608.547,16.625a1.868,1.868,0,0,0-.989-3.2l-.766-.123-5.92-.949-3.1-.5a3.3,3.3,0,0,1-2.462-1.843l-4.255-8.95a1.867,1.867,0,0,0-3.347-.048l-4.516,8.821a3.3,3.3,0,0,1-2.514,1.771l-9.826,1.282a1.834,1.834,0,0,0-1.279.767,1.861,1.861,0,0,0,.2,2.4l6.994,7.021a3.257,3.257,0,0,1,.738,1.139,3.3,3.3,0,0,1,.17,1.8l-.342,1.832-1.276,6.835-.2,1.075a1.867,1.867,0,0,0,2.681,2.006l8.838-4.483a3.309,3.309,0,0,1,3.074.046l8.7,4.739a1.867,1.867,0,0,0,2.736-1.929l-1.532-9.79a3.3,3.3,0,0,1,.993-2.911Z" transform="translate(634.218 1277.636)" fill="#d1d1d1"/>
    <path id="패스_25357" data-name="패스 25357" d="M39.319,16.625a1.868,1.868,0,0,0-.989-3.2l-.766-.123-5.92-.949-3.1-.5a3.3,3.3,0,0,1-2.462-1.843L21.83,1.064a1.867,1.867,0,0,0-3.347-.048L13.967,9.836a3.3,3.3,0,0,1-2.514,1.771L1.627,12.889a1.834,1.834,0,0,0-1.279.767,1.861,1.861,0,0,0,.2,2.4l6.994,7.021a3.25,3.25,0,0,1,.738,1.139,3.3,3.3,0,0,1,.17,1.8l-.342,1.832L6.831,34.683l-.2,1.075A1.867,1.867,0,0,0,9.31,37.764l8.838-4.483a3.309,3.309,0,0,1,3.074.046l8.7,4.739a1.867,1.867,0,0,0,2.736-1.929l-1.532-9.79a3.3,3.3,0,0,1,.993-2.911Z" transform="translate(1003.304 1277.636)" fill="#ffd93b"/>
    <path id="패스_25358" data-name="패스 25358" d="M181.626,16.625a1.868,1.868,0,0,0-.989-3.2l-.766-.123-5.92-.949-3.1-.5a3.3,3.3,0,0,1-2.462-1.843l-4.255-8.95a1.867,1.867,0,0,0-3.347-.048l-4.516,8.821a3.3,3.3,0,0,1-2.514,1.771l-9.826,1.282a1.834,1.834,0,0,0-1.279.767,1.861,1.861,0,0,0,.2,2.4l6.994,7.021a3.255,3.255,0,0,1,.738,1.139,3.3,3.3,0,0,1,.17,1.8l-.342,1.832-1.276,6.835-.2,1.075a1.867,1.867,0,0,0,2.681,2.006l8.838-4.483a3.309,3.309,0,0,1,3.074.046l8.7,4.739a1.867,1.867,0,0,0,2.736-1.929l-1.532-9.79a3.3,3.3,0,0,1,.993-2.911Z" transform="translate(911.032 1277.636)" fill="#ffd93b"/>
    <path id="패스_25359" data-name="패스 25359" d="M323.933,16.625a1.868,1.868,0,0,0-.989-3.2l-.766-.123-5.92-.949-3.1-.5a3.3,3.3,0,0,1-2.462-1.843l-4.255-8.95a1.867,1.867,0,0,0-3.347-.048l-4.516,8.821a3.3,3.3,0,0,1-2.514,1.771l-9.826,1.282a1.834,1.834,0,0,0-1.279.767,1.86,1.86,0,0,0,.2,2.4l6.994,7.021a3.255,3.255,0,0,1,.738,1.139,3.3,3.3,0,0,1,.17,1.8l-.342,1.832-1.276,6.835-.2,1.075a1.867,1.867,0,0,0,2.681,2.006l8.838-4.483a3.309,3.309,0,0,1,3.074.046l8.7,4.739a1.867,1.867,0,0,0,2.736-1.929l-1.532-9.79a3.3,3.3,0,0,1,.993-2.911Z" transform="translate(818.761 1277.636)" fill="#ffd93b"/>
    <path id="패스_25360" data-name="패스 25360" d="M466.24,16.625a1.868,1.868,0,0,0-.989-3.2l-.767-.123-5.92-.949-3.1-.5a3.3,3.3,0,0,1-2.462-1.843l-4.255-8.95a1.867,1.867,0,0,0-3.347-.048l-4.516,8.821a3.3,3.3,0,0,1-2.514,1.771l-9.826,1.282a1.834,1.834,0,0,0-1.279.767,1.861,1.861,0,0,0,.2,2.4l6.994,7.021a3.255,3.255,0,0,1,.738,1.139,3.3,3.3,0,0,1,.17,1.8l-.342,1.832-1.276,6.835-.2,1.075a1.867,1.867,0,0,0,2.681,2.006l8.838-4.483a3.309,3.309,0,0,1,3.074.046l8.7,4.739a1.867,1.867,0,0,0,2.736-1.929l-1.532-9.79a3.3,3.3,0,0,1,.993-2.911Z" transform="translate(726.49 1277.636)" fill="#ffd93b"/>
    <path id="패스_25361" data-name="패스 25361" d="M608.547,71.085a1.868,1.868,0,0,0-.989-3.2l-.766-.123-5.92-.949-3.1-.5a3.3,3.3,0,0,1-2.462-1.843l-4.255-8.95a1.867,1.867,0,0,0-3.347-.048L583.195,64.3a3.3,3.3,0,0,1-2.514,1.771l-9.826,1.281a1.836,1.836,0,0,0-1.279.767,1.861,1.861,0,0,0,.2,2.4l6.994,7.021a3.263,3.263,0,0,1,.738,1.139,3.3,3.3,0,0,1,.17,1.8l-.342,1.832-1.276,6.835-.2,1.075a1.867,1.867,0,0,0,2.681,2.006l8.838-4.483a3.309,3.309,0,0,1,3.074.046l8.7,4.739A1.866,1.866,0,0,0,601.89,90.6l-1.532-9.79a3.3,3.3,0,0,1,.993-2.911Z" transform="translate(634.218 1242.324)" fill="#ffd93b"/>
    <g id="그룹_15662" data-name="그룹 15662" transform="translate(-51.7 26.619)">
      <path id="패스_25362" data-name="패스 25362" d="M682.936,185.066c-.056-4.707-4.315-8.476-9.513-8.414s-9.366,3.931-9.311,8.64l-.066-5.537c-.091-7.58-4.336-10.279-9.535-10.217a9.105,9.105,0,0,0-6.624,2.777,10.687,10.687,0,0,0-2.665,7.664l-.088-7.4c-.057-4.71-4.315-8.476-9.514-8.414a9.9,9.9,0,0,0-6.627,2.577,8.194,8.194,0,0,0-2.649,5.284V130.22a9.342,9.342,0,1,0-18.684,0v46.007a7.768,7.768,0,0,0-.12,1.39l.12,9.964v1.958h.024l.272,22.815a59.845,59.845,0,0,0-21.692-5.182c-12.424-.579-21.815,3.072-21.314,11.412v.006c.04,3.4,3.117,6.126,6.874,6.081l5.655-.3c7.708-.408,10.338,1.683,16.558,5.811,7.532,4.995,17.382,11.464,21.28,13.747a10.264,10.264,0,0,1,4.562,5.347,12.576,12.576,0,0,1,.609,6.205l53.647-.641a15.226,15.226,0,0,1,1.147-6.227c2.518-6.028,8.307-8.75,8.195-18.195Zm-56.591-7.98v-1.428l.02,1.734c0-.1-.015-.2-.02-.306" transform="translate(615.134 1187.584)" fill="#f4b17a"/>
      <path id="패스_25363" data-name="패스 25363" d="M619.159,279.723l72.892-.871.645,54.074h-72.9Z" transform="translate(606.851 1163.455)" fill="#15647c"/>
      <path id="패스_25365" data-name="패스 25365" d="M629.786,272.3l55.4-.662a15.227,15.227,0,0,0-1.147,6.226l-53.647.641a12.576,12.576,0,0,0-.609-6.205" transform="translate(605.228 1164.557)" fill="#e69a5c"/>
    </g>
    <rect id="사각형_7033" data-name="사각형 7033" width="203.392" height="98.728" transform="translate(1017.304 1273.636)" fill="none"/>
  </g>
</svg>
