<svg xmlns="http://www.w3.org/2000/svg" width="62.209" height="61.545" viewBox="0 0 62.209 61.545">
  <g id="그룹_15666" data-name="그룹 15666" transform="translate(-607.141 -122.455)">
    <path id="패스_25264" data-name="패스 25264" d="M62.209,30.773A30.94,30.94,0,0,1,31.1,61.545,30.94,30.94,0,0,1,0,30.773,30.94,30.94,0,0,1,31.1,0a30.94,30.94,0,0,1,31.1,30.773" transform="translate(607.141 122.455)" fill="#fff"/>
    <path id="패스_25265" data-name="패스 25265" d="M60.05,66.538h0a12.532,12.532,0,0,1-11.743-7.983L40.225,40.81a12.531,12.531,0,0,1,11.743,7.983Z" transform="translate(588.669 103.336)" fill="#6d95ff"/>
    <path id="패스_25266" data-name="패스 25266" d="M37.556,66.538h0a12.532,12.532,0,0,1-11.743-7.983L17.731,40.81a12.531,12.531,0,0,1,11.743,7.983Z" transform="translate(598.999 103.336)" fill="#6d95ff"/>
    <path id="패스_25267" data-name="패스 25267" d="M76.409,62.247,85.683,40.81a12.532,12.532,0,0,0-11.743,7.983L72,52.56Z" transform="translate(574.079 103.372)" fill="#6d95ff"/>
  </g>
</svg>
